<svg xmlns="http://www.w3.org/2000/svg" xmlns:xlink="http://www.w3.org/1999/xlink" width="100" zoomAndPan="magnify" viewBox="0 0 75 74.999997" height="100" preserveAspectRatio="xMidYMid meet" version="1.0"><defs><g/><clipPath id="a624553a9c"><path d="M 3 3 L 72 3 L 72 72 L 3 72 Z M 3 3 " clip-rule="nonzero"/></clipPath><clipPath id="7fd7c13a3f"><path d="M 3.683594 37.515625 C 3.683594 18.855469 18.855469 3.710938 37.484375 3.710938 C 56.117188 3.710938 71.316406 18.855469 71.316406 37.515625 C 71.316406 56.171875 56.144531 71.316406 37.515625 71.316406 C 18.882812 71.316406 3.683594 56.144531 3.683594 37.515625 Z M 69.644531 37.515625 C 69.644531 19.804688 55.226562 5.382812 37.515625 5.382812 C 19.804688 5.382812 5.382812 19.804688 5.382812 37.515625 C 5.382812 55.226562 19.773438 69.644531 37.484375 69.644531 C 55.195312 69.644531 69.644531 55.226562 69.644531 37.515625 Z M 69.644531 37.515625 " clip-rule="nonzero"/></clipPath></defs><path fill="#193d2a" d="M 37.484375 75.027344 C 36.257812 75.027344 35.03125 74.96875 33.808594 74.847656 C 32.585938 74.726562 31.371094 74.546875 30.167969 74.308594 C 28.960938 74.066406 27.773438 73.769531 26.597656 73.414062 C 25.421875 73.054688 24.265625 72.640625 23.128906 72.171875 C 21.996094 71.703125 20.886719 71.175781 19.800781 70.597656 C 18.71875 70.019531 17.664062 69.386719 16.644531 68.707031 C 15.621094 68.023438 14.636719 67.292969 13.6875 66.511719 C 12.738281 65.734375 11.828125 64.910156 10.960938 64.039062 C 10.089844 63.171875 9.265625 62.261719 8.488281 61.3125 C 7.707031 60.363281 6.976562 59.378906 6.292969 58.355469 C 5.613281 57.335938 4.980469 56.28125 4.402344 55.199219 C 3.824219 54.113281 3.296875 53.003906 2.828125 51.871094 C 2.359375 50.734375 1.945312 49.578125 1.585938 48.402344 C 1.230469 47.226562 0.933594 46.039062 0.691406 44.832031 C 0.453125 43.628906 0.273438 42.414062 0.152344 41.191406 C 0.03125 39.96875 -0.0273438 38.742188 -0.0273438 37.515625 C -0.0273438 36.285156 0.03125 35.058594 0.152344 33.835938 C 0.273438 32.613281 0.453125 31.398438 0.691406 30.195312 C 0.933594 28.992188 1.230469 27.800781 1.585938 26.625 C 1.945312 25.449219 2.359375 24.292969 2.828125 23.15625 C 3.296875 22.023438 3.824219 20.914062 4.402344 19.828125 C 4.980469 18.746094 5.613281 17.695312 6.292969 16.671875 C 6.976562 15.652344 7.707031 14.664062 8.488281 13.714844 C 9.265625 12.765625 10.089844 11.855469 10.960938 10.988281 C 11.828125 10.117188 12.738281 9.292969 13.6875 8.515625 C 14.636719 7.734375 15.621094 7.003906 16.644531 6.320312 C 17.664062 5.640625 18.71875 5.007812 19.800781 4.429688 C 20.886719 3.851562 21.996094 3.324219 23.128906 2.855469 C 24.265625 2.386719 25.421875 1.972656 26.597656 1.617188 C 27.773438 1.257812 28.960938 0.960938 30.167969 0.722656 C 31.371094 0.480469 32.585938 0.300781 33.808594 0.179688 C 35.03125 0.0585938 36.257812 0 37.484375 0 C 38.714844 0 39.941406 0.0585938 41.164062 0.179688 C 42.386719 0.300781 43.601562 0.480469 44.804688 0.722656 C 46.007812 0.960938 47.199219 1.257812 48.375 1.617188 C 49.550781 1.972656 50.707031 2.386719 51.84375 2.855469 C 52.976562 3.324219 54.085938 3.851562 55.171875 4.429688 C 56.253906 5.007812 57.304688 5.640625 58.328125 6.320312 C 59.347656 7.003906 60.335938 7.734375 61.285156 8.515625 C 62.234375 9.292969 63.144531 10.117188 64.011719 10.988281 C 64.882812 11.855469 65.707031 12.765625 66.484375 13.714844 C 67.265625 14.664062 67.996094 15.652344 68.679688 16.671875 C 69.359375 17.695312 69.992188 18.746094 70.570312 19.828125 C 71.148438 20.914062 71.675781 22.023438 72.144531 23.15625 C 72.613281 24.292969 73.027344 25.449219 73.382812 26.625 C 73.742188 27.800781 74.039062 28.992188 74.277344 30.195312 C 74.519531 31.398438 74.699219 32.613281 74.820312 33.835938 C 74.941406 35.058594 75 36.285156 75 37.515625 C 75 38.742188 74.941406 39.96875 74.820312 41.191406 C 74.699219 42.414062 74.519531 43.628906 74.277344 44.832031 C 74.039062 46.039062 73.742188 47.226562 73.382812 48.402344 C 73.027344 49.578125 72.613281 50.734375 72.144531 51.871094 C 71.675781 53.003906 71.148438 54.113281 70.570312 55.199219 C 69.992188 56.28125 69.359375 57.335938 68.679688 58.355469 C 67.996094 59.378906 67.265625 60.363281 66.484375 61.3125 C 65.707031 62.261719 64.882812 63.171875 64.011719 64.039062 C 63.144531 64.910156 62.234375 65.734375 61.285156 66.511719 C 60.335938 67.292969 59.347656 68.023438 58.328125 68.707031 C 57.304688 69.386719 56.253906 70.019531 55.171875 70.597656 C 54.085938 71.175781 52.976562 71.703125 51.84375 72.171875 C 50.707031 72.640625 49.550781 73.054688 48.375 73.414062 C 47.199219 73.769531 46.007812 74.066406 44.804688 74.308594 C 43.601562 74.546875 42.386719 74.726562 41.164062 74.847656 C 39.941406 74.96875 38.714844 75.027344 37.484375 75.027344 Z M 37.484375 75.027344 " fill-opacity="1" fill-rule="nonzero"/><g clip-path="url(#a624553a9c)"><g clip-path="url(#7fd7c13a3f)"><path fill="#193d2a" d="M 71.316406 3.710938 L 3.683594 3.710938 L 3.683594 71.316406 L 71.316406 71.316406 Z M 71.316406 3.710938 " fill-opacity="1" fill-rule="nonzero"/></g></g><g fill="#ffffff" fill-opacity="1"><g transform="translate(25.349432, 50.069549)"><g><path d="M 23.007812 -8.808594 L 18.542969 -8.808594 L 18.542969 -28.15625 L 15.445312 -28.15625 L 1.328125 -8.609375 L 1.328125 -8.003906 L 14.960938 -8.003906 L 14.960938 0 L 18.542969 0 L 18.542969 -8.003906 L 23.007812 -8.003906 Z M 2.695312 -8.808594 L 14.960938 -25.824219 L 14.960938 -8.808594 Z M 2.695312 -8.808594 "/></g></g></g></svg>