<svg xmlns="http://www.w3.org/2000/svg" xmlns:xlink="http://www.w3.org/1999/xlink" width="500" zoomAndPan="magnify" viewBox="0 0 375 374.999991" height="500" preserveAspectRatio="xMidYMid meet" version="1.0"><defs><clipPath id="d0a2bdb3f7"><path d="M 0 0 L 373.5 0 L 373.5 373.5 L 0 373.5 Z M 0 0 " clip-rule="nonzero"/></clipPath></defs><g clip-path="url(#d0a2bdb3f7)"><path fill="#2f5b44" d="M 186.75 373.5 C 83.578125 373.5 0 289.347656 0 186.75 C 0 84.152344 83.578125 0 186.75 0 C 289.921875 0 373.5 83.578125 373.5 186.75 C 373.5 289.921875 289.347656 373.5 186.75 373.5 Z M 186.75 11.527344 C 89.917969 11.527344 11.527344 89.917969 11.527344 186.75 C 11.527344 283.582031 89.917969 361.972656 186.75 361.972656 C 283.582031 361.972656 361.972656 283.582031 361.972656 186.75 C 361.972656 89.917969 283.007812 11.527344 186.75 11.527344 Z M 186.75 11.527344 " fill-opacity="1" fill-rule="nonzero"/></g><path fill="#2f5b44" d="M 276.566406 160.164062 C 277.945312 156.988281 278.890625 153.710938 279.414062 150.425781 C 286.667969 156.449219 297.191406 159.203125 308 156.972656 C 325.609375 153.339844 337.304688 137.875 334.121094 122.4375 C 330.941406 106.996094 314.085938 97.429688 296.476562 101.058594 C 284.417969 103.546875 275.136719 111.582031 271.5 121.351562 C 269.027344 118.574219 266.019531 116.175781 262.476562 114.296875 C 251.199219 108.316406 238.0625 109.535156 228.042969 116.089844 C 230.667969 116.21875 233.320312 116.621094 235.949219 117.398438 C 253.839844 122.6875 264.152344 141.65625 258.867188 159.554688 L 236.148438 236.476562 C 236.148438 236.476562 261.375 195.167969 276.566406 160.164062 " fill-opacity="1" fill-rule="nonzero"/><path fill="#638b76" d="M 256.898438 251.851562 C 260.339844 251.460938 263.648438 250.640625 266.753906 249.453125 C 265.164062 258.753906 268.042969 269.246094 275.382812 277.496094 C 287.328125 290.9375 306.5625 293.339844 318.332031 282.863281 C 330.109375 272.390625 329.964844 253 318.011719 239.554688 C 309.832031 230.351562 298.238281 226.328125 287.960938 228.0625 C 289.128906 224.53125 289.703125 220.722656 289.558594 216.710938 C 289.09375 203.953125 281.46875 193.179688 270.785156 187.773438 C 271.988281 190.117188 272.964844 192.617188 273.609375 195.285156 C 277.972656 213.425781 266.710938 231.84375 248.574219 236.214844 L 170.636719 254.992188 C 170.636719 254.992188 219.007812 256.195312 256.898438 251.851562 " fill-opacity="1" fill-rule="nonzero"/><path fill="#2f5b44" d="M 167.703125 280.660156 C 169.761719 283.441406 172.125 285.902344 174.703125 288 C 165.863281 291.273438 158.222656 299.011719 154.746094 309.496094 C 149.089844 326.570312 156.621094 344.433594 171.574219 349.398438 C 186.53125 354.359375 203.242188 344.539062 208.902344 327.464844 C 212.78125 315.777344 210.464844 303.714844 203.824219 295.679688 C 207.46875 294.925781 211.050781 293.515625 214.449219 291.386719 C 225.261719 284.601562 230.773438 272.613281 230.109375 260.652344 C 228.6875 262.867188 227.011719 264.960938 225.019531 266.855469 C 211.503906 279.707031 189.929688 279.15625 177.078125 265.628906 L 121.851562 207.484375 C 121.851562 207.484375 144.996094 250 167.703125 280.660156 " fill-opacity="1" fill-rule="nonzero"/><path fill="#638b76" d="M 98.167969 217.773438 C 96.789062 220.949219 95.84375 224.226562 95.316406 227.515625 C 88.0625 221.492188 77.542969 218.738281 66.734375 220.96875 C 49.125 224.601562 37.429688 240.0625 40.609375 255.5 C 43.789062 270.941406 60.648438 280.511719 78.257812 276.878906 C 90.3125 274.394531 99.59375 266.359375 103.230469 256.585938 C 105.707031 259.363281 108.714844 261.765625 112.257812 263.644531 C 123.535156 269.625 136.671875 268.40625 146.6875 261.847656 C 144.0625 261.722656 141.410156 261.320312 138.78125 260.539062 C 120.894531 255.253906 110.582031 236.28125 115.867188 218.382812 L 138.582031 141.460938 C 138.582031 141.460938 113.355469 182.773438 98.167969 217.773438 " fill-opacity="1" fill-rule="nonzero"/><path fill="#2f5b44" d="M 117.835938 126.085938 C 114.394531 126.484375 111.085938 127.296875 107.976562 128.484375 C 109.566406 119.1875 106.691406 108.695312 99.351562 100.445312 C 87.402344 87 68.171875 84.601562 56.398438 95.078125 C 44.625 105.550781 44.765625 124.941406 56.71875 138.382812 C 64.898438 147.585938 76.496094 151.613281 86.773438 149.875 C 85.601562 153.410156 85.027344 157.21875 85.175781 161.230469 C 85.636719 173.988281 93.261719 184.761719 103.949219 190.164062 C 102.742188 187.824219 101.765625 185.324219 101.125 182.65625 C 96.757812 164.511719 108.019531 146.09375 126.15625 141.726562 L 204.09375 122.945312 C 204.09375 122.945312 155.726562 121.742188 117.835938 126.085938 " fill-opacity="1" fill-rule="nonzero"/><path fill="#638b76" d="M 207.03125 97.277344 C 204.972656 94.5 202.609375 92.035156 200.027344 89.941406 C 208.871094 86.667969 216.507812 78.929688 219.988281 68.445312 C 225.648438 51.371094 218.109375 33.507812 203.15625 28.542969 C 188.199219 23.582031 171.488281 33.402344 165.828125 50.472656 C 161.953125 62.164062 164.265625 74.222656 170.90625 82.257812 C 167.265625 83.015625 163.679688 84.421875 160.285156 86.554688 C 149.472656 93.335938 143.957031 105.324219 144.621094 117.285156 C 146.046875 115.074219 147.722656 112.980469 149.710938 111.085938 C 163.230469 98.234375 184.804688 98.78125 197.65625 112.3125 L 252.878906 170.453125 C 252.878906 170.453125 229.734375 127.941406 207.03125 97.277344 " fill-opacity="1" fill-rule="nonzero"/></svg>