<svg xmlns="http://www.w3.org/2000/svg" xmlns:xlink="http://www.w3.org/1999/xlink" width="500" zoomAndPan="magnify" viewBox="0 0 375 374.999991" height="500" preserveAspectRatio="xMidYMid meet" version="1.0"><defs><g/></defs><path fill="#2f5b44" d="M 187.5 375 C 83.910156 375 0 290.507812 0 187.5 C 0 84.492188 83.910156 0 187.5 0 C 291.089844 0 375 83.910156 375 187.5 C 375 291.089844 290.507812 375 187.5 375 Z M 187.5 11.574219 C 90.277344 11.574219 11.574219 90.277344 11.574219 187.5 C 11.574219 284.722656 90.277344 363.425781 187.5 363.425781 C 284.722656 363.425781 363.425781 284.722656 363.425781 187.5 C 363.425781 90.277344 284.144531 11.574219 187.5 11.574219 Z M 187.5 11.574219 " fill-opacity="1" fill-rule="nonzero"/><path fill="#2f5b44" d="M 279.933594 152.226562 C 281.359375 148.941406 282.339844 145.554688 282.886719 142.152344 C 290.390625 148.382812 301.28125 151.230469 312.46875 148.921875 C 330.695312 145.167969 342.800781 129.179688 339.507812 113.214844 C 336.214844 97.25 318.765625 87.355469 300.542969 91.109375 C 288.0625 93.683594 278.457031 101.988281 274.695312 112.09375 C 272.132812 109.222656 269.019531 106.738281 265.351562 104.796875 C 253.683594 98.613281 240.082031 99.871094 229.714844 106.652344 C 232.433594 106.785156 235.179688 107.199219 237.898438 108.003906 C 256.414062 113.472656 267.085938 133.089844 261.617188 151.597656 L 238.105469 231.132812 C 238.105469 231.132812 264.214844 188.417969 279.933594 152.226562 " fill-opacity="1" fill-rule="nonzero"/><path fill="#638b76" d="M 259.578125 247.03125 C 263.140625 246.628906 266.566406 245.78125 269.78125 244.550781 C 268.136719 254.164062 271.113281 265.015625 278.710938 273.546875 C 291.074219 287.449219 310.980469 289.929688 323.164062 279.097656 C 335.351562 268.265625 335.203125 248.214844 322.832031 234.316406 C 314.367188 224.800781 302.367188 220.640625 291.730469 222.433594 C 292.9375 218.78125 293.53125 214.839844 293.382812 210.695312 C 292.902344 197.503906 285.011719 186.363281 273.953125 180.773438 C 275.199219 183.195312 276.210938 185.78125 276.875 188.539062 C 281.390625 207.300781 269.738281 226.34375 250.964844 230.863281 L 170.300781 250.28125 C 170.300781 250.28125 220.363281 251.523438 259.578125 247.03125 " fill-opacity="1" fill-rule="nonzero"/><path fill="#2f5b44" d="M 167.261719 276.820312 C 169.394531 279.695312 171.839844 282.242188 174.507812 284.410156 C 165.359375 287.792969 157.449219 295.792969 153.851562 306.636719 C 147.996094 324.289062 155.796875 342.761719 171.269531 347.894531 C 186.75 353.023438 204.046875 342.871094 209.90625 325.21875 C 213.917969 313.128906 211.523438 300.660156 204.648438 292.351562 C 208.421875 291.570312 212.128906 290.113281 215.644531 287.910156 C 226.835938 280.894531 232.542969 268.5 231.855469 256.132812 C 230.378906 258.421875 228.648438 260.585938 226.585938 262.542969 C 212.59375 275.832031 190.265625 275.265625 176.964844 261.277344 L 119.808594 201.15625 C 119.808594 201.15625 143.761719 245.117188 167.261719 276.820312 " fill-opacity="1" fill-rule="nonzero"/><path fill="#638b76" d="M 95.292969 211.796875 C 93.867188 215.078125 92.886719 218.46875 92.34375 221.867188 C 84.835938 215.636719 73.949219 212.789062 62.757812 215.097656 C 44.535156 218.855469 32.429688 234.839844 35.722656 250.804688 C 39.015625 266.769531 56.460938 276.664062 74.6875 272.910156 C 87.164062 270.339844 96.769531 262.03125 100.535156 251.925781 C 103.097656 254.800781 106.210938 257.28125 109.875 259.226562 C 121.550781 265.40625 135.144531 264.148438 145.511719 257.367188 C 142.796875 257.234375 140.050781 256.820312 137.328125 256.015625 C 118.816406 250.546875 108.140625 230.933594 113.613281 212.425781 L 137.125 132.886719 C 137.125 132.886719 111.015625 175.601562 95.292969 211.796875 " fill-opacity="1" fill-rule="nonzero"/><path fill="#2f5b44" d="M 115.648438 116.988281 C 112.085938 117.398438 108.664062 118.242188 105.449219 119.46875 C 107.09375 109.855469 104.113281 99.003906 96.519531 90.472656 C 84.152344 76.574219 64.25 74.089844 52.066406 84.921875 C 39.878906 95.753906 40.023438 115.804688 52.394531 129.703125 C 60.863281 139.21875 72.863281 143.382812 83.5 141.585938 C 82.289062 145.238281 81.695312 149.179688 81.847656 153.324219 C 82.324219 166.519531 90.214844 177.660156 101.277344 183.246094 C 100.027344 180.824219 99.019531 178.242188 98.351562 175.480469 C 93.835938 156.722656 105.492188 137.675781 124.261719 133.15625 L 204.929688 113.742188 C 204.929688 113.742188 154.867188 112.496094 115.648438 116.988281 " fill-opacity="1" fill-rule="nonzero"/><path fill="#638b76" d="M 207.96875 87.199219 C 205.835938 84.324219 203.390625 81.78125 200.71875 79.613281 C 209.871094 76.226562 217.777344 68.226562 221.378906 57.386719 C 227.234375 39.730469 219.433594 21.257812 203.957031 16.125 C 188.476562 10.996094 171.183594 21.148438 165.324219 38.804688 C 161.3125 50.890625 163.707031 63.363281 170.578125 71.667969 C 166.808594 72.449219 163.101562 73.90625 159.585938 76.109375 C 148.394531 83.125 142.6875 95.519531 143.375 107.890625 C 144.847656 105.601562 146.582031 103.4375 148.640625 101.476562 C 162.632812 88.1875 184.964844 88.753906 198.265625 102.742188 L 255.421875 162.863281 C 255.421875 162.863281 231.464844 118.90625 207.96875 87.199219 " fill-opacity="1" fill-rule="nonzero"/><g fill="#2f5b44" fill-opacity="1"><g transform="translate(171.62437, 161.434192)"><g><path d="M 29.09375 -4 C 29.5 -2.945312 29.972656 -2.179688 30.515625 -1.703125 C 31.054688 -1.234375 31.582031 -0.984375 32.09375 -0.953125 L 32.09375 0 C 30.1875 -0.09375 27.773438 -0.140625 24.859375 -0.140625 C 21.617188 -0.140625 19.203125 -0.09375 17.609375 0 L 17.609375 -0.953125 C 18.816406 -1.015625 19.675781 -1.164062 20.1875 -1.40625 C 20.695312 -1.644531 20.953125 -2.066406 20.953125 -2.671875 C 20.953125 -3.234375 20.757812 -3.992188 20.375 -4.953125 L 17.515625 -12.765625 L 7.140625 -12.765625 L 5.90625 -9.46875 C 5.019531 -7.1875 4.578125 -5.425781 4.578125 -4.1875 C 4.578125 -3.007812 4.929688 -2.191406 5.640625 -1.734375 C 6.359375 -1.273438 7.414062 -1.015625 8.8125 -0.953125 L 8.8125 0 C 6.644531 -0.09375 4.675781 -0.140625 2.90625 -0.140625 C 1.445312 -0.140625 0.238281 -0.09375 -0.71875 0 L -0.71875 -0.953125 C 0.84375 -1.234375 2.207031 -2.898438 3.375 -5.953125 L 14.234375 -33.796875 C 14.585938 -33.765625 15.144531 -33.75 15.90625 -33.75 C 16.664062 -33.75 17.203125 -33.765625 17.515625 -33.796875 Z M 17.1875 -13.71875 L 12.46875 -26.5625 L 7.515625 -13.71875 Z M 17.1875 -13.71875 "/></g></g></g><g fill="#2f5b44" fill-opacity="1"><g transform="translate(203.372637, 161.434192)"><g/></g></g><g fill="#2f5b44" fill-opacity="1"><g transform="translate(170.499374, 227.823573)"><g><path d="M 31.046875 -3.859375 C 31.515625 -3.128906 32.003906 -2.539062 32.515625 -2.09375 C 33.023438 -1.644531 33.675781 -1.265625 34.46875 -0.953125 L 34.46875 0 C 32.25 -0.09375 29.773438 -0.140625 27.046875 -0.140625 C 24.953125 -0.140625 22.9375 -0.09375 21 0 L 21 -0.953125 C 21.882812 -1.015625 22.523438 -1.109375 22.921875 -1.234375 C 23.316406 -1.359375 23.515625 -1.582031 23.515625 -1.90625 C 23.515625 -2.15625 23.34375 -2.550781 23 -3.09375 L 16.09375 -14.28125 C 15.457031 -15.300781 14.925781 -15.984375 14.5 -16.328125 C 14.070312 -16.679688 13.492188 -16.890625 12.765625 -16.953125 L 12.765625 -5.046875 C 12.765625 -3.835938 12.847656 -2.960938 13.015625 -2.421875 C 13.191406 -1.890625 13.519531 -1.523438 14 -1.328125 C 14.476562 -1.140625 15.253906 -1.015625 16.328125 -0.953125 L 16.328125 0 C 14.617188 -0.09375 12.222656 -0.140625 9.140625 -0.140625 C 5.742188 -0.140625 3.238281 -0.09375 1.625 0 L 1.625 -0.953125 C 2.664062 -1.015625 3.429688 -1.140625 3.921875 -1.328125 C 4.421875 -1.523438 4.753906 -1.890625 4.921875 -2.421875 C 5.097656 -2.960938 5.1875 -3.835938 5.1875 -5.046875 L 5.1875 -28.65625 C 5.1875 -29.863281 5.097656 -30.738281 4.921875 -31.28125 C 4.753906 -31.820312 4.421875 -32.1875 3.921875 -32.375 C 3.429688 -32.5625 2.664062 -32.6875 1.625 -32.75 L 1.625 -33.703125 C 3.238281 -33.609375 5.742188 -33.5625 9.140625 -33.5625 C 12.222656 -33.5625 14.617188 -33.609375 16.328125 -33.703125 L 16.328125 -32.75 C 15.253906 -32.6875 14.476562 -32.5625 14 -32.375 C 13.519531 -32.1875 13.191406 -31.820312 13.015625 -31.28125 C 12.847656 -30.738281 12.765625 -29.863281 12.765625 -28.65625 L 12.765625 -17.953125 C 14.023438 -18.015625 15.179688 -18.394531 16.234375 -19.09375 C 17.285156 -19.789062 18.476562 -20.898438 19.8125 -22.421875 L 22.609375 -25.796875 C 24.066406 -27.484375 24.796875 -28.960938 24.796875 -30.234375 C 24.796875 -30.992188 24.488281 -31.59375 23.875 -32.03125 C 23.257812 -32.476562 22.394531 -32.734375 21.28125 -32.796875 L 21.28125 -33.703125 C 23.59375 -33.609375 25.941406 -33.5625 28.328125 -33.5625 C 30.171875 -33.5625 31.660156 -33.609375 32.796875 -33.703125 L 32.796875 -32.796875 C 30.265625 -32.191406 27.96875 -30.671875 25.90625 -28.234375 L 19.953125 -21.140625 Z M 31.046875 -3.859375 "/></g></g></g></svg>