<svg xmlns="http://www.w3.org/2000/svg" xmlns:xlink="http://www.w3.org/1999/xlink" width="500" zoomAndPan="magnify" viewBox="0 0 375 374.999991" height="500" preserveAspectRatio="xMidYMid meet" version="1.0"><defs><g/><clipPath id="53e1e133e6"><path d="M 26.746094 17.632812 L 348.496094 17.632812 L 348.496094 339.382812 L 26.746094 339.382812 Z M 26.746094 17.632812 " clip-rule="nonzero"/></clipPath></defs><g clip-path="url(#53e1e133e6)"><path fill="#2f5b44" d="M 187.621094 339.382812 C 98.742188 339.382812 26.746094 266.890625 26.746094 178.507812 C 26.746094 90.125 98.742188 17.632812 187.621094 17.632812 C 276.496094 17.632812 348.496094 89.628906 348.496094 178.507812 C 348.496094 267.386719 276 339.382812 187.621094 339.382812 Z M 187.621094 27.5625 C 104.203125 27.5625 36.675781 95.089844 36.675781 178.507812 C 36.675781 261.925781 104.203125 329.453125 187.621094 329.453125 C 271.035156 329.453125 338.5625 261.925781 338.5625 178.507812 C 338.5625 95.089844 270.539062 27.5625 187.621094 27.5625 Z M 187.621094 27.5625 " fill-opacity="1" fill-rule="nonzero"/></g><path fill="#2f5b44" d="M 266.777344 148.160156 C 268.003906 145.34375 268.84375 142.4375 269.308594 139.523438 C 275.746094 144.863281 285.082031 147.304688 294.675781 145.328125 C 310.304688 142.109375 320.683594 128.398438 317.859375 114.710938 C 315.035156 101.019531 300.078125 92.535156 284.449219 95.753906 C 273.75 97.960938 265.511719 105.085938 262.285156 113.746094 C 260.089844 111.285156 257.417969 109.15625 254.273438 107.488281 C 244.269531 102.1875 232.609375 103.269531 223.71875 109.082031 C 226.046875 109.195312 228.402344 109.550781 230.734375 110.242188 C 246.613281 114.929688 255.761719 131.75 251.070312 147.621094 L 230.910156 215.820312 C 230.910156 215.820312 253.296875 179.191406 266.777344 148.160156 " fill-opacity="1" fill-rule="nonzero"/><path fill="#638b76" d="M 249.324219 229.449219 C 252.378906 229.105469 255.316406 228.378906 258.070312 227.324219 C 256.660156 235.566406 259.214844 244.871094 265.730469 252.1875 C 276.332031 264.105469 293.398438 266.234375 303.847656 256.945312 C 314.296875 247.660156 314.167969 230.46875 303.5625 218.550781 C 296.304688 210.390625 286.011719 206.820312 276.890625 208.359375 C 277.929688 205.226562 278.4375 201.847656 278.308594 198.292969 C 277.898438 186.984375 271.132812 177.429688 261.648438 172.640625 C 262.71875 174.714844 263.585938 176.929688 264.15625 179.296875 C 268.027344 195.382812 258.035156 211.710938 241.9375 215.585938 L 172.769531 232.238281 C 172.769531 232.238281 215.699219 233.300781 249.324219 229.449219 " fill-opacity="1" fill-rule="nonzero"/><path fill="#2f5b44" d="M 170.167969 254.992188 C 171.992188 257.457031 174.089844 259.640625 176.378906 261.5 C 168.535156 264.402344 161.753906 271.261719 158.667969 280.558594 C 153.644531 295.695312 160.332031 311.535156 173.605469 315.9375 C 186.878906 320.335938 201.707031 311.628906 206.730469 296.492188 C 210.171875 286.125 208.117188 275.433594 202.222656 268.3125 C 205.457031 267.640625 208.636719 266.390625 211.652344 264.503906 C 221.246094 258.488281 226.140625 247.859375 225.550781 237.253906 C 224.289062 239.214844 222.800781 241.074219 221.035156 242.75 C 209.039062 254.148438 189.890625 253.660156 178.488281 241.664062 L 129.476562 190.113281 C 129.476562 190.113281 150.015625 227.808594 170.167969 254.992188 " fill-opacity="1" fill-rule="nonzero"/><path fill="#638b76" d="M 108.457031 199.238281 C 107.230469 202.054688 106.390625 204.957031 105.925781 207.875 C 99.488281 202.53125 90.152344 200.089844 80.558594 202.070312 C 64.929688 205.292969 54.550781 219 57.375 232.6875 C 60.199219 246.378906 75.15625 254.859375 90.785156 251.640625 C 101.484375 249.4375 109.722656 242.3125 112.949219 233.648438 C 115.144531 236.113281 117.816406 238.242188 120.960938 239.90625 C 130.96875 245.207031 142.625 244.128906 151.515625 238.3125 C 149.1875 238.199219 146.832031 237.84375 144.5 237.15625 C 128.625 232.464844 119.472656 215.648438 124.164062 199.777344 L 144.324219 131.578125 C 144.324219 131.578125 121.9375 168.203125 108.457031 199.238281 " fill-opacity="1" fill-rule="nonzero"/><path fill="#2f5b44" d="M 125.910156 117.945312 C 122.855469 118.296875 119.917969 119.019531 117.164062 120.070312 C 118.574219 111.828125 116.019531 102.527344 109.503906 95.207031 C 98.902344 83.289062 81.835938 81.160156 71.386719 90.449219 C 60.9375 99.738281 61.066406 116.929688 71.671875 128.847656 C 78.929688 137.007812 89.222656 140.574219 98.34375 139.035156 C 97.304688 142.167969 96.796875 145.546875 96.925781 149.101562 C 97.335938 160.414062 104.101562 169.964844 113.585938 174.757812 C 112.515625 172.683594 111.648438 170.464844 111.078125 168.101562 C 107.207031 152.015625 117.199219 135.683594 133.296875 131.808594 L 202.464844 115.160156 C 202.464844 115.160156 159.535156 114.09375 125.910156 117.945312 " fill-opacity="1" fill-rule="nonzero"/><path fill="#638b76" d="M 205.070312 92.402344 C 203.242188 89.9375 201.144531 87.753906 198.855469 85.894531 C 206.699219 82.992188 213.480469 76.132812 216.566406 66.835938 C 221.589844 51.699219 214.902344 35.859375 201.628906 31.460938 C 188.355469 27.0625 173.527344 35.765625 168.503906 50.90625 C 165.0625 61.269531 167.117188 71.960938 173.011719 79.085938 C 169.777344 79.753906 166.597656 81.003906 163.582031 82.894531 C 153.988281 88.90625 149.09375 99.535156 149.683594 110.140625 C 150.945312 108.179688 152.433594 106.324219 154.199219 104.644531 C 166.195312 93.25 185.34375 93.734375 196.75 105.730469 L 245.757812 157.28125 C 245.757812 157.28125 225.21875 119.589844 205.070312 92.402344 " fill-opacity="1" fill-rule="nonzero"/><g fill="#2f5b44" fill-opacity="1"><g transform="translate(177.396349, 164.064995)"><g><path d="M 18.5625 -2.75 C 19.082031 -1.394531 19.832031 -0.695312 20.8125 -0.65625 L 20.8125 0 C 19.945312 -0.0625 18.78125 -0.09375 17.3125 -0.09375 C 15.4375 -0.09375 14.039062 -0.0625 13.125 0 L 13.125 -0.65625 C 13.957031 -0.695312 14.550781 -0.800781 14.90625 -0.96875 C 15.269531 -1.132812 15.453125 -1.429688 15.453125 -1.859375 C 15.453125 -2.234375 15.320312 -2.75 15.0625 -3.40625 L 13.0625 -8.765625 L 5.140625 -8.765625 L 3.796875 -5.296875 C 3.359375 -4.117188 3.140625 -3.226562 3.140625 -2.625 C 3.140625 -1.945312 3.375 -1.453125 3.84375 -1.140625 C 4.3125 -0.835938 5.023438 -0.675781 5.984375 -0.65625 L 5.984375 0 C 4.742188 -0.0625 3.488281 -0.09375 2.21875 -0.09375 C 1.238281 -0.09375 0.421875 -0.0625 -0.234375 0 L -0.234375 -0.65625 C 0.859375 -0.914062 1.722656 -1.863281 2.359375 -3.5 L 10.046875 -23.34375 L 10.578125 -23.34375 Z M 12.796875 -9.421875 L 9.140625 -19.21875 L 5.40625 -9.421875 Z M 12.796875 -9.421875 "/></g></g></g><g fill="#2f5b44" fill-opacity="1"><g transform="translate(197.99791, 164.064995)"><g/></g></g><g fill="#2f5b44" fill-opacity="1"><g transform="translate(176.986193, 209.814992)"><g><path d="M 18.53125 -2.65625 C 18.894531 -2.101562 19.300781 -1.671875 19.75 -1.359375 C 20.195312 -1.046875 20.75 -0.8125 21.40625 -0.65625 L 21.40625 0 C 20.363281 -0.0625 19.054688 -0.09375 17.484375 -0.09375 C 16.304688 -0.09375 15.179688 -0.0625 14.109375 0 L 14.109375 -0.65625 C 14.628906 -0.675781 15.007812 -0.738281 15.25 -0.84375 C 15.488281 -0.957031 15.609375 -1.125 15.609375 -1.34375 C 15.609375 -1.5625 15.5 -1.820312 15.28125 -2.125 L 10.5 -9.328125 C 9.875 -10.285156 9.34375 -10.910156 8.90625 -11.203125 C 8.46875 -11.503906 7.859375 -11.675781 7.078125 -11.71875 L 7.078125 -3.46875 C 7.078125 -2.632812 7.140625 -2.03125 7.265625 -1.65625 C 7.398438 -1.289062 7.644531 -1.039062 8 -0.90625 C 8.363281 -0.78125 8.9375 -0.695312 9.71875 -0.65625 L 9.71875 0 C 8.71875 -0.0625 7.332031 -0.09375 5.5625 -0.09375 C 3.6875 -0.09375 2.289062 -0.0625 1.375 0 L 1.375 -0.65625 C 2.15625 -0.695312 2.726562 -0.78125 3.09375 -0.90625 C 3.457031 -1.039062 3.703125 -1.289062 3.828125 -1.65625 C 3.960938 -2.03125 4.03125 -2.632812 4.03125 -3.46875 L 4.03125 -19.703125 C 4.03125 -20.535156 3.960938 -21.132812 3.828125 -21.5 C 3.703125 -21.875 3.457031 -22.125 3.09375 -22.25 C 2.726562 -22.382812 2.15625 -22.472656 1.375 -22.515625 L 1.375 -23.171875 C 2.289062 -23.109375 3.6875 -23.078125 5.5625 -23.078125 C 7.3125 -23.078125 8.695312 -23.109375 9.71875 -23.171875 L 9.71875 -22.515625 C 8.9375 -22.472656 8.363281 -22.382812 8 -22.25 C 7.644531 -22.125 7.398438 -21.875 7.265625 -21.5 C 7.140625 -21.132812 7.078125 -20.535156 7.078125 -19.703125 L 7.078125 -12.375 C 8.660156 -12.4375 9.898438 -13.046875 10.796875 -14.203125 L 13.9375 -18.203125 C 15.050781 -19.578125 15.609375 -20.625 15.609375 -21.34375 C 15.609375 -22.101562 14.929688 -22.492188 13.578125 -22.515625 L 13.578125 -23.171875 C 14.828125 -23.109375 16.082031 -23.078125 17.34375 -23.078125 C 18.550781 -23.078125 19.476562 -23.109375 20.125 -23.171875 L 20.125 -22.515625 C 19.40625 -22.410156 18.726562 -22.175781 18.09375 -21.8125 C 17.46875 -21.457031 16.859375 -20.894531 16.265625 -20.125 L 10.9375 -13.296875 Z M 18.53125 -2.65625 "/></g></g></g><g fill="#2f5b44" fill-opacity="1"><g transform="translate(14.526059, 254.457842)"><g><path d="M 26.59375 11.484375 C 26.28125 10.910156 26.003906 10.519531 25.765625 10.3125 C 25.535156 10.101562 25.257812 10.019531 24.9375 10.0625 C 24.613281 10.101562 24.148438 10.273438 23.546875 10.578125 L 11.65625 16.625 C 11.050781 16.9375 10.640625 17.207031 10.421875 17.4375 C 10.203125 17.675781 10.109375 17.953125 10.140625 18.265625 C 10.179688 18.578125 10.328125 19.035156 10.578125 19.640625 L 10.109375 19.875 C 9.773438 19.113281 9.28125 18.085938 8.625 16.796875 C 7.925781 15.421875 7.382812 14.410156 7 13.765625 L 7.46875 13.53125 C 7.800781 14.082031 8.082031 14.460938 8.3125 14.671875 C 8.550781 14.890625 8.828125 14.972656 9.140625 14.921875 C 9.453125 14.878906 9.910156 14.703125 10.515625 14.390625 L 23.375 7.859375 L 4.921875 9.984375 L 4.734375 9.59375 L 17.203125 -4.359375 L 4.5625 2.078125 C 3.945312 2.398438 3.507812 2.691406 3.25 2.953125 C 3 3.210938 2.882812 3.523438 2.90625 3.890625 C 2.925781 4.265625 3.078125 4.785156 3.359375 5.453125 L 2.890625 5.6875 C 2.640625 5.082031 2.242188 4.253906 1.703125 3.203125 C 1.222656 2.242188 0.828125 1.507812 0.515625 1 L 0.984375 0.765625 C 1.304688 1.316406 1.601562 1.691406 1.875 1.890625 C 2.15625 2.085938 2.472656 2.15625 2.828125 2.09375 C 3.179688 2.03125 3.664062 1.84375 4.28125 1.53125 L 15.921875 -4.390625 C 16.523438 -4.691406 16.941406 -4.960938 17.171875 -5.203125 C 17.398438 -5.441406 17.492188 -5.71875 17.453125 -6.03125 C 17.421875 -6.351562 17.269531 -6.804688 17 -7.390625 L 17.46875 -7.625 C 17.695312 -7.070312 18.050781 -6.316406 18.53125 -5.359375 C 18.957031 -4.523438 19.328125 -3.851562 19.640625 -3.34375 L 8.453125 8.96875 L 24.875 7.09375 L 25.453125 8.234375 C 26.109375 9.523438 26.644531 10.53125 27.0625 11.25 Z M 26.59375 11.484375 "/></g></g></g><g fill="#2f5b44" fill-opacity="1"><g transform="translate(25.943396, 276.327479)"><g><path d="M 10.3125 11.46875 C 9.613281 12.4375 9.46875 13.269531 9.875 13.96875 L 9.4375 14.265625 C 9.082031 13.640625 8.570312 12.820312 7.90625 11.8125 C 7.050781 10.519531 6.398438 9.578125 5.953125 8.984375 L 6.390625 8.6875 C 6.804688 9.238281 7.148438 9.597656 7.421875 9.765625 C 7.691406 9.941406 7.976562 9.929688 8.28125 9.734375 C 8.53125 9.566406 8.820312 9.242188 9.15625 8.765625 L 11.921875 4.984375 L 8.328125 -0.453125 L 5.359375 0.203125 C 4.347656 0.429688 3.632812 0.6875 3.21875 0.96875 C 2.75 1.28125 2.515625 1.660156 2.515625 2.109375 C 2.523438 2.566406 2.738281 3.132812 3.15625 3.8125 L 2.71875 4.109375 C 2.195312 3.222656 1.648438 2.347656 1.078125 1.484375 C 0.628906 0.804688 0.234375 0.257812 -0.109375 -0.15625 L 0.328125 -0.453125 C 1.015625 0.179688 2.054688 0.335938 3.453125 0.015625 L 20.53125 -3.703125 L 20.78125 -3.328125 Z M 12.265625 4.484375 L 17.296875 -2.453125 L 8.921875 -0.578125 Z M 12.265625 4.484375 "/></g></g></g><g fill="#2f5b44" fill-opacity="1"><g transform="translate(35.91501, 291.328268)"><g><path d="M 11.28125 10.4375 C 11.125 10.957031 11.0625 11.441406 11.09375 11.890625 C 11.125 12.347656 11.257812 12.828125 11.5 13.328125 L 11.09375 13.65625 C 10.582031 12.957031 9.921875 12.101562 9.109375 11.09375 C 8.503906 10.34375 7.90625 9.644531 7.3125 9 L 7.71875 8.671875 C 8.007812 8.984375 8.25 9.1875 8.4375 9.28125 C 8.625 9.382812 8.789062 9.375 8.9375 9.25 C 9.070312 9.144531 9.1875 8.941406 9.28125 8.640625 L 11.375 1.875 C 11.664062 0.976562 11.796875 0.316406 11.765625 -0.109375 C 11.734375 -0.546875 11.519531 -1.023438 11.125 -1.546875 L 5.859375 2.71875 C 5.335938 3.144531 4.992188 3.492188 4.828125 3.765625 C 4.660156 4.035156 4.628906 4.320312 4.734375 4.625 C 4.835938 4.925781 5.070312 5.34375 5.4375 5.875 L 5.03125 6.203125 C 4.550781 5.523438 3.859375 4.625 2.953125 3.5 C 1.972656 2.3125 1.222656 1.4375 0.703125 0.875 L 1.109375 0.546875 C 1.554688 1.015625 1.914062 1.328125 2.1875 1.484375 C 2.457031 1.648438 2.742188 1.679688 3.046875 1.578125 C 3.359375 1.472656 3.773438 1.207031 4.296875 0.78125 L 14.65625 -7.625 C 15.1875 -8.050781 15.535156 -8.40625 15.703125 -8.6875 C 15.867188 -8.96875 15.898438 -9.253906 15.796875 -9.546875 C 15.691406 -9.847656 15.445312 -10.257812 15.0625 -10.78125 L 15.484375 -11.125 C 15.921875 -10.5 16.628906 -9.59375 17.609375 -8.40625 C 18.503906 -7.289062 19.238281 -6.421875 19.8125 -5.796875 L 19.390625 -5.453125 C 18.960938 -5.929688 18.613281 -6.253906 18.34375 -6.421875 C 18.070312 -6.585938 17.78125 -6.613281 17.46875 -6.5 C 17.164062 -6.382812 16.75 -6.113281 16.21875 -5.6875 L 11.546875 -1.890625 C 12.410156 -0.910156 13.445312 -0.4375 14.65625 -0.46875 L 18.828125 -0.53125 C 20.273438 -0.53125 21.226562 -0.71875 21.6875 -1.09375 C 22.175781 -1.488281 22.078125 -2.125 21.390625 -3 L 21.8125 -3.34375 C 22.414062 -2.519531 23.046875 -1.703125 23.703125 -0.890625 C 24.328125 -0.117188 24.828125 0.453125 25.203125 0.828125 L 24.78125 1.171875 C 24.34375 0.773438 23.847656 0.46875 23.296875 0.25 C 22.742188 0.03125 22.0625 -0.0664062 21.25 -0.046875 L 14.140625 0.078125 Z M 11.28125 10.4375 "/></g></g></g><g fill="#2f5b44" fill-opacity="1"><g transform="translate(47.682053, 305.518493)"><g><path d="M 18.921875 -6.90625 C 18.453125 -7.351562 18.078125 -7.644531 17.796875 -7.78125 C 17.515625 -7.925781 17.226562 -7.929688 16.9375 -7.796875 C 16.644531 -7.660156 16.253906 -7.363281 15.765625 -6.90625 L 6.0625 2.265625 C 5.570312 2.734375 5.25 3.109375 5.09375 3.390625 C 4.945312 3.671875 4.9375 3.957031 5.0625 4.25 C 5.1875 4.539062 5.457031 4.9375 5.875 5.4375 L 5.484375 5.796875 C 4.960938 5.171875 4.203125 4.332031 3.203125 3.28125 C 2.148438 2.15625 1.335938 1.332031 0.765625 0.8125 L 1.15625 0.453125 C 1.632812 0.890625 2.015625 1.175781 2.296875 1.3125 C 2.578125 1.457031 2.863281 1.46875 3.15625 1.34375 C 3.457031 1.21875 3.851562 0.921875 4.34375 0.453125 L 14.046875 -8.71875 C 14.535156 -9.175781 14.851562 -9.550781 15 -9.84375 C 15.144531 -10.132812 15.15625 -10.425781 15.03125 -10.71875 C 14.90625 -11.007812 14.628906 -11.398438 14.203125 -11.890625 L 14.59375 -12.265625 C 15.09375 -11.671875 15.867188 -10.8125 16.921875 -9.6875 C 17.898438 -8.65625 18.695312 -7.851562 19.3125 -7.28125 Z M 18.921875 -6.90625 "/></g></g></g><g fill="#2f5b44" fill-opacity="1"><g transform="translate(54.428097, 312.891619)"><g><path d="M 25.765625 -1.65625 C 25.273438 -2.0625 24.863281 -2.304688 24.53125 -2.390625 C 24.207031 -2.472656 23.890625 -2.421875 23.578125 -2.234375 C 23.265625 -2.054688 22.882812 -1.710938 22.4375 -1.203125 L 11.671875 10.71875 L 11.203125 10.3125 L 14.5 -10.21875 L 5 0.3125 C 4.53125 0.820312 4.222656 1.242188 4.078125 1.578125 C 3.941406 1.921875 3.945312 2.257812 4.09375 2.59375 C 4.25 2.9375 4.582031 3.363281 5.09375 3.875 L 4.734375 4.265625 C 4.285156 3.796875 3.617188 3.160156 2.734375 2.359375 C 1.941406 1.640625 1.304688 1.101562 0.828125 0.75 L 1.1875 0.359375 C 1.6875 0.753906 2.097656 0.992188 2.421875 1.078125 C 2.753906 1.171875 3.078125 1.125 3.390625 0.9375 C 3.703125 0.757812 4.085938 0.414062 4.546875 -0.09375 L 13.296875 -9.796875 C 13.753906 -10.296875 14.046875 -10.695312 14.171875 -11 C 14.296875 -11.300781 14.28125 -11.59375 14.125 -11.875 C 13.976562 -12.15625 13.675781 -12.523438 13.21875 -12.984375 L 13.578125 -13.375 C 13.992188 -12.9375 14.597656 -12.359375 15.390625 -11.640625 C 15.992188 -11.085938 16.53125 -10.632812 17 -10.28125 L 14.25 6.9375 L 21.96875 -1.609375 C 22.4375 -2.128906 22.738281 -2.550781 22.875 -2.875 C 23.019531 -3.207031 23.015625 -3.546875 22.859375 -3.890625 C 22.710938 -4.242188 22.378906 -4.675781 21.859375 -5.1875 L 22.21875 -5.578125 C 22.664062 -5.097656 23.332031 -4.460938 24.21875 -3.671875 C 25.019531 -2.953125 25.65625 -2.410156 26.125 -2.046875 Z M 25.765625 -1.65625 "/></g></g></g><g fill="#2f5b44" fill-opacity="1"><g transform="translate(69.437971, 326.355382)"><g><path d="M 19.59375 -9.78125 C 20.445312 -9.15625 21.0625 -8.523438 21.4375 -7.890625 C 21.8125 -7.253906 22.160156 -6.46875 22.484375 -5.53125 C 22.554688 -5.238281 22.644531 -5.054688 22.75 -4.984375 C 23.03125 -4.785156 23.53125 -5.097656 24.25 -5.921875 L 24.75 -5.546875 C 24.019531 -4.660156 22.785156 -3.019531 21.046875 -0.625 L 20.53125 -0.984375 C 20.96875 -1.847656 21.296875 -2.582031 21.515625 -3.1875 C 21.742188 -3.789062 21.832031 -4.390625 21.78125 -4.984375 C 21.738281 -5.816406 21.492188 -6.628906 21.046875 -7.421875 C 20.597656 -8.222656 20.003906 -8.890625 19.265625 -9.421875 C 18.304688 -10.117188 17.238281 -10.414062 16.0625 -10.3125 C 14.882812 -10.21875 13.679688 -9.734375 12.453125 -8.859375 C 11.222656 -7.984375 10.050781 -6.78125 8.9375 -5.25 C 7.039062 -2.632812 6.066406 -0.421875 6.015625 1.390625 C 5.972656 3.210938 6.84375 4.769531 8.625 6.0625 C 9.5 6.695312 10.421875 7.015625 11.390625 7.015625 C 11.765625 7.046875 12.054688 7.003906 12.265625 6.890625 C 12.472656 6.785156 12.679688 6.585938 12.890625 6.296875 L 14.40625 4.203125 C 14.851562 3.585938 15.113281 3.097656 15.1875 2.734375 C 15.269531 2.378906 15.203125 2.046875 14.984375 1.734375 C 14.765625 1.421875 14.34375 1.015625 13.71875 0.515625 L 14.03125 0.09375 C 14.75 0.675781 15.753906 1.4375 17.046875 2.375 C 18.035156 3.082031 18.804688 3.609375 19.359375 3.953125 L 19.046875 4.375 C 18.691406 4.164062 18.40625 4.050781 18.1875 4.03125 C 17.976562 4.007812 17.753906 4.101562 17.515625 4.3125 C 17.285156 4.519531 16.972656 4.898438 16.578125 5.453125 L 13.453125 9.765625 L 13.015625 9.4375 C 13.203125 9.132812 13.34375 8.8125 13.4375 8.46875 C 13.539062 8.132812 13.507812 7.90625 13.34375 7.78125 C 13.25 7.71875 13.144531 7.675781 13.03125 7.65625 C 12.914062 7.632812 12.691406 7.625 12.359375 7.625 C 11.554688 7.644531 10.8125 7.554688 10.125 7.359375 C 9.445312 7.160156 8.769531 6.816406 8.09375 6.328125 C 6.601562 5.242188 5.546875 4.003906 4.921875 2.609375 C 4.304688 1.222656 4.132812 -0.25 4.40625 -1.8125 C 4.6875 -3.382812 5.410156 -4.976562 6.578125 -6.59375 C 7.773438 -8.238281 9.128906 -9.472656 10.640625 -10.296875 C 12.160156 -11.117188 13.691406 -11.484375 15.234375 -11.390625 C 16.785156 -11.296875 18.238281 -10.757812 19.59375 -9.78125 Z M 19.59375 -9.78125 "/></g></g></g><g fill="#2f5b44" fill-opacity="1"><g transform="translate(85.520199, 337.714387)"><g/></g></g><g fill="#2f5b44" fill-opacity="1"><g transform="translate(91.763937, 341.77299)"><g><path d="M 16.3125 7.125 C 15.65625 7.457031 15.082031 7.644531 14.59375 7.6875 C 14.113281 7.738281 13.570312 7.609375 12.96875 7.296875 C 12.3125 6.953125 11.875 6.476562 11.65625 5.875 C 11.445312 5.269531 11.492188 4.441406 11.796875 3.390625 L 12.515625 0.734375 C 12.753906 -0.191406 12.910156 -0.921875 12.984375 -1.453125 C 13.066406 -1.984375 13.007812 -2.472656 12.8125 -2.921875 C 12.625 -3.367188 12.226562 -3.75 11.625 -4.0625 L 9.375 -5.265625 L 6.46875 0.203125 C 6.15625 0.804688 5.972656 1.265625 5.921875 1.578125 C 5.867188 1.898438 5.945312 2.175781 6.15625 2.40625 C 6.375 2.632812 6.753906 2.921875 7.296875 3.265625 L 7.046875 3.734375 C 6.347656 3.304688 5.359375 2.753906 4.078125 2.078125 C 2.710938 1.359375 1.6875 0.84375 1 0.53125 L 1.25 0.0625 C 1.832031 0.320312 2.28125 0.472656 2.59375 0.515625 C 2.914062 0.554688 3.191406 0.46875 3.421875 0.25 C 3.660156 0.0390625 3.9375 -0.363281 4.25 -0.96875 L 10.5 -12.75 C 10.820312 -13.351562 11.003906 -13.816406 11.046875 -14.140625 C 11.097656 -14.460938 11.015625 -14.738281 10.796875 -14.96875 C 10.585938 -15.195312 10.207031 -15.476562 9.65625 -15.8125 L 9.90625 -16.28125 C 10.550781 -15.882812 11.503906 -15.351562 12.765625 -14.6875 L 15.34375 -13.359375 C 15.664062 -13.203125 16.015625 -13.023438 16.390625 -12.828125 C 18.234375 -11.859375 19.445312 -10.726562 20.03125 -9.4375 C 20.613281 -8.144531 20.578125 -6.882812 19.921875 -5.65625 C 19.597656 -5.039062 19.117188 -4.5 18.484375 -4.03125 C 17.859375 -3.5625 17.066406 -3.257812 16.109375 -3.125 C 15.160156 -2.988281 14.085938 -3.128906 12.890625 -3.546875 L 13.15625 -3.328125 C 14.101562 -2.597656 14.691406 -1.878906 14.921875 -1.171875 C 15.160156 -0.472656 15.128906 0.429688 14.828125 1.546875 L 14.140625 4.296875 C 13.910156 5.109375 13.804688 5.703125 13.828125 6.078125 C 13.859375 6.453125 14.019531 6.71875 14.3125 6.875 C 14.582031 7.019531 14.84375 7.066406 15.09375 7.015625 C 15.351562 6.972656 15.6875 6.859375 16.09375 6.671875 Z M 15.546875 -12.6875 C 15.054688 -12.945312 14.65625 -13.085938 14.34375 -13.109375 C 14.039062 -13.128906 13.769531 -13.019531 13.53125 -12.78125 C 13.289062 -12.550781 13.019531 -12.148438 12.71875 -11.578125 L 9.625 -5.75 L 11.203125 -4.90625 C 12.765625 -4.070312 14.023438 -3.84375 14.984375 -4.21875 C 15.953125 -4.601562 16.765625 -5.410156 17.421875 -6.640625 C 18.109375 -7.941406 18.316406 -9.085938 18.046875 -10.078125 C 17.773438 -11.078125 16.941406 -11.945312 15.546875 -12.6875 Z M 15.546875 -12.6875 "/></g></g></g><g fill="#2f5b44" fill-opacity="1"><g transform="translate(108.120006, 350.359853)"><g><path d="M 15.078125 2.515625 C 14.691406 3.453125 14.3125 4.535156 13.9375 5.765625 C 12.832031 5.242188 10.945312 4.429688 8.28125 3.328125 C 5.101562 2.015625 2.691406 1.050781 1.046875 0.4375 L 1.25 -0.046875 C 1.863281 0.148438 2.328125 0.253906 2.640625 0.265625 C 2.960938 0.273438 3.226562 0.164062 3.4375 -0.0625 C 3.65625 -0.300781 3.894531 -0.734375 4.15625 -1.359375 L 9.25 -13.6875 C 9.507812 -14.3125 9.644531 -14.785156 9.65625 -15.109375 C 9.675781 -15.441406 9.566406 -15.710938 9.328125 -15.921875 C 9.097656 -16.140625 8.691406 -16.382812 8.109375 -16.65625 L 8.3125 -17.15625 C 9.925781 -16.4375 12.320312 -15.421875 15.5 -14.109375 C 17.925781 -13.097656 19.660156 -12.40625 20.703125 -12.03125 C 20.140625 -10.988281 19.679688 -10.035156 19.328125 -9.171875 C 19.054688 -8.523438 18.867188 -8.003906 18.765625 -7.609375 L 18.203125 -7.84375 C 18.535156 -8.957031 18.71875 -9.8125 18.75 -10.40625 C 18.78125 -11.007812 18.628906 -11.519531 18.296875 -11.9375 C 17.960938 -12.351562 17.359375 -12.742188 16.484375 -13.109375 L 14.421875 -13.96875 C 13.828125 -14.207031 13.367188 -14.335938 13.046875 -14.359375 C 12.734375 -14.390625 12.472656 -14.28125 12.265625 -14.03125 C 12.054688 -13.789062 11.820312 -13.359375 11.5625 -12.734375 L 9.140625 -6.875 L 10.765625 -6.203125 C 11.359375 -5.953125 11.867188 -5.898438 12.296875 -6.046875 C 12.722656 -6.203125 13.0625 -6.441406 13.3125 -6.765625 C 13.570312 -7.085938 13.851562 -7.519531 14.15625 -8.0625 L 14.4375 -8.53125 L 15.015625 -8.28125 C 14.671875 -7.601562 14.320312 -6.832031 13.96875 -5.96875 L 13.46875 -4.78125 C 13.125 -3.9375 12.691406 -2.738281 12.171875 -1.1875 L 11.609375 -1.421875 C 11.628906 -1.546875 11.738281 -1.96875 11.9375 -2.6875 C 12.144531 -3.40625 12.128906 -4.015625 11.890625 -4.515625 C 11.660156 -5.023438 11.210938 -5.421875 10.546875 -5.703125 L 8.921875 -6.375 L 6.46875 -0.40625 C 6.207031 0.21875 6.066406 0.6875 6.046875 1 C 6.023438 1.320312 6.128906 1.585938 6.359375 1.796875 C 6.597656 2.003906 7.015625 2.226562 7.609375 2.46875 L 9.4375 3.21875 C 10.457031 3.644531 11.289062 3.832031 11.9375 3.78125 C 12.59375 3.738281 13.171875 3.46875 13.671875 2.96875 C 14.171875 2.46875 14.71875 1.648438 15.3125 0.515625 L 15.890625 0.75 C 15.660156 1.175781 15.390625 1.765625 15.078125 2.515625 Z M 15.078125 2.515625 "/></g></g></g><g fill="#2f5b44" fill-opacity="1"><g transform="translate(124.167345, 356.907214)"><g><path d="M 12.390625 -16.375 C 13.128906 -16.132812 13.691406 -15.863281 14.078125 -15.5625 C 14.460938 -15.269531 14.84375 -14.894531 15.21875 -14.4375 C 15.5 -14.082031 15.742188 -13.875 15.953125 -13.8125 C 16.117188 -13.757812 16.269531 -13.804688 16.40625 -13.953125 C 16.550781 -14.109375 16.710938 -14.375 16.890625 -14.75 L 17.46875 -14.5625 C 17.070312 -13.601562 16.476562 -11.875 15.6875 -9.375 L 15.09375 -9.5625 C 15.4375 -10.976562 15.410156 -12.269531 15.015625 -13.4375 C 14.628906 -14.601562 13.773438 -15.394531 12.453125 -15.8125 C 11.523438 -16.101562 10.679688 -16.0625 9.921875 -15.6875 C 9.171875 -15.320312 8.660156 -14.703125 8.390625 -13.828125 C 8.179688 -13.179688 8.148438 -12.566406 8.296875 -11.984375 C 8.441406 -11.410156 8.691406 -10.878906 9.046875 -10.390625 C 9.398438 -9.898438 9.925781 -9.257812 10.625 -8.46875 L 11.203125 -7.765625 C 12.078125 -6.765625 12.742188 -5.910156 13.203125 -5.203125 C 13.660156 -4.503906 13.976562 -3.769531 14.15625 -3 C 14.332031 -2.238281 14.285156 -1.421875 14.015625 -0.546875 C 13.523438 1.015625 12.632812 2.054688 11.34375 2.578125 C 10.050781 3.097656 8.617188 3.109375 7.046875 2.609375 C 6.234375 2.359375 5.585938 2.0625 5.109375 1.71875 C 4.640625 1.382812 4.210938 0.992188 3.828125 0.546875 C 3.523438 0.191406 3.269531 -0.015625 3.0625 -0.078125 C 2.90625 -0.128906 2.753906 -0.0820312 2.609375 0.0625 C 2.472656 0.21875 2.316406 0.484375 2.140625 0.859375 L 1.546875 0.671875 C 1.921875 -0.234375 2.601562 -2.265625 3.59375 -5.421875 L 4.1875 -5.234375 C 3.757812 -3.484375 3.742188 -1.953125 4.140625 -0.640625 C 4.535156 0.671875 5.492188 1.566406 7.015625 2.046875 C 7.941406 2.328125 8.820312 2.285156 9.65625 1.921875 C 10.488281 1.554688 11.082031 0.8125 11.4375 -0.3125 C 11.738281 -1.269531 11.671875 -2.179688 11.234375 -3.046875 C 10.804688 -3.921875 10.023438 -4.992188 8.890625 -6.265625 C 8.085938 -7.203125 7.445312 -8.003906 6.96875 -8.671875 C 6.5 -9.347656 6.175781 -10.085938 6 -10.890625 C 5.820312 -11.691406 5.875 -12.550781 6.15625 -13.46875 C 6.613281 -14.894531 7.421875 -15.84375 8.578125 -16.3125 C 9.742188 -16.78125 11.015625 -16.800781 12.390625 -16.375 Z M 12.390625 -16.375 "/></g></g></g><g fill="#2f5b44" fill-opacity="1"><g transform="translate(138.932256, 361.556016)"><g><path d="M 15.28125 -0.140625 C 15.050781 0.859375 14.863281 1.992188 14.71875 3.265625 C 13.539062 2.941406 11.539062 2.46875 8.71875 1.84375 C 5.363281 1.101562 2.820312 0.570312 1.09375 0.25 L 1.203125 -0.265625 C 1.847656 -0.171875 2.328125 -0.144531 2.640625 -0.1875 C 2.953125 -0.238281 3.191406 -0.394531 3.359375 -0.65625 C 3.535156 -0.925781 3.695312 -1.394531 3.84375 -2.0625 L 6.734375 -15.078125 C 6.878906 -15.742188 6.929688 -16.238281 6.890625 -16.5625 C 6.847656 -16.894531 6.691406 -17.144531 6.421875 -17.3125 C 6.160156 -17.476562 5.71875 -17.644531 5.09375 -17.8125 L 5.203125 -18.328125 C 6.910156 -17.898438 9.441406 -17.316406 12.796875 -16.578125 C 15.367188 -16.003906 17.207031 -15.625 18.3125 -15.4375 C 17.9375 -14.3125 17.644531 -13.289062 17.4375 -12.375 C 17.289062 -11.695312 17.203125 -11.148438 17.171875 -10.734375 L 16.578125 -10.875 C 16.703125 -12.039062 16.726562 -12.914062 16.65625 -13.5 C 16.582031 -14.09375 16.34375 -14.566406 15.9375 -14.921875 C 15.539062 -15.285156 14.882812 -15.570312 13.96875 -15.78125 L 11.78125 -16.25 C 11.144531 -16.394531 10.671875 -16.453125 10.359375 -16.421875 C 10.054688 -16.390625 9.816406 -16.234375 9.640625 -15.953125 C 9.472656 -15.679688 9.316406 -15.210938 9.171875 -14.546875 L 7.796875 -8.359375 L 9.53125 -7.96875 C 10.144531 -7.832031 10.648438 -7.875 11.046875 -8.09375 C 11.453125 -8.3125 11.75 -8.601562 11.9375 -8.96875 C 12.132812 -9.332031 12.335938 -9.8125 12.546875 -10.40625 L 12.734375 -10.90625 L 13.34375 -10.765625 C 13.132812 -10.035156 12.925781 -9.21875 12.71875 -8.3125 L 12.453125 -7.046875 C 12.253906 -6.160156 12.03125 -4.90625 11.78125 -3.28125 L 11.1875 -3.40625 C 11.1875 -3.539062 11.222656 -3.976562 11.296875 -4.71875 C 11.367188 -5.46875 11.25 -6.066406 10.9375 -6.515625 C 10.625 -6.972656 10.117188 -7.28125 9.421875 -7.4375 L 7.6875 -7.828125 L 6.28125 -1.53125 C 6.132812 -0.863281 6.082031 -0.367188 6.125 -0.046875 C 6.164062 0.265625 6.316406 0.5 6.578125 0.65625 C 6.847656 0.820312 7.300781 0.976562 7.9375 1.125 L 9.859375 1.546875 C 10.929688 1.785156 11.785156 1.820312 12.421875 1.65625 C 13.054688 1.5 13.578125 1.128906 13.984375 0.546875 C 14.390625 -0.0351562 14.785156 -0.929688 15.171875 -2.140625 L 15.78125 -2.015625 C 15.613281 -1.554688 15.445312 -0.929688 15.28125 -0.140625 Z M 15.28125 -0.140625 "/></g></g></g><g fill="#2f5b44" fill-opacity="1"><g transform="translate(155.938078, 365.286976)"><g><path d="M 15.40625 -0.359375 C 15.695312 0.796875 16.242188 1.445312 17.046875 1.59375 L 16.984375 2.125 C 16.273438 1.976562 15.320312 1.832031 14.125 1.6875 C 12.59375 1.488281 11.453125 1.367188 10.703125 1.328125 L 10.765625 0.796875 C 11.453125 0.847656 11.945312 0.820312 12.25 0.71875 C 12.5625 0.613281 12.738281 0.390625 12.78125 0.046875 C 12.820312 -0.253906 12.769531 -0.6875 12.625 -1.25 L 11.546875 -5.8125 L 5.078125 -6.625 L 3.640625 -3.9375 C 3.160156 -3.03125 2.890625 -2.328125 2.828125 -1.828125 C 2.753906 -1.265625 2.890625 -0.832031 3.234375 -0.53125 C 3.585938 -0.238281 4.160156 -0.0351562 4.953125 0.078125 L 4.890625 0.609375 C 3.878906 0.429688 2.859375 0.273438 1.828125 0.140625 C 1.035156 0.046875 0.363281 -0.00390625 -0.1875 -0.015625 L -0.125 -0.546875 C 0.789062 -0.660156 1.59375 -1.351562 2.28125 -2.625 L 10.5625 -18.015625 L 11 -17.953125 Z M 11.390625 -6.390625 L 9.390625 -14.734375 L 5.359375 -7.140625 Z M 11.390625 -6.390625 "/></g></g></g><g fill="#2f5b44" fill-opacity="1"><g transform="translate(173.812682, 367.47592)"><g><path d="M 17.78125 -0.859375 C 17.351562 -0.265625 16.925781 0.160156 16.5 0.421875 C 16.082031 0.679688 15.535156 0.800781 14.859375 0.78125 C 14.117188 0.757812 13.519531 0.523438 13.0625 0.078125 C 12.601562 -0.367188 12.269531 -1.128906 12.0625 -2.203125 L 11.546875 -4.90625 C 11.359375 -5.84375 11.175781 -6.566406 11 -7.078125 C 10.820312 -7.585938 10.550781 -8 10.1875 -8.3125 C 9.820312 -8.625 9.296875 -8.785156 8.609375 -8.796875 L 6.0625 -8.875 L 5.890625 -2.6875 C 5.867188 -2.007812 5.90625 -1.515625 6 -1.203125 C 6.101562 -0.898438 6.300781 -0.691406 6.59375 -0.578125 C 6.882812 -0.460938 7.351562 -0.375 8 -0.3125 L 7.984375 0.21875 C 7.160156 0.144531 6.023438 0.0859375 4.578125 0.046875 C 3.035156 0.00390625 1.882812 0 1.125 0.03125 L 1.140625 -0.5 C 1.785156 -0.519531 2.257812 -0.582031 2.5625 -0.6875 C 2.863281 -0.789062 3.070312 -0.988281 3.1875 -1.28125 C 3.300781 -1.582031 3.367188 -2.070312 3.390625 -2.75 L 3.75 -16.09375 C 3.769531 -16.769531 3.726562 -17.265625 3.625 -17.578125 C 3.53125 -17.890625 3.332031 -18.101562 3.03125 -18.21875 C 2.738281 -18.332031 2.269531 -18.414062 1.625 -18.46875 L 1.640625 -19 C 2.398438 -18.925781 3.492188 -18.867188 4.921875 -18.828125 L 7.828125 -18.78125 C 8.171875 -18.789062 8.554688 -18.789062 8.984375 -18.78125 C 11.066406 -18.726562 12.65625 -18.25 13.75 -17.34375 C 14.851562 -16.445312 15.382812 -15.304688 15.34375 -13.921875 C 15.320312 -13.222656 15.132812 -12.523438 14.78125 -11.828125 C 14.425781 -11.128906 13.847656 -10.507812 13.046875 -9.96875 C 12.253906 -9.425781 11.234375 -9.070312 9.984375 -8.90625 L 10.3125 -8.828125 C 11.476562 -8.597656 12.320312 -8.21875 12.84375 -7.6875 C 13.375 -7.164062 13.753906 -6.332031 13.984375 -5.1875 L 14.578125 -2.4375 C 14.734375 -1.601562 14.90625 -1.019531 15.09375 -0.6875 C 15.28125 -0.363281 15.539062 -0.195312 15.875 -0.1875 C 16.1875 -0.1875 16.445312 -0.265625 16.65625 -0.421875 C 16.863281 -0.578125 17.109375 -0.828125 17.390625 -1.171875 Z M 8.296875 -18.28125 C 7.742188 -18.300781 7.328125 -18.25 7.046875 -18.125 C 6.765625 -18.007812 6.566406 -17.789062 6.453125 -17.46875 C 6.335938 -17.15625 6.269531 -16.675781 6.25 -16.03125 L 6.078125 -9.421875 L 7.875 -9.375 C 9.644531 -9.320312 10.875 -9.679688 11.5625 -10.453125 C 12.25 -11.222656 12.609375 -12.304688 12.640625 -13.703125 C 12.679688 -15.171875 12.363281 -16.289062 11.6875 -17.0625 C 11.007812 -17.832031 9.878906 -18.238281 8.296875 -18.28125 Z M 8.296875 -18.28125 "/></g></g></g><g fill="#2f5b44" fill-opacity="1"><g transform="translate(192.349052, 367.951282)"><g><path d="M 8.5 -20.109375 C 9.582031 -20.191406 10.507812 -20.109375 11.28125 -19.859375 C 12.050781 -19.609375 12.8125 -19.234375 13.5625 -18.734375 C 13.78125 -18.578125 13.960938 -18.503906 14.109375 -18.515625 C 14.460938 -18.546875 14.65625 -19.097656 14.6875 -20.171875 L 15.296875 -20.21875 C 15.304688 -19.0625 15.421875 -17.007812 15.640625 -14.0625 L 15.03125 -14.015625 C 14.75 -15.140625 14.507812 -15.953125 14.3125 -16.453125 C 14.113281 -16.960938 13.804688 -17.4375 13.390625 -17.875 C 12.804688 -18.53125 12.082031 -19.003906 11.21875 -19.296875 C 10.363281 -19.585938 9.453125 -19.695312 8.484375 -19.625 C 7.328125 -19.539062 6.34375 -19.078125 5.53125 -18.234375 C 4.71875 -17.398438 4.125 -16.253906 3.75 -14.796875 C 3.375 -13.335938 3.253906 -11.648438 3.390625 -9.734375 C 3.535156 -7.785156 3.921875 -6.132812 4.546875 -4.78125 C 5.171875 -3.4375 5.96875 -2.429688 6.9375 -1.765625 C 7.914062 -1.109375 8.984375 -0.820312 10.140625 -0.90625 C 11.035156 -0.976562 11.890625 -1.21875 12.703125 -1.625 C 13.523438 -2.03125 14.15625 -2.585938 14.59375 -3.296875 C 14.90625 -3.816406 15.117188 -4.367188 15.234375 -4.953125 C 15.359375 -5.535156 15.445312 -6.425781 15.5 -7.625 L 16.109375 -7.671875 C 16.335938 -4.597656 16.535156 -2.453125 16.703125 -1.234375 L 16.09375 -1.1875 C 15.988281 -1.757812 15.878906 -2.164062 15.765625 -2.40625 C 15.648438 -2.644531 15.5 -2.753906 15.3125 -2.734375 C 15.175781 -2.722656 14.992188 -2.640625 14.765625 -2.484375 C 14.023438 -1.847656 13.296875 -1.351562 12.578125 -1 C 11.867188 -0.65625 10.992188 -0.441406 9.953125 -0.359375 C 8.253906 -0.234375 6.734375 -0.507812 5.390625 -1.1875 C 4.054688 -1.863281 2.984375 -2.898438 2.171875 -4.296875 C 1.359375 -5.703125 0.878906 -7.414062 0.734375 -9.4375 C 0.585938 -11.40625 0.816406 -13.175781 1.421875 -14.75 C 2.035156 -16.320312 2.957031 -17.578125 4.1875 -18.515625 C 5.425781 -19.460938 6.863281 -19.992188 8.5 -20.109375 Z M 8.5 -20.109375 "/></g></g></g><g fill="#2f5b44" fill-opacity="1"><g transform="translate(212.006886, 366.47826)"><g><path d="M 15.53125 -21.703125 C 14.894531 -21.546875 14.441406 -21.382812 14.171875 -21.21875 C 13.898438 -21.0625 13.738281 -20.820312 13.6875 -20.5 C 13.644531 -20.175781 13.6875 -19.6875 13.8125 -19.03125 L 16.25 -5.90625 C 16.375 -5.238281 16.515625 -4.765625 16.671875 -4.484375 C 16.828125 -4.210938 17.0625 -4.046875 17.375 -3.984375 C 17.6875 -3.929688 18.164062 -3.945312 18.8125 -4.03125 L 18.90625 -3.515625 C 18.15625 -3.421875 17.019531 -3.234375 15.5 -2.953125 C 14.070312 -2.691406 12.960938 -2.460938 12.171875 -2.265625 L 12.078125 -2.78125 C 12.703125 -2.9375 13.144531 -3.09375 13.40625 -3.25 C 13.675781 -3.414062 13.835938 -3.65625 13.890625 -3.96875 C 13.941406 -4.289062 13.90625 -4.785156 13.78125 -5.453125 L 12.59375 -11.796875 L 4.015625 -10.203125 L 5.203125 -3.859375 C 5.328125 -3.191406 5.460938 -2.71875 5.609375 -2.4375 C 5.765625 -2.164062 6 -2 6.3125 -1.9375 C 6.625 -1.882812 7.101562 -1.894531 7.75 -1.96875 L 7.84375 -1.453125 C 7.03125 -1.359375 5.910156 -1.175781 4.484375 -0.90625 C 2.972656 -0.625 1.847656 -0.390625 1.109375 -0.203125 L 1.015625 -0.71875 C 1.640625 -0.875 2.085938 -1.035156 2.359375 -1.203125 C 2.628906 -1.367188 2.789062 -1.609375 2.84375 -1.921875 C 2.894531 -2.242188 2.859375 -2.738281 2.734375 -3.40625 L 0.296875 -16.53125 C 0.171875 -17.1875 0.03125 -17.65625 -0.125 -17.9375 C -0.289062 -18.21875 -0.53125 -18.382812 -0.84375 -18.4375 C -1.15625 -18.488281 -1.628906 -18.472656 -2.265625 -18.390625 L -2.359375 -18.921875 C -1.597656 -19.003906 -0.460938 -19.1875 1.046875 -19.46875 C 2.453125 -19.726562 3.5625 -19.960938 4.375 -20.171875 L 4.46875 -19.640625 C 3.832031 -19.492188 3.378906 -19.335938 3.109375 -19.171875 C 2.835938 -19.015625 2.679688 -18.773438 2.640625 -18.453125 C 2.597656 -18.128906 2.640625 -17.640625 2.765625 -16.984375 L 3.921875 -10.734375 L 12.5 -12.328125 L 11.34375 -18.578125 C 11.21875 -19.234375 11.070312 -19.703125 10.90625 -19.984375 C 10.75 -20.265625 10.515625 -20.429688 10.203125 -20.484375 C 9.898438 -20.546875 9.429688 -20.535156 8.796875 -20.453125 L 8.703125 -20.984375 C 9.515625 -21.078125 10.632812 -21.253906 12.0625 -21.515625 C 13.582031 -21.796875 14.707031 -22.035156 15.4375 -22.234375 Z M 15.53125 -21.703125 "/></g></g></g><g fill="#2f5b44" fill-opacity="1"><g transform="translate(232.780975, 362.324599)"><g/></g></g><g fill="#2f5b44" fill-opacity="1"><g transform="translate(239.999085, 360.556716)"><g><path d="M 13.71875 -7.03125 C 14.476562 -6.113281 15.25 -5.765625 16.03125 -5.984375 L 16.203125 -5.484375 C 15.503906 -5.304688 14.582031 -5.023438 13.4375 -4.640625 C 11.976562 -4.140625 10.90625 -3.742188 10.21875 -3.453125 L 10.046875 -3.953125 C 10.679688 -4.210938 11.113281 -4.453125 11.34375 -4.671875 C 11.570312 -4.898438 11.632812 -5.179688 11.53125 -5.515625 C 11.425781 -5.796875 11.191406 -6.164062 10.828125 -6.625 L 7.859375 -10.265625 L 1.6875 -8.1875 L 1.5625 -5.125 C 1.519531 -4.09375 1.582031 -3.34375 1.75 -2.875 C 1.925781 -2.34375 2.234375 -2.019531 2.671875 -1.90625 C 3.117188 -1.789062 3.722656 -1.847656 4.484375 -2.078125 L 4.65625 -1.578125 C 3.675781 -1.304688 2.691406 -1.003906 1.703125 -0.671875 C 0.941406 -0.410156 0.316406 -0.164062 -0.171875 0.0625 L -0.34375 -0.4375 C 0.425781 -0.9375 0.84375 -1.90625 0.90625 -3.34375 L 1.671875 -20.796875 L 2.09375 -20.9375 Z M 7.46875 -10.71875 L 2.046875 -17.359375 L 1.71875 -8.765625 Z M 7.46875 -10.71875 "/></g></g></g><g fill="#2f5b44" fill-opacity="1"><g transform="translate(257.084663, 354.75547)"><g><path d="M 1.046875 -21.8125 C 2.035156 -22.257812 2.929688 -22.492188 3.734375 -22.515625 C 4.546875 -22.546875 5.394531 -22.460938 6.28125 -22.265625 C 6.53125 -22.191406 6.722656 -22.1875 6.859375 -22.25 C 7.179688 -22.394531 7.171875 -22.976562 6.828125 -24 L 7.375 -24.25 C 7.789062 -23.164062 8.613281 -21.273438 9.84375 -18.578125 L 9.28125 -18.328125 C 8.625 -19.296875 8.113281 -19.984375 7.75 -20.390625 C 7.394531 -20.804688 6.953125 -21.144531 6.421875 -21.40625 C 5.640625 -21.8125 4.796875 -22.003906 3.890625 -21.984375 C 2.984375 -21.960938 2.085938 -21.753906 1.203125 -21.359375 C 0.140625 -20.867188 -0.625 -20.09375 -1.09375 -19.03125 C -1.570312 -17.96875 -1.738281 -16.6875 -1.59375 -15.1875 C -1.445312 -13.6875 -0.976562 -12.066406 -0.1875 -10.328125 C 0.625 -8.546875 1.554688 -7.125 2.609375 -6.0625 C 3.671875 -5.007812 4.769531 -4.335938 5.90625 -4.046875 C 7.050781 -3.765625 8.15625 -3.867188 9.21875 -4.359375 C 10.03125 -4.722656 10.75 -5.234375 11.375 -5.890625 C 12 -6.554688 12.394531 -7.300781 12.5625 -8.125 C 12.675781 -8.726562 12.6875 -9.320312 12.59375 -9.90625 C 12.5 -10.488281 12.273438 -11.351562 11.921875 -12.5 L 12.484375 -12.75 C 13.765625 -9.945312 14.6875 -8.003906 15.25 -6.921875 L 14.703125 -6.671875 C 14.398438 -7.171875 14.15625 -7.507812 13.96875 -7.6875 C 13.789062 -7.875 13.613281 -7.929688 13.4375 -7.859375 C 13.3125 -7.796875 13.175781 -7.648438 13.03125 -7.421875 C 12.519531 -6.566406 11.992188 -5.851562 11.453125 -5.28125 C 10.910156 -4.707031 10.164062 -4.203125 9.21875 -3.765625 C 7.664062 -3.066406 6.144531 -2.800781 4.65625 -2.96875 C 3.175781 -3.144531 1.8125 -3.75 0.5625 -4.78125 C -0.6875 -5.820312 -1.734375 -7.265625 -2.578125 -9.109375 C -3.390625 -10.898438 -3.78125 -12.640625 -3.75 -14.328125 C -3.71875 -16.023438 -3.285156 -17.523438 -2.453125 -18.828125 C -1.617188 -20.128906 -0.453125 -21.125 1.046875 -21.8125 Z M 1.046875 -21.8125 "/></g></g></g><g fill="#2f5b44" fill-opacity="1"><g transform="translate(274.952029, 346.574775)"><g><path d="M -1.234375 -21.796875 C -0.296875 -22.335938 0.570312 -22.664062 1.375 -22.78125 C 2.175781 -22.894531 3.03125 -22.894531 3.9375 -22.78125 C 4.1875 -22.75 4.375 -22.769531 4.5 -22.84375 C 4.800781 -23.019531 4.734375 -23.601562 4.296875 -24.59375 L 4.828125 -24.890625 C 5.347656 -23.859375 6.359375 -22.066406 7.859375 -19.515625 L 7.328125 -19.203125 C 6.566406 -20.109375 5.984375 -20.738281 5.578125 -21.09375 C 5.179688 -21.457031 4.707031 -21.742188 4.15625 -21.953125 C 3.332031 -22.273438 2.472656 -22.375 1.578125 -22.25 C 0.679688 -22.132812 -0.179688 -21.832031 -1.015625 -21.34375 C -2.023438 -20.757812 -2.707031 -19.914062 -3.0625 -18.8125 C -3.425781 -17.707031 -3.457031 -16.414062 -3.15625 -14.9375 C -2.851562 -13.457031 -2.21875 -11.894531 -1.25 -10.25 C -0.257812 -8.5625 0.8125 -7.242188 1.96875 -6.296875 C 3.125 -5.359375 4.285156 -4.804688 5.453125 -4.640625 C 6.617188 -4.484375 7.703125 -4.703125 8.703125 -5.296875 C 9.484375 -5.742188 10.148438 -6.328125 10.703125 -7.046875 C 11.253906 -7.773438 11.570312 -8.554688 11.65625 -9.390625 C 11.695312 -9.992188 11.644531 -10.582031 11.5 -11.15625 C 11.351562 -11.738281 11.039062 -12.578125 10.5625 -13.671875 L 11.09375 -13.984375 C 12.65625 -11.328125 13.773438 -9.488281 14.453125 -8.46875 L 13.921875 -8.171875 C 13.578125 -8.628906 13.300781 -8.941406 13.09375 -9.109375 C 12.882812 -9.273438 12.703125 -9.3125 12.546875 -9.21875 C 12.429688 -9.144531 12.304688 -8.984375 12.171875 -8.734375 C 11.765625 -7.828125 11.320312 -7.0625 10.84375 -6.4375 C 10.363281 -5.8125 9.671875 -5.234375 8.765625 -4.703125 C 7.296875 -3.835938 5.8125 -3.414062 4.3125 -3.4375 C 2.820312 -3.457031 1.398438 -3.914062 0.046875 -4.8125 C -1.296875 -5.707031 -2.484375 -7.035156 -3.515625 -8.796875 C -4.515625 -10.492188 -5.082031 -12.179688 -5.21875 -13.859375 C -5.363281 -15.546875 -5.085938 -17.082031 -4.390625 -18.46875 C -3.703125 -19.851562 -2.648438 -20.960938 -1.234375 -21.796875 Z M -1.234375 -21.796875 "/></g></g></g><g fill="#2f5b44" fill-opacity="1"><g transform="translate(291.787728, 336.575894)"><g><path d="M 10.03125 -11.546875 C 10.625 -10.722656 11.34375 -9.832031 12.1875 -8.875 C 11.175781 -8.195312 9.503906 -7.007812 7.171875 -5.3125 C 4.390625 -3.289062 2.300781 -1.738281 0.90625 -0.65625 L 0.59375 -1.078125 C 1.09375 -1.503906 1.425781 -1.847656 1.59375 -2.109375 C 1.769531 -2.367188 1.8125 -2.65625 1.71875 -2.96875 C 1.632812 -3.28125 1.394531 -3.707031 1 -4.25 L -6.84375 -15.046875 C -7.25 -15.585938 -7.582031 -15.945312 -7.84375 -16.125 C -8.113281 -16.3125 -8.398438 -16.363281 -8.703125 -16.28125 C -9.015625 -16.195312 -9.4375 -15.972656 -9.96875 -15.609375 L -10.28125 -16.046875 C -8.832031 -17.046875 -6.71875 -18.554688 -3.9375 -20.578125 C -1.8125 -22.128906 -0.304688 -23.253906 0.578125 -23.953125 C 1.160156 -22.929688 1.726562 -22.039062 2.28125 -21.28125 C 2.6875 -20.71875 3.03125 -20.285156 3.3125 -19.984375 L 2.828125 -19.625 C 2.035156 -20.5 1.394531 -21.101562 0.90625 -21.4375 C 0.414062 -21.769531 -0.09375 -21.898438 -0.625 -21.828125 C -1.164062 -21.765625 -1.816406 -21.457031 -2.578125 -20.90625 L -4.390625 -19.59375 C -4.910156 -19.207031 -5.257812 -18.890625 -5.4375 -18.640625 C -5.613281 -18.390625 -5.65625 -18.109375 -5.5625 -17.796875 C -5.46875 -17.484375 -5.21875 -17.054688 -4.8125 -16.515625 L -1.09375 -11.375 L 0.328125 -12.40625 C 0.847656 -12.78125 1.15625 -13.1875 1.25 -13.625 C 1.351562 -14.070312 1.332031 -14.488281 1.1875 -14.875 C 1.050781 -15.269531 0.832031 -15.738281 0.53125 -16.28125 L 0.28125 -16.75 L 0.78125 -17.125 C 1.175781 -16.488281 1.648438 -15.789062 2.203125 -15.03125 L 2.953125 -14 C 3.492188 -13.257812 4.289062 -12.257812 5.34375 -11 L 4.84375 -10.640625 C 4.75 -10.722656 4.445312 -11.039062 3.9375 -11.59375 C 3.425781 -12.144531 2.894531 -12.453125 2.34375 -12.515625 C 1.800781 -12.578125 1.238281 -12.394531 0.65625 -11.96875 L -0.765625 -10.9375 L 3.03125 -5.71875 C 3.425781 -5.175781 3.753906 -4.8125 4.015625 -4.625 C 4.273438 -4.445312 4.550781 -4.398438 4.84375 -4.484375 C 5.144531 -4.578125 5.554688 -4.816406 6.078125 -5.203125 L 7.671875 -6.359375 C 8.566406 -7.003906 9.164062 -7.617188 9.46875 -8.203125 C 9.769531 -8.785156 9.832031 -9.421875 9.65625 -10.109375 C 9.488281 -10.804688 9.085938 -11.703125 8.453125 -12.796875 L 8.953125 -13.15625 C 9.191406 -12.738281 9.550781 -12.203125 10.03125 -11.546875 Z M 10.03125 -11.546875 "/></g></g></g><g fill="#2f5b44" fill-opacity="1"><g transform="translate(305.755662, 326.315626)"><g><path d="M -7.484375 -19.09375 C -6.898438 -19.613281 -6.378906 -19.957031 -5.921875 -20.125 C -5.460938 -20.300781 -4.945312 -20.429688 -4.375 -20.515625 C -3.914062 -20.585938 -3.601562 -20.691406 -3.4375 -20.828125 C -3.3125 -20.941406 -3.273438 -21.097656 -3.328125 -21.296875 C -3.378906 -21.492188 -3.519531 -21.757812 -3.75 -22.09375 L -3.296875 -22.5 C -2.679688 -21.664062 -1.515625 -20.257812 0.203125 -18.28125 L -0.265625 -17.859375 C -1.304688 -18.898438 -2.425781 -19.554688 -3.625 -19.828125 C -4.820312 -20.109375 -5.941406 -19.789062 -6.984375 -18.875 C -7.710938 -18.238281 -8.113281 -17.5 -8.1875 -16.65625 C -8.257812 -15.820312 -8 -15.054688 -7.40625 -14.359375 C -6.957031 -13.847656 -6.445312 -13.503906 -5.875 -13.328125 C -5.3125 -13.160156 -4.726562 -13.097656 -4.125 -13.140625 C -3.53125 -13.191406 -2.710938 -13.300781 -1.671875 -13.46875 L -0.765625 -13.625 C 0.546875 -13.84375 1.617188 -13.960938 2.453125 -13.984375 C 3.296875 -14.015625 4.085938 -13.90625 4.828125 -13.65625 C 5.578125 -13.40625 6.253906 -12.9375 6.859375 -12.25 C 7.929688 -11.007812 8.347656 -9.703125 8.109375 -8.328125 C 7.878906 -6.953125 7.144531 -5.722656 5.90625 -4.640625 C 5.257812 -4.078125 4.671875 -3.679688 4.140625 -3.453125 C 3.609375 -3.234375 3.050781 -3.070312 2.46875 -2.96875 C 2.007812 -2.90625 1.695312 -2.800781 1.53125 -2.65625 C 1.40625 -2.550781 1.367188 -2.394531 1.421875 -2.1875 C 1.484375 -1.988281 1.632812 -1.71875 1.875 -1.375 L 1.390625 -0.96875 C 0.804688 -1.757812 -0.570312 -3.40625 -2.75 -5.90625 L -2.28125 -6.328125 C -1 -5.035156 0.300781 -4.21875 1.625 -3.875 C 2.945312 -3.53125 4.207031 -3.878906 5.40625 -4.921875 C 6.132812 -5.554688 6.554688 -6.320312 6.671875 -7.21875 C 6.796875 -8.125 6.472656 -9.019531 5.703125 -9.90625 C 5.035156 -10.664062 4.222656 -11.09375 3.265625 -11.1875 C 2.304688 -11.28125 0.984375 -11.175781 -0.703125 -10.875 C -1.910156 -10.664062 -2.925781 -10.535156 -3.75 -10.484375 C -4.570312 -10.429688 -5.375 -10.535156 -6.15625 -10.796875 C -6.9375 -11.066406 -7.640625 -11.5625 -8.265625 -12.28125 C -9.242188 -13.414062 -9.628906 -14.597656 -9.421875 -15.828125 C -9.210938 -17.066406 -8.566406 -18.15625 -7.484375 -19.09375 Z M -7.484375 -19.09375 "/></g></g></g><g fill="#2f5b44" fill-opacity="1"><g transform="translate(317.364797, 316.167438)"><g><path d="M -9.03125 -18.4375 C -8.488281 -18.988281 -7.992188 -19.367188 -7.546875 -19.578125 C -7.109375 -19.785156 -6.597656 -19.957031 -6.015625 -20.09375 C -5.578125 -20.195312 -5.28125 -20.328125 -5.125 -20.484375 C -5.007812 -20.597656 -4.988281 -20.75 -5.0625 -20.9375 C -5.132812 -21.132812 -5.296875 -21.394531 -5.546875 -21.71875 L -5.125 -22.15625 C -4.445312 -21.375 -3.171875 -20.066406 -1.296875 -18.234375 L -1.734375 -17.78125 C -2.847656 -18.726562 -4.015625 -19.289062 -5.234375 -19.46875 C -6.453125 -19.644531 -7.546875 -19.234375 -8.515625 -18.234375 C -9.191406 -17.546875 -9.53125 -16.78125 -9.53125 -15.9375 C -9.53125 -15.09375 -9.203125 -14.351562 -8.546875 -13.71875 C -8.066406 -13.238281 -7.535156 -12.9375 -6.953125 -12.8125 C -6.367188 -12.6875 -5.78125 -12.671875 -5.1875 -12.765625 C -4.59375 -12.859375 -3.785156 -13.03125 -2.765625 -13.28125 L -1.875 -13.515625 C -0.582031 -13.835938 0.476562 -14.046875 1.3125 -14.140625 C 2.144531 -14.234375 2.941406 -14.1875 3.703125 -14 C 4.460938 -13.8125 5.171875 -13.398438 5.828125 -12.765625 C 6.992188 -11.617188 7.515625 -10.347656 7.390625 -8.953125 C 7.273438 -7.566406 6.644531 -6.285156 5.5 -5.109375 C 4.90625 -4.492188 4.351562 -4.050781 3.84375 -3.78125 C 3.34375 -3.519531 2.796875 -3.316406 2.203125 -3.171875 C 1.765625 -3.066406 1.46875 -2.9375 1.3125 -2.78125 C 1.195312 -2.664062 1.175781 -2.507812 1.25 -2.3125 C 1.320312 -2.125 1.488281 -1.863281 1.75 -1.53125 L 1.3125 -1.078125 C 0.65625 -1.816406 -0.859375 -3.34375 -3.234375 -5.65625 L -2.796875 -6.109375 C -1.398438 -4.941406 -0.03125 -4.234375 1.3125 -3.984375 C 2.65625 -3.742188 3.882812 -4.195312 5 -5.34375 C 5.675781 -6.039062 6.035156 -6.84375 6.078125 -7.75 C 6.117188 -8.65625 5.71875 -9.519531 4.875 -10.34375 C 4.144531 -11.050781 3.296875 -11.40625 2.328125 -11.40625 C 1.367188 -11.414062 0.0625 -11.207031 -1.59375 -10.78125 C -2.78125 -10.476562 -3.78125 -10.265625 -4.59375 -10.140625 C -5.414062 -10.015625 -6.222656 -10.050781 -7.015625 -10.25 C -7.804688 -10.457031 -8.546875 -10.894531 -9.234375 -11.5625 C -10.304688 -12.613281 -10.789062 -13.765625 -10.6875 -15.015625 C -10.582031 -16.265625 -10.03125 -17.40625 -9.03125 -18.4375 Z M -9.03125 -18.4375 "/></g></g></g><g fill="#2f5b44" fill-opacity="1"><g transform="translate(327.930487, 305.174162)"><g><path d="M -8.890625 -18.078125 C -9.285156 -17.578125 -9.535156 -17.175781 -9.640625 -16.875 C -9.753906 -16.570312 -9.726562 -16.28125 -9.5625 -16 C -9.40625 -15.726562 -9.066406 -15.367188 -8.546875 -14.921875 L 1.609375 -6.265625 C 2.117188 -5.828125 2.519531 -5.546875 2.8125 -5.421875 C 3.113281 -5.304688 3.398438 -5.328125 3.671875 -5.484375 C 3.953125 -5.648438 4.320312 -5.960938 4.78125 -6.421875 L 5.1875 -6.078125 C 4.601562 -5.484375 3.84375 -4.632812 2.90625 -3.53125 C 1.90625 -2.351562 1.179688 -1.460938 0.734375 -0.859375 L 0.328125 -1.203125 C 0.710938 -1.722656 0.957031 -2.128906 1.0625 -2.421875 C 1.175781 -2.710938 1.15625 -3 1 -3.28125 C 0.84375 -3.5625 0.507812 -3.921875 0 -4.359375 L -10.15625 -13.015625 C -10.675781 -13.460938 -11.085938 -13.742188 -11.390625 -13.859375 C -11.691406 -13.972656 -11.976562 -13.953125 -12.25 -13.796875 C -12.53125 -13.648438 -12.894531 -13.335938 -13.34375 -12.859375 L -13.75 -13.21875 C -13.21875 -13.75 -12.453125 -14.601562 -11.453125 -15.78125 C -10.523438 -16.863281 -9.804688 -17.75 -9.296875 -18.4375 Z M -8.890625 -18.078125 "/></g></g></g><g fill="#2f5b44" fill-opacity="1"><g transform="translate(334.450794, 297.695994)"><g><path d="M -2.15625 -14.0625 C -0.769531 -15.488281 0.519531 -16.285156 1.71875 -16.453125 C 2.914062 -16.617188 4.007812 -16.34375 5 -15.625 C 5.820312 -15.019531 6.394531 -14.269531 6.71875 -13.375 C 7.050781 -12.488281 7.109375 -11.523438 6.890625 -10.484375 C 6.671875 -9.441406 6.164062 -8.390625 5.375 -7.328125 C 5.09375 -6.929688 4.84375 -6.601562 4.625 -6.34375 C 3.914062 -5.4375 3.234375 -4.539062 2.578125 -3.65625 C 1.710938 -2.46875 1.078125 -1.550781 0.671875 -0.90625 L 0.25 -1.21875 C 0.582031 -1.757812 0.789062 -2.179688 0.875 -2.484375 C 0.96875 -2.796875 0.925781 -3.082031 0.75 -3.34375 C 0.570312 -3.613281 0.207031 -3.953125 -0.34375 -4.359375 L -11.09375 -12.25 C -11.632812 -12.65625 -12.0625 -12.90625 -12.375 -13 C -12.6875 -13.09375 -12.972656 -13.050781 -13.234375 -12.875 C -13.503906 -12.695312 -13.835938 -12.359375 -14.234375 -11.859375 L -14.671875 -12.171875 C -14.179688 -12.753906 -13.515625 -13.617188 -12.671875 -14.765625 L -10.96875 -17.125 C -10.78125 -17.414062 -10.5625 -17.734375 -10.3125 -18.078125 C -9.226562 -19.554688 -8.085938 -20.457031 -6.890625 -20.78125 C -5.691406 -21.113281 -4.578125 -20.90625 -3.546875 -20.15625 C -2.710938 -19.53125 -2.15625 -18.710938 -1.875 -17.703125 C -1.59375 -16.691406 -1.695312 -15.488281 -2.1875 -14.09375 Z M -10.296875 -17.234375 C -10.617188 -16.785156 -10.8125 -16.410156 -10.875 -16.109375 C -10.945312 -15.816406 -10.882812 -15.53125 -10.6875 -15.25 C -10.488281 -14.976562 -10.128906 -14.648438 -9.609375 -14.265625 L -4.703125 -10.671875 L -3.640625 -12.125 C -2.765625 -13.300781 -2.476562 -14.359375 -2.78125 -15.296875 C -3.082031 -16.242188 -3.769531 -17.109375 -4.84375 -17.890625 C -5.925781 -18.691406 -6.90625 -19.050781 -7.78125 -18.96875 C -8.664062 -18.882812 -9.503906 -18.304688 -10.296875 -17.234375 Z M 4.140625 -6.6875 C 6.117188 -9.382812 5.84375 -11.660156 3.3125 -13.515625 C 2.175781 -14.347656 1.082031 -14.675781 0.03125 -14.5 C -1.007812 -14.320312 -2.023438 -13.5625 -3.015625 -12.21875 L -4.34375 -10.40625 L 1.140625 -6.375 C 1.660156 -5.988281 2.070312 -5.75 2.375 -5.65625 C 2.6875 -5.5625 2.972656 -5.59375 3.234375 -5.75 C 3.492188 -5.90625 3.796875 -6.21875 4.140625 -6.6875 Z M 4.140625 -6.6875 "/></g></g></g><g fill="#2f5b44" fill-opacity="1"><g transform="translate(344.910198, 283.341735)"><g><path d="M -11.75 -16.375 C -12.050781 -15.8125 -12.226562 -15.375 -12.28125 -15.0625 C -12.34375 -14.75 -12.265625 -14.46875 -12.046875 -14.21875 C -11.835938 -13.976562 -11.445312 -13.679688 -10.875 -13.328125 L 0.5625 -6.453125 C 1.144531 -6.097656 1.585938 -5.882812 1.890625 -5.8125 C 2.203125 -5.75 2.476562 -5.820312 2.71875 -6.03125 C 2.957031 -6.238281 3.242188 -6.617188 3.578125 -7.171875 L 4.59375 -8.859375 C 5.164062 -9.804688 5.46875 -10.609375 5.5 -11.265625 C 5.53125 -11.929688 5.316406 -12.554688 4.859375 -13.140625 C 4.398438 -13.734375 3.640625 -14.421875 2.578125 -15.203125 L 2.890625 -15.75 C 3.328125 -15.414062 3.9375 -15.007812 4.71875 -14.53125 C 5.59375 -14.007812 6.609375 -13.472656 7.765625 -12.921875 C 7.097656 -11.910156 6.019531 -10.164062 4.53125 -7.6875 C 2.757812 -4.75 1.441406 -2.507812 0.578125 -0.96875 L 0.125 -1.25 C 0.414062 -1.820312 0.585938 -2.257812 0.640625 -2.5625 C 0.703125 -2.875 0.632812 -3.15625 0.4375 -3.40625 C 0.238281 -3.65625 -0.148438 -3.957031 -0.734375 -4.3125 L -12.171875 -11.1875 C -12.742188 -11.539062 -13.191406 -11.75 -13.515625 -11.8125 C -13.835938 -11.875 -14.117188 -11.804688 -14.359375 -11.609375 C -14.609375 -11.410156 -14.914062 -11.039062 -15.28125 -10.5 L -15.734375 -10.78125 C -15.285156 -11.394531 -14.664062 -12.363281 -13.875 -13.6875 C -13.132812 -14.90625 -12.578125 -15.894531 -12.203125 -16.65625 Z M -11.75 -16.375 "/></g></g></g><g fill="#2f5b44" fill-opacity="1"><g transform="translate(353.548146, 268.920435)"><g><path d="M 3.390625 -14.90625 C 4.304688 -14.457031 5.367188 -14.015625 6.578125 -13.578125 C 5.992188 -12.492188 5.070312 -10.65625 3.8125 -8.0625 C 2.3125 -4.96875 1.203125 -2.617188 0.484375 -1.015625 L 0 -1.25 C 0.25 -1.851562 0.390625 -2.3125 0.421875 -2.625 C 0.453125 -2.9375 0.351562 -3.207031 0.125 -3.4375 C -0.09375 -3.664062 -0.507812 -3.925781 -1.125 -4.21875 L -13.125 -10.03125 C -13.738281 -10.332031 -14.207031 -10.5 -14.53125 -10.53125 C -14.851562 -10.5625 -15.128906 -10.46875 -15.359375 -10.25 C -15.585938 -10.039062 -15.859375 -9.648438 -16.171875 -9.078125 L -16.640625 -9.3125 C -15.828125 -10.875 -14.671875 -13.203125 -13.171875 -16.296875 C -12.023438 -18.671875 -11.226562 -20.367188 -10.78125 -21.390625 C -9.789062 -20.765625 -8.875 -20.242188 -8.03125 -19.828125 C -7.394531 -19.523438 -6.878906 -19.3125 -6.484375 -19.1875 L -6.75 -18.640625 C -7.863281 -19.035156 -8.710938 -19.265625 -9.296875 -19.328125 C -9.890625 -19.398438 -10.40625 -19.28125 -10.84375 -18.96875 C -11.28125 -18.664062 -11.707031 -18.085938 -12.125 -17.234375 L -13.09375 -15.21875 C -13.375 -14.632812 -13.535156 -14.1875 -13.578125 -13.875 C -13.617188 -13.5625 -13.523438 -13.289062 -13.296875 -13.0625 C -13.066406 -12.84375 -12.644531 -12.582031 -12.03125 -12.28125 L -6.328125 -9.53125 L -5.5625 -11.125 C -5.28125 -11.6875 -5.195312 -12.179688 -5.3125 -12.609375 C -5.4375 -13.046875 -5.65625 -13.40625 -5.96875 -13.6875 C -6.28125 -13.96875 -6.695312 -14.273438 -7.21875 -14.609375 L -7.65625 -14.90625 L -7.375 -15.46875 C -6.738281 -15.09375 -6 -14.703125 -5.15625 -14.296875 L -4 -13.734375 C -3.175781 -13.335938 -2 -12.828125 -0.46875 -12.203125 L -0.734375 -11.65625 C -0.859375 -11.695312 -1.273438 -11.835938 -1.984375 -12.078125 C -2.703125 -12.328125 -3.316406 -12.347656 -3.828125 -12.140625 C -4.347656 -11.941406 -4.765625 -11.519531 -5.078125 -10.875 L -5.84375 -9.28125 L -0.03125 -6.46875 C 0.582031 -6.175781 1.046875 -6.007812 1.359375 -5.96875 C 1.679688 -5.9375 1.953125 -6.03125 2.171875 -6.25 C 2.390625 -6.46875 2.640625 -6.867188 2.921875 -7.453125 L 3.78125 -9.21875 C 4.257812 -10.21875 4.492188 -11.046875 4.484375 -11.703125 C 4.484375 -12.359375 4.242188 -12.945312 3.765625 -13.46875 C 3.285156 -14 2.5 -14.597656 1.40625 -15.265625 L 1.6875 -15.828125 C 2.09375 -15.566406 2.660156 -15.257812 3.390625 -14.90625 Z M 3.390625 -14.90625 "/></g></g></g></svg>