<svg xmlns="http://www.w3.org/2000/svg" xmlns:xlink="http://www.w3.org/1999/xlink" width="500" zoomAndPan="magnify" viewBox="0 0 375 374.999991" height="500" preserveAspectRatio="xMidYMid meet" version="1.0"><defs><g/><clipPath id="6e83aae8cd"><path d="M 375 187.503906 C 375 291.050781 291.050781 375 187.5 375 C 83.945312 375 0 291.050781 0 187.503906 C 0 83.949219 83.945312 0 187.5 0 C 291.054688 0 375 83.949219 375 187.503906 Z M 375 187.503906 " clip-rule="nonzero"/></clipPath></defs><g clip-path="url(#6e83aae8cd)"><rect x="-37.5" width="450" fill="#f2f2f2" y="-37.499999" height="449.999989" fill-opacity="1"/></g><g fill="#000000" fill-opacity="1"><g transform="translate(30.128909, 188.914164)"><g><path d="M 21.5625 -41.96875 C 23.882812 -41.96875 25.859375 -41.632812 27.484375 -40.96875 C 29.117188 -40.3125 30.710938 -39.382812 32.265625 -38.1875 C 32.691406 -37.84375 33.054688 -37.671875 33.359375 -37.671875 C 34.140625 -37.671875 34.644531 -38.832031 34.875 -41.15625 L 36.21875 -41.15625 C 36.0625 -38.632812 35.984375 -34.175781 35.984375 -27.78125 L 34.640625 -27.78125 C 34.210938 -30.300781 33.820312 -32.113281 33.46875 -33.21875 C 33.125 -34.320312 32.546875 -35.378906 31.734375 -36.390625 C 30.578125 -37.898438 29.097656 -39.03125 27.296875 -39.78125 C 25.492188 -40.539062 23.546875 -40.921875 21.453125 -40.921875 C 18.929688 -40.921875 16.726562 -40.085938 14.84375 -38.421875 C 12.96875 -36.753906 11.503906 -34.378906 10.453125 -31.296875 C 9.410156 -28.210938 8.890625 -24.597656 8.890625 -20.453125 C 8.890625 -16.234375 9.453125 -12.613281 10.578125 -9.59375 C 11.703125 -6.570312 13.257812 -4.273438 15.25 -2.703125 C 17.25 -1.128906 19.507812 -0.34375 22.03125 -0.34375 C 23.96875 -0.34375 25.847656 -0.710938 27.671875 -1.453125 C 29.492188 -2.191406 30.925781 -3.296875 31.96875 -4.765625 C 32.738281 -5.847656 33.296875 -7.007812 33.640625 -8.25 C 33.992188 -9.488281 34.328125 -11.390625 34.640625 -13.953125 L 35.984375 -13.953125 C 35.984375 -7.285156 36.0625 -2.632812 36.21875 0 L 34.875 0 C 34.757812 -1.238281 34.59375 -2.117188 34.375 -2.640625 C 34.164062 -3.160156 33.867188 -3.421875 33.484375 -3.421875 C 33.171875 -3.421875 32.765625 -3.269531 32.265625 -2.96875 C 30.515625 -1.726562 28.84375 -0.785156 27.25 -0.140625 C 25.664062 0.492188 23.75 0.8125 21.5 0.8125 C 17.820312 0.8125 14.597656 -0.0195312 11.828125 -1.6875 C 9.054688 -3.351562 6.90625 -5.765625 5.375 -8.921875 C 3.84375 -12.078125 3.078125 -15.847656 3.078125 -20.234375 C 3.078125 -24.492188 3.859375 -28.269531 5.421875 -31.5625 C 6.992188 -34.851562 9.1875 -37.410156 12 -39.234375 C 14.8125 -41.054688 18 -41.96875 21.5625 -41.96875 Z M 21.5625 -41.96875 "/></g></g></g><g fill="#000000" fill-opacity="1"><g transform="translate(70.110844, 188.914164)"><g><path d="M 15.921875 -30.75 C 19.878906 -30.75 23.066406 -29.441406 25.484375 -26.828125 C 27.910156 -24.210938 29.125 -20.25 29.125 -14.9375 C 29.125 -9.625 27.910156 -5.671875 25.484375 -3.078125 C 23.066406 -0.484375 19.878906 0.8125 15.921875 0.8125 C 11.972656 0.8125 8.785156 -0.484375 6.359375 -3.078125 C 3.941406 -5.671875 2.734375 -9.625 2.734375 -14.9375 C 2.734375 -20.25 3.941406 -24.210938 6.359375 -26.828125 C 8.785156 -29.441406 11.972656 -30.75 15.921875 -30.75 Z M 15.921875 -29.578125 C 13.597656 -29.578125 11.757812 -28.382812 10.40625 -26 C 9.050781 -23.625 8.375 -19.9375 8.375 -14.9375 C 8.375 -9.9375 9.050781 -6.253906 10.40625 -3.890625 C 11.757812 -1.523438 13.597656 -0.34375 15.921875 -0.34375 C 18.242188 -0.34375 20.082031 -1.523438 21.4375 -3.890625 C 22.800781 -6.253906 23.484375 -9.9375 23.484375 -14.9375 C 23.484375 -19.9375 22.800781 -23.625 21.4375 -26 C 20.082031 -28.382812 18.242188 -29.578125 15.921875 -29.578125 Z M 15.921875 -29.578125 "/></g></g></g><g fill="#000000" fill-opacity="1"><g transform="translate(101.956922, 188.914164)"><g><path d="M 21.21875 -30.75 C 23.925781 -30.75 25.976562 -30.015625 27.375 -28.546875 C 28.113281 -27.765625 28.632812 -26.789062 28.9375 -25.625 C 29.25 -24.46875 29.40625 -22.898438 29.40625 -20.921875 L 29.40625 -5.40625 C 29.40625 -3.8125 29.734375 -2.710938 30.390625 -2.109375 C 31.054688 -1.515625 32.203125 -1.21875 33.828125 -1.21875 L 33.828125 0 C 30.265625 -0.15625 27.941406 -0.234375 26.859375 -0.234375 C 25.765625 -0.234375 23.59375 -0.15625 20.34375 0 L 20.34375 -1.21875 C 21.78125 -1.21875 22.78125 -1.515625 23.34375 -2.109375 C 23.90625 -2.710938 24.1875 -3.8125 24.1875 -5.40625 L 24.1875 -22.203125 C 24.1875 -24.367188 23.875 -26.023438 23.25 -27.171875 C 22.625 -28.316406 21.363281 -28.890625 19.46875 -28.890625 C 17.882812 -28.890625 16.472656 -28.421875 15.234375 -27.484375 C 13.992188 -26.554688 13.03125 -25.289062 12.34375 -23.6875 C 11.664062 -22.082031 11.328125 -20.289062 11.328125 -18.3125 L 11.328125 -5.40625 C 11.328125 -3.8125 11.609375 -2.710938 12.171875 -2.109375 C 12.734375 -1.515625 13.734375 -1.21875 15.171875 -1.21875 L 15.171875 0 C 11.910156 -0.15625 9.738281 -0.234375 8.65625 -0.234375 C 7.570312 -0.234375 5.25 -0.15625 1.6875 0 L 1.6875 -1.21875 C 3.3125 -1.21875 4.453125 -1.515625 5.109375 -2.109375 C 5.773438 -2.710938 6.109375 -3.8125 6.109375 -5.40625 L 6.109375 -23.59375 C 6.109375 -25.375 5.773438 -26.671875 5.109375 -27.484375 C 4.453125 -28.304688 3.3125 -28.71875 1.6875 -28.71875 L 1.6875 -29.9375 C 2.925781 -29.820312 4.128906 -29.765625 5.296875 -29.765625 C 7.734375 -29.765625 9.742188 -30.035156 11.328125 -30.578125 L 11.328125 -23.71875 C 12.296875 -26.195312 13.640625 -27.988281 15.359375 -29.09375 C 17.085938 -30.195312 19.039062 -30.75 21.21875 -30.75 Z M 21.21875 -30.75 "/></g></g></g><g fill="#000000" fill-opacity="1"><g transform="translate(136.650542, 188.914164)"><g><path d="M 11.046875 -29.875 L 19.640625 -29.875 L 19.640625 -28.71875 L 11.046875 -28.71875 L 11.046875 -6.21875 C 11.046875 -4.476562 11.363281 -3.21875 12 -2.4375 C 12.644531 -1.664062 13.566406 -1.28125 14.765625 -1.28125 C 15.960938 -1.28125 16.988281 -1.765625 17.84375 -2.734375 C 18.695312 -3.703125 19.414062 -5.289062 20 -7.5 L 21.15625 -7.203125 C 20.1875 -1.859375 17.664062 0.8125 13.59375 0.8125 C 12.28125 0.8125 11.195312 0.65625 10.34375 0.34375 C 9.488281 0.0390625 8.734375 -0.441406 8.078125 -1.109375 C 7.222656 -1.960938 6.628906 -3.007812 6.296875 -4.25 C 5.972656 -5.488281 5.8125 -7.148438 5.8125 -9.234375 L 5.8125 -28.71875 L 0.234375 -28.71875 L 0.234375 -29.875 L 5.8125 -29.875 L 5.8125 -38.765625 C 7.976562 -38.847656 9.722656 -39.117188 11.046875 -39.578125 Z M 11.046875 -29.875 "/></g></g></g><g fill="#000000" fill-opacity="1"><g transform="translate(157.222646, 188.914164)"><g><path d="M 19.765625 -30.75 C 21.316406 -30.75 22.582031 -30.300781 23.5625 -29.40625 C 24.550781 -28.519531 25.046875 -27.4375 25.046875 -26.15625 C 25.046875 -25.144531 24.742188 -24.28125 24.140625 -23.5625 C 23.546875 -22.851562 22.742188 -22.5 21.734375 -22.5 C 20.878906 -22.5 20.148438 -22.769531 19.546875 -23.3125 C 18.953125 -23.851562 18.65625 -24.585938 18.65625 -25.515625 C 18.65625 -26.796875 19.316406 -27.84375 20.640625 -28.65625 C 20.367188 -29.039062 19.957031 -29.234375 19.40625 -29.234375 C 17.894531 -29.234375 16.519531 -28.640625 15.28125 -27.453125 C 14.039062 -26.273438 13.070312 -24.832031 12.375 -23.125 C 11.675781 -21.425781 11.328125 -19.820312 11.328125 -18.3125 L 11.328125 -5.984375 C 11.328125 -4.203125 11.84375 -2.960938 12.875 -2.265625 C 13.90625 -1.566406 15.445312 -1.21875 17.5 -1.21875 L 17.5 0 L 16.09375 -0.0625 C 12.144531 -0.175781 9.628906 -0.234375 8.546875 -0.234375 C 7.535156 -0.234375 5.25 -0.15625 1.6875 0 L 1.6875 -1.21875 C 3.3125 -1.21875 4.453125 -1.515625 5.109375 -2.109375 C 5.773438 -2.710938 6.109375 -3.8125 6.109375 -5.40625 L 6.109375 -23.59375 C 6.109375 -25.375 5.773438 -26.671875 5.109375 -27.484375 C 4.453125 -28.304688 3.3125 -28.71875 1.6875 -28.71875 L 1.6875 -29.9375 C 2.925781 -29.820312 4.128906 -29.765625 5.296875 -29.765625 C 7.734375 -29.765625 9.742188 -30.035156 11.328125 -30.578125 L 11.328125 -23.3125 C 12.023438 -25.25 13.140625 -26.972656 14.671875 -28.484375 C 16.203125 -29.992188 17.898438 -30.75 19.765625 -30.75 Z M 19.765625 -30.75 "/></g></g></g><g fill="#000000" fill-opacity="1"><g transform="translate(183.083053, 188.914164)"><g><path d="M 8.3125 -44.46875 C 9.3125 -44.46875 10.179688 -44.097656 10.921875 -43.359375 C 11.660156 -42.617188 12.03125 -41.75 12.03125 -40.75 C 12.03125 -39.738281 11.660156 -38.863281 10.921875 -38.125 C 10.179688 -37.394531 9.3125 -37.03125 8.3125 -37.03125 C 7.300781 -37.03125 6.425781 -37.394531 5.6875 -38.125 C 4.957031 -38.863281 4.59375 -39.738281 4.59375 -40.75 C 4.59375 -41.75 4.957031 -42.617188 5.6875 -43.359375 C 6.425781 -44.097656 7.300781 -44.46875 8.3125 -44.46875 Z M 11.328125 -5.40625 C 11.328125 -3.8125 11.65625 -2.710938 12.3125 -2.109375 C 12.976562 -1.515625 14.125 -1.21875 15.75 -1.21875 L 15.75 0 C 12.1875 -0.15625 9.84375 -0.234375 8.71875 -0.234375 C 7.59375 -0.234375 5.25 -0.15625 1.6875 0 L 1.6875 -1.21875 C 3.3125 -1.21875 4.453125 -1.515625 5.109375 -2.109375 C 5.773438 -2.710938 6.109375 -3.8125 6.109375 -5.40625 L 6.109375 -23.59375 C 6.109375 -25.375 5.773438 -26.671875 5.109375 -27.484375 C 4.453125 -28.304688 3.3125 -28.71875 1.6875 -28.71875 L 1.6875 -29.9375 C 2.925781 -29.820312 4.128906 -29.765625 5.296875 -29.765625 C 7.734375 -29.765625 9.742188 -30.035156 11.328125 -30.578125 Z M 11.328125 -5.40625 "/></g></g></g><g fill="#000000" fill-opacity="1"><g transform="translate(200.110248, 188.914164)"><g><path d="M 18.953125 -30.75 C 22.242188 -30.75 24.90625 -29.390625 26.9375 -26.671875 C 28.976562 -23.960938 30 -20.050781 30 -14.9375 C 30 -11.5625 29.414062 -8.691406 28.25 -6.328125 C 27.082031 -3.972656 25.519531 -2.191406 23.5625 -0.984375 C 21.613281 0.210938 19.4375 0.8125 17.03125 0.8125 C 15.59375 0.8125 14.207031 0.519531 12.875 -0.0625 C 11.539062 -0.644531 10.367188 -1.476562 9.359375 -2.5625 L 5.234375 0.9375 L 4.25 0.515625 C 4.519531 -0.453125 4.65625 -1.570312 4.65625 -2.84375 L 4.65625 -38.53125 C 4.65625 -40.3125 4.320312 -41.609375 3.65625 -42.421875 C 3 -43.242188 1.859375 -43.65625 0.234375 -43.65625 L 0.234375 -44.875 C 1.472656 -44.757812 2.675781 -44.703125 3.84375 -44.703125 C 6.28125 -44.703125 8.289062 -44.972656 9.875 -45.515625 L 9.875 -24.53125 C 10.726562 -26.507812 11.957031 -28.039062 13.5625 -29.125 C 15.175781 -30.207031 16.972656 -30.75 18.953125 -30.75 Z M 16.5625 -0.515625 C 19.15625 -0.515625 21.101562 -1.6875 22.40625 -4.03125 C 23.707031 -6.382812 24.359375 -10.019531 24.359375 -14.9375 C 24.359375 -19.664062 23.773438 -23.191406 22.609375 -25.515625 C 21.441406 -27.835938 19.660156 -29 17.265625 -29 C 15.640625 -29 14.144531 -28.367188 12.78125 -27.109375 C 11.425781 -25.847656 10.457031 -24.078125 9.875 -21.796875 L 9.875 -3.375 C 10.769531 -2.4375 11.796875 -1.722656 12.953125 -1.234375 C 14.117188 -0.753906 15.320312 -0.515625 16.5625 -0.515625 Z M 16.5625 -0.515625 "/></g></g></g><g fill="#000000" fill-opacity="1"><g transform="translate(232.828023, 188.914164)"><g><path d="M 28.078125 -6.28125 C 28.078125 -4.5 28.40625 -3.195312 29.0625 -2.375 C 29.71875 -1.5625 30.859375 -1.15625 32.484375 -1.15625 L 32.484375 0.0625 C 31.285156 -0.0507812 30.085938 -0.109375 28.890625 -0.109375 C 26.441406 -0.109375 24.425781 0.160156 22.84375 0.703125 L 22.84375 -6.15625 C 21.914062 -3.757812 20.597656 -2 18.890625 -0.875 C 17.179688 0.25 15.320312 0.8125 13.3125 0.8125 C 10.675781 0.8125 8.660156 0.078125 7.265625 -1.390625 C 6.566406 -2.171875 6.070312 -3.160156 5.78125 -4.359375 C 5.488281 -5.554688 5.34375 -7.109375 5.34375 -9.015625 L 5.34375 -23.59375 C 5.34375 -25.375 5.015625 -26.671875 4.359375 -27.484375 C 3.703125 -28.304688 2.5625 -28.71875 0.9375 -28.71875 L 0.9375 -29.9375 C 2.132812 -29.820312 3.332031 -29.765625 4.53125 -29.765625 C 6.976562 -29.765625 8.992188 -30.035156 10.578125 -30.578125 L 10.578125 -7.734375 C 10.578125 -6.253906 10.664062 -5.0625 10.84375 -4.15625 C 11.019531 -3.25 11.425781 -2.503906 12.0625 -1.921875 C 12.695312 -1.335938 13.675781 -1.046875 15 -1.046875 C 16.46875 -1.046875 17.800781 -1.507812 19 -2.4375 C 20.207031 -3.375 21.148438 -4.644531 21.828125 -6.25 C 22.503906 -7.851562 22.84375 -9.625 22.84375 -11.5625 L 22.84375 -23.59375 C 22.84375 -25.375 22.507812 -26.671875 21.84375 -27.484375 C 21.1875 -28.304688 20.046875 -28.71875 18.421875 -28.71875 L 18.421875 -29.9375 C 19.628906 -29.820312 20.832031 -29.765625 22.03125 -29.765625 C 24.46875 -29.765625 26.484375 -30.035156 28.078125 -30.578125 Z M 28.078125 -6.28125 "/></g></g></g><g fill="#000000" fill-opacity="1"><g transform="translate(266.591845, 188.914164)"><g><path d="M 11.046875 -29.875 L 19.640625 -29.875 L 19.640625 -28.71875 L 11.046875 -28.71875 L 11.046875 -6.21875 C 11.046875 -4.476562 11.363281 -3.21875 12 -2.4375 C 12.644531 -1.664062 13.566406 -1.28125 14.765625 -1.28125 C 15.960938 -1.28125 16.988281 -1.765625 17.84375 -2.734375 C 18.695312 -3.703125 19.414062 -5.289062 20 -7.5 L 21.15625 -7.203125 C 20.1875 -1.859375 17.664062 0.8125 13.59375 0.8125 C 12.28125 0.8125 11.195312 0.65625 10.34375 0.34375 C 9.488281 0.0390625 8.734375 -0.441406 8.078125 -1.109375 C 7.222656 -1.960938 6.628906 -3.007812 6.296875 -4.25 C 5.972656 -5.488281 5.8125 -7.148438 5.8125 -9.234375 L 5.8125 -28.71875 L 0.234375 -28.71875 L 0.234375 -29.875 L 5.8125 -29.875 L 5.8125 -38.765625 C 7.976562 -38.847656 9.722656 -39.117188 11.046875 -39.578125 Z M 11.046875 -29.875 "/></g></g></g><g fill="#000000" fill-opacity="1"><g transform="translate(287.163949, 188.914164)"><g><path d="M 15.921875 -30.75 C 19.878906 -30.75 23.066406 -29.441406 25.484375 -26.828125 C 27.910156 -24.210938 29.125 -20.25 29.125 -14.9375 C 29.125 -9.625 27.910156 -5.671875 25.484375 -3.078125 C 23.066406 -0.484375 19.878906 0.8125 15.921875 0.8125 C 11.972656 0.8125 8.785156 -0.484375 6.359375 -3.078125 C 3.941406 -5.671875 2.734375 -9.625 2.734375 -14.9375 C 2.734375 -20.25 3.941406 -24.210938 6.359375 -26.828125 C 8.785156 -29.441406 11.972656 -30.75 15.921875 -30.75 Z M 15.921875 -29.578125 C 13.597656 -29.578125 11.757812 -28.382812 10.40625 -26 C 9.050781 -23.625 8.375 -19.9375 8.375 -14.9375 C 8.375 -9.9375 9.050781 -6.253906 10.40625 -3.890625 C 11.757812 -1.523438 13.597656 -0.34375 15.921875 -0.34375 C 18.242188 -0.34375 20.082031 -1.523438 21.4375 -3.890625 C 22.800781 -6.253906 23.484375 -9.9375 23.484375 -14.9375 C 23.484375 -19.9375 22.800781 -23.625 21.4375 -26 C 20.082031 -28.382812 18.242188 -29.578125 15.921875 -29.578125 Z M 15.921875 -29.578125 "/></g></g></g><g fill="#000000" fill-opacity="1"><g transform="translate(319.010039, 188.914164)"><g><path d="M 19.765625 -30.75 C 21.316406 -30.75 22.582031 -30.300781 23.5625 -29.40625 C 24.550781 -28.519531 25.046875 -27.4375 25.046875 -26.15625 C 25.046875 -25.144531 24.742188 -24.28125 24.140625 -23.5625 C 23.546875 -22.851562 22.742188 -22.5 21.734375 -22.5 C 20.878906 -22.5 20.148438 -22.769531 19.546875 -23.3125 C 18.953125 -23.851562 18.65625 -24.585938 18.65625 -25.515625 C 18.65625 -26.796875 19.316406 -27.84375 20.640625 -28.65625 C 20.367188 -29.039062 19.957031 -29.234375 19.40625 -29.234375 C 17.894531 -29.234375 16.519531 -28.640625 15.28125 -27.453125 C 14.039062 -26.273438 13.070312 -24.832031 12.375 -23.125 C 11.675781 -21.425781 11.328125 -19.820312 11.328125 -18.3125 L 11.328125 -5.984375 C 11.328125 -4.203125 11.84375 -2.960938 12.875 -2.265625 C 13.90625 -1.566406 15.445312 -1.21875 17.5 -1.21875 L 17.5 0 L 16.09375 -0.0625 C 12.144531 -0.175781 9.628906 -0.234375 8.546875 -0.234375 C 7.535156 -0.234375 5.25 -0.15625 1.6875 0 L 1.6875 -1.21875 C 3.3125 -1.21875 4.453125 -1.515625 5.109375 -2.109375 C 5.773438 -2.710938 6.109375 -3.8125 6.109375 -5.40625 L 6.109375 -23.59375 C 6.109375 -25.375 5.773438 -26.671875 5.109375 -27.484375 C 4.453125 -28.304688 3.3125 -28.71875 1.6875 -28.71875 L 1.6875 -29.9375 C 2.925781 -29.820312 4.128906 -29.765625 5.296875 -29.765625 C 7.734375 -29.765625 9.742188 -30.035156 11.328125 -30.578125 L 11.328125 -23.3125 C 12.023438 -25.25 13.140625 -26.972656 14.671875 -28.484375 C 16.203125 -29.992188 17.898438 -30.75 19.765625 -30.75 Z M 19.765625 -30.75 "/></g></g></g><g fill="#000000" fill-opacity="1"><g transform="translate(31.574936, 227.554423)"><g><path d="M 8.40625 -19.453125 C 7.71875 -19.421875 7.21875 -19.347656 6.90625 -19.234375 C 6.601562 -19.117188 6.394531 -18.898438 6.28125 -18.578125 C 6.164062 -18.253906 6.109375 -17.738281 6.109375 -17.03125 L 6.109375 -3 C 6.109375 -2.28125 6.164062 -1.757812 6.28125 -1.4375 C 6.394531 -1.125 6.601562 -0.910156 6.90625 -0.796875 C 7.21875 -0.679688 7.71875 -0.601562 8.40625 -0.5625 L 8.40625 0 C 7.53125 -0.0507812 6.332031 -0.078125 4.8125 -0.078125 C 3.1875 -0.078125 1.976562 -0.0507812 1.1875 0 L 1.1875 -0.5625 C 1.863281 -0.601562 2.359375 -0.679688 2.671875 -0.796875 C 2.984375 -0.910156 3.195312 -1.125 3.3125 -1.4375 C 3.425781 -1.757812 3.484375 -2.28125 3.484375 -3 L 3.484375 -17.03125 C 3.484375 -17.738281 3.425781 -18.253906 3.3125 -18.578125 C 3.195312 -18.898438 2.984375 -19.117188 2.671875 -19.234375 C 2.359375 -19.347656 1.863281 -19.421875 1.1875 -19.453125 L 1.1875 -20.015625 C 1.976562 -19.960938 3.1875 -19.9375 4.8125 -19.9375 C 6.3125 -19.9375 7.507812 -19.960938 8.40625 -20.015625 Z M 8.40625 -19.453125 "/></g></g></g><g fill="#000000" fill-opacity="1"><g transform="translate(52.467923, 227.554423)"><g><path d="M 18.953125 -19.453125 C 18.285156 -19.421875 17.789062 -19.320312 17.46875 -19.15625 C 17.15625 -19 16.941406 -18.734375 16.828125 -18.359375 C 16.710938 -17.992188 16.65625 -17.457031 16.65625 -16.75 L 16.65625 0.140625 L 16 0.140625 L 4.125 -18.21875 L 4.125 -3.28125 C 4.125 -2.539062 4.1875 -1.992188 4.3125 -1.640625 C 4.4375 -1.285156 4.675781 -1.023438 5.03125 -0.859375 C 5.394531 -0.703125 5.953125 -0.601562 6.703125 -0.5625 L 6.703125 0 C 6.023438 -0.0507812 5.0625 -0.078125 3.8125 -0.078125 C 2.6875 -0.078125 1.8125 -0.0507812 1.1875 0 L 1.1875 -0.5625 C 1.84375 -0.601562 2.332031 -0.703125 2.65625 -0.859375 C 2.976562 -1.023438 3.195312 -1.289062 3.3125 -1.65625 C 3.425781 -2.019531 3.484375 -2.5625 3.484375 -3.28125 L 3.484375 -17.03125 C 3.484375 -17.738281 3.425781 -18.253906 3.3125 -18.578125 C 3.195312 -18.898438 2.984375 -19.117188 2.671875 -19.234375 C 2.359375 -19.347656 1.863281 -19.421875 1.1875 -19.453125 L 1.1875 -20.015625 C 1.8125 -19.960938 2.6875 -19.9375 3.8125 -19.9375 C 4.664062 -19.9375 5.40625 -19.960938 6.03125 -20.015625 L 16 -4.640625 L 16 -16.75 C 16 -17.476562 15.9375 -18.019531 15.8125 -18.375 C 15.695312 -18.738281 15.457031 -19 15.09375 -19.15625 C 14.738281 -19.320312 14.1875 -19.421875 13.4375 -19.453125 L 13.4375 -20.015625 C 14.113281 -19.960938 15.070312 -19.9375 16.3125 -19.9375 C 17.445312 -19.9375 18.328125 -19.960938 18.953125 -20.015625 Z M 18.953125 -19.453125 "/></g></g></g><g fill="#000000" fill-opacity="1"><g transform="translate(83.734404, 227.554423)"><g><path d="M 15.296875 -20.015625 C 15.171875 -18.679688 15.109375 -17.476562 15.109375 -16.40625 C 15.109375 -15.457031 15.132812 -14.679688 15.1875 -14.078125 L 14.53125 -14.078125 C 14.382812 -15.535156 14.195312 -16.613281 13.96875 -17.3125 C 13.738281 -18.019531 13.34375 -18.539062 12.78125 -18.875 C 12.21875 -19.207031 11.351562 -19.375 10.1875 -19.375 L 8.40625 -19.375 C 7.71875 -19.375 7.21875 -19.320312 6.90625 -19.21875 C 6.601562 -19.113281 6.394531 -18.898438 6.28125 -18.578125 C 6.164062 -18.253906 6.109375 -17.738281 6.109375 -17.03125 L 6.109375 -10.0625 L 8.171875 -10.0625 C 8.828125 -10.0625 9.332031 -10.21875 9.6875 -10.53125 C 10.050781 -10.84375 10.296875 -11.210938 10.421875 -11.640625 C 10.546875 -12.066406 10.644531 -12.597656 10.71875 -13.234375 L 10.796875 -13.796875 L 11.453125 -13.796875 C 11.398438 -13.003906 11.375 -12.117188 11.375 -11.140625 L 11.375 -9.78125 C 11.375 -8.820312 11.425781 -7.484375 11.53125 -5.765625 L 10.890625 -5.765625 C 10.867188 -5.898438 10.8125 -6.359375 10.71875 -7.140625 C 10.625 -7.921875 10.363281 -8.507812 9.9375 -8.90625 C 9.507812 -9.300781 8.921875 -9.5 8.171875 -9.5 L 6.109375 -9.5 L 6.109375 -3 C 6.109375 -2.28125 6.179688 -1.757812 6.328125 -1.4375 C 6.484375 -1.125 6.75 -0.910156 7.125 -0.796875 C 7.5 -0.679688 8.113281 -0.601562 8.96875 -0.5625 L 8.96875 0 C 7.988281 -0.0507812 6.601562 -0.078125 4.8125 -0.078125 C 3.1875 -0.078125 1.976562 -0.0507812 1.1875 0 L 1.1875 -0.5625 C 1.863281 -0.601562 2.359375 -0.679688 2.671875 -0.796875 C 2.984375 -0.910156 3.195312 -1.125 3.3125 -1.4375 C 3.425781 -1.757812 3.484375 -2.28125 3.484375 -3 L 3.484375 -17.03125 C 3.484375 -17.738281 3.425781 -18.253906 3.3125 -18.578125 C 3.195312 -18.898438 2.984375 -19.117188 2.671875 -19.234375 C 2.359375 -19.347656 1.863281 -19.421875 1.1875 -19.453125 L 1.1875 -20.015625 C 3.03125 -19.960938 5.765625 -19.9375 9.390625 -19.9375 C 12.160156 -19.9375 14.128906 -19.960938 15.296875 -20.015625 Z M 15.296875 -20.015625 "/></g></g></g><g fill="#000000" fill-opacity="1"><g transform="translate(111.128491, 227.554423)"><g><path d="M 10.5 -20.421875 C 12.28125 -20.421875 13.84375 -20.015625 15.1875 -19.203125 C 16.539062 -18.390625 17.585938 -17.210938 18.328125 -15.671875 C 19.078125 -14.140625 19.453125 -12.3125 19.453125 -10.1875 C 19.453125 -8.101562 19.070312 -6.257812 18.3125 -4.65625 C 17.550781 -3.0625 16.484375 -1.820312 15.109375 -0.9375 C 13.742188 -0.0507812 12.195312 0.390625 10.46875 0.390625 C 8.675781 0.390625 7.101562 -0.0078125 5.75 -0.8125 C 4.40625 -1.625 3.359375 -2.796875 2.609375 -4.328125 C 1.867188 -5.867188 1.5 -7.707031 1.5 -9.84375 C 1.5 -11.914062 1.878906 -13.753906 2.640625 -15.359375 C 3.410156 -16.960938 4.476562 -18.207031 5.84375 -19.09375 C 7.207031 -19.976562 8.757812 -20.421875 10.5 -20.421875 Z M 10.375 -19.90625 C 9.164062 -19.90625 8.101562 -19.484375 7.1875 -18.640625 C 6.28125 -17.804688 5.578125 -16.632812 5.078125 -15.125 C 4.578125 -13.625 4.328125 -11.898438 4.328125 -9.953125 C 4.328125 -7.992188 4.601562 -6.269531 5.15625 -4.78125 C 5.71875 -3.289062 6.46875 -2.140625 7.40625 -1.328125 C 8.351562 -0.515625 9.410156 -0.109375 10.578125 -0.109375 C 11.785156 -0.109375 12.84375 -0.523438 13.75 -1.359375 C 14.664062 -2.203125 15.375 -3.378906 15.875 -4.890625 C 16.375 -6.398438 16.625 -8.125 16.625 -10.0625 C 16.625 -12.03125 16.34375 -13.757812 15.78125 -15.25 C 15.226562 -16.738281 14.476562 -17.882812 13.53125 -18.6875 C 12.59375 -19.5 11.539062 -19.90625 10.375 -19.90625 Z M 10.375 -19.90625 "/></g></g></g><g fill="#000000" fill-opacity="1"><g transform="translate(143.384268, 227.554423)"><g><path d="M 18.671875 -1.40625 C 18.234375 -0.769531 17.796875 -0.3125 17.359375 -0.03125 C 16.929688 0.25 16.359375 0.390625 15.640625 0.390625 C 14.867188 0.390625 14.234375 0.164062 13.734375 -0.28125 C 13.234375 -0.738281 12.859375 -1.53125 12.609375 -2.65625 L 11.984375 -5.484375 C 11.765625 -6.460938 11.554688 -7.21875 11.359375 -7.75 C 11.160156 -8.28125 10.863281 -8.703125 10.46875 -9.015625 C 10.070312 -9.335938 9.515625 -9.5 8.796875 -9.5 L 6.109375 -9.5 L 6.109375 -3 C 6.109375 -2.28125 6.164062 -1.757812 6.28125 -1.4375 C 6.394531 -1.125 6.601562 -0.910156 6.90625 -0.796875 C 7.21875 -0.679688 7.71875 -0.601562 8.40625 -0.5625 L 8.40625 0 C 7.53125 -0.0507812 6.332031 -0.078125 4.8125 -0.078125 C 3.1875 -0.078125 1.976562 -0.0507812 1.1875 0 L 1.1875 -0.5625 C 1.863281 -0.601562 2.359375 -0.679688 2.671875 -0.796875 C 2.984375 -0.910156 3.195312 -1.125 3.3125 -1.4375 C 3.425781 -1.757812 3.484375 -2.28125 3.484375 -3 L 3.484375 -17.03125 C 3.484375 -17.738281 3.425781 -18.253906 3.3125 -18.578125 C 3.195312 -18.898438 2.984375 -19.117188 2.671875 -19.234375 C 2.359375 -19.347656 1.863281 -19.421875 1.1875 -19.453125 L 1.1875 -20.015625 C 1.976562 -19.960938 3.128906 -19.9375 4.640625 -19.9375 L 7.6875 -19.96875 C 8.050781 -19.988281 8.457031 -20 8.90625 -20 C 11.09375 -20 12.773438 -19.539062 13.953125 -18.625 C 15.128906 -17.707031 15.71875 -16.523438 15.71875 -15.078125 C 15.71875 -14.335938 15.539062 -13.59375 15.1875 -12.84375 C 14.84375 -12.101562 14.257812 -11.4375 13.4375 -10.84375 C 12.625 -10.25 11.554688 -9.847656 10.234375 -9.640625 L 10.578125 -9.59375 C 11.816406 -9.382812 12.71875 -9.003906 13.28125 -8.453125 C 13.851562 -7.910156 14.269531 -7.046875 14.53125 -5.859375 L 15.25 -2.96875 C 15.4375 -2.101562 15.632812 -1.5 15.84375 -1.15625 C 16.050781 -0.820312 16.332031 -0.65625 16.6875 -0.65625 C 17.007812 -0.65625 17.273438 -0.738281 17.484375 -0.90625 C 17.703125 -1.070312 17.953125 -1.34375 18.234375 -1.71875 Z M 8.203125 -19.453125 C 7.617188 -19.453125 7.179688 -19.382812 6.890625 -19.25 C 6.597656 -19.125 6.394531 -18.890625 6.28125 -18.546875 C 6.164062 -18.210938 6.109375 -17.707031 6.109375 -17.03125 L 6.109375 -10.0625 L 8 -10.0625 C 9.863281 -10.0625 11.144531 -10.476562 11.84375 -11.3125 C 12.539062 -12.144531 12.890625 -13.296875 12.890625 -14.765625 C 12.890625 -16.304688 12.519531 -17.472656 11.78125 -18.265625 C 11.050781 -19.054688 9.859375 -19.453125 8.203125 -19.453125 Z M 8.203125 -19.453125 "/></g></g></g><g fill="#000000" fill-opacity="1"><g transform="translate(173.011338, 227.554423)"><g><path d="M 23.4375 -19.453125 C 22.757812 -19.421875 22.265625 -19.347656 21.953125 -19.234375 C 21.648438 -19.117188 21.441406 -18.898438 21.328125 -18.578125 C 21.210938 -18.253906 21.15625 -17.738281 21.15625 -17.03125 L 21.15625 -3 C 21.15625 -2.28125 21.210938 -1.757812 21.328125 -1.4375 C 21.441406 -1.125 21.648438 -0.910156 21.953125 -0.796875 C 22.265625 -0.679688 22.757812 -0.601562 23.4375 -0.5625 L 23.4375 0 C 22.570312 -0.0507812 21.378906 -0.078125 19.859375 -0.078125 C 18.234375 -0.078125 17.023438 -0.0507812 16.234375 0 L 16.234375 -0.5625 C 16.910156 -0.601562 17.40625 -0.679688 17.71875 -0.796875 C 18.03125 -0.910156 18.242188 -1.125 18.359375 -1.4375 C 18.472656 -1.757812 18.53125 -2.28125 18.53125 -3 L 18.53125 -18.15625 L 11.703125 0.140625 L 11.25 0.140625 L 4.125 -18.21875 L 4.125 -3.28125 C 4.125 -2.539062 4.1875 -1.992188 4.3125 -1.640625 C 4.4375 -1.285156 4.675781 -1.023438 5.03125 -0.859375 C 5.394531 -0.703125 5.953125 -0.601562 6.703125 -0.5625 L 6.703125 0 C 6.023438 -0.0507812 5.0625 -0.078125 3.8125 -0.078125 C 2.6875 -0.078125 1.8125 -0.0507812 1.1875 0 L 1.1875 -0.5625 C 1.84375 -0.601562 2.332031 -0.703125 2.65625 -0.859375 C 2.976562 -1.023438 3.195312 -1.289062 3.3125 -1.65625 C 3.425781 -2.019531 3.484375 -2.5625 3.484375 -3.28125 L 3.484375 -17.03125 C 3.484375 -17.738281 3.425781 -18.253906 3.3125 -18.578125 C 3.195312 -18.898438 2.984375 -19.117188 2.671875 -19.234375 C 2.359375 -19.347656 1.863281 -19.421875 1.1875 -19.453125 L 1.1875 -20.015625 C 1.8125 -19.960938 2.6875 -19.9375 3.8125 -19.9375 C 4.789062 -19.9375 5.59375 -19.960938 6.21875 -20.015625 L 12.4375 -3.640625 L 18.53125 -19.9375 L 19.859375 -19.9375 C 21.378906 -19.9375 22.570312 -19.960938 23.4375 -20.015625 Z M 23.4375 -19.453125 "/></g></g></g><g fill="#000000" fill-opacity="1"><g transform="translate(208.941652, 227.554423)"><g><path d="M 16.03125 -2.375 C 16.488281 -1.207031 17.140625 -0.601562 17.984375 -0.5625 L 17.984375 0 C 17.234375 -0.0507812 16.222656 -0.078125 14.953125 -0.078125 C 13.335938 -0.078125 12.132812 -0.0507812 11.34375 0 L 11.34375 -0.5625 C 12.0625 -0.601562 12.570312 -0.691406 12.875 -0.828125 C 13.1875 -0.972656 13.34375 -1.234375 13.34375 -1.609375 C 13.34375 -1.929688 13.234375 -2.375 13.015625 -2.9375 L 11.28125 -7.578125 L 4.4375 -7.578125 L 3.28125 -4.578125 C 2.90625 -3.554688 2.71875 -2.785156 2.71875 -2.265625 C 2.71875 -1.679688 2.921875 -1.253906 3.328125 -0.984375 C 3.734375 -0.722656 4.347656 -0.582031 5.171875 -0.5625 L 5.171875 0 C 4.097656 -0.0507812 3.015625 -0.078125 1.921875 -0.078125 C 1.078125 -0.078125 0.367188 -0.0507812 -0.203125 0 L -0.203125 -0.5625 C 0.742188 -0.789062 1.488281 -1.613281 2.03125 -3.03125 L 8.6875 -20.171875 L 9.140625 -20.171875 Z M 11.0625 -8.140625 L 7.890625 -16.59375 L 4.671875 -8.140625 Z M 11.0625 -8.140625 "/></g></g></g><g fill="#000000" fill-opacity="1"><g transform="translate(238.059941, 227.554423)"><g><path d="M 16.75 -20.015625 C 16.613281 -18.679688 16.546875 -17.476562 16.546875 -16.40625 C 16.546875 -15.457031 16.570312 -14.679688 16.625 -14.078125 L 15.984375 -14.078125 C 15.828125 -15.535156 15.632812 -16.613281 15.40625 -17.3125 C 15.1875 -18.019531 14.789062 -18.539062 14.21875 -18.875 C 13.65625 -19.207031 12.789062 -19.375 11.625 -19.375 L 10.09375 -19.375 L 10.09375 -3.28125 C 10.09375 -2.488281 10.164062 -1.910156 10.3125 -1.546875 C 10.46875 -1.191406 10.734375 -0.945312 11.109375 -0.8125 C 11.492188 -0.6875 12.109375 -0.601562 12.953125 -0.5625 L 12.953125 0 C 11.972656 -0.0507812 10.585938 -0.078125 8.796875 -0.078125 C 6.910156 -0.078125 5.515625 -0.0507812 4.609375 0 L 4.609375 -0.5625 C 5.453125 -0.601562 6.0625 -0.6875 6.4375 -0.8125 C 6.820312 -0.945312 7.085938 -1.191406 7.234375 -1.546875 C 7.390625 -1.910156 7.46875 -2.488281 7.46875 -3.28125 L 7.46875 -19.375 L 5.9375 -19.375 C 4.769531 -19.375 3.898438 -19.207031 3.328125 -18.875 C 2.765625 -18.539062 2.367188 -18.019531 2.140625 -17.3125 C 1.921875 -16.613281 1.734375 -15.535156 1.578125 -14.078125 L 0.9375 -14.078125 C 0.988281 -14.679688 1.015625 -15.457031 1.015625 -16.40625 C 1.015625 -17.476562 0.945312 -18.679688 0.8125 -20.015625 C 2.382812 -19.960938 5.046875 -19.9375 8.796875 -19.9375 C 12.523438 -19.9375 15.175781 -19.960938 16.75 -20.015625 Z M 16.75 -20.015625 "/></g></g></g><g fill="#000000" fill-opacity="1"><g transform="translate(266.923838, 227.554423)"><g><path d="M 8.40625 -19.453125 C 7.71875 -19.421875 7.21875 -19.347656 6.90625 -19.234375 C 6.601562 -19.117188 6.394531 -18.898438 6.28125 -18.578125 C 6.164062 -18.253906 6.109375 -17.738281 6.109375 -17.03125 L 6.109375 -3 C 6.109375 -2.28125 6.164062 -1.757812 6.28125 -1.4375 C 6.394531 -1.125 6.601562 -0.910156 6.90625 -0.796875 C 7.21875 -0.679688 7.71875 -0.601562 8.40625 -0.5625 L 8.40625 0 C 7.53125 -0.0507812 6.332031 -0.078125 4.8125 -0.078125 C 3.1875 -0.078125 1.976562 -0.0507812 1.1875 0 L 1.1875 -0.5625 C 1.863281 -0.601562 2.359375 -0.679688 2.671875 -0.796875 C 2.984375 -0.910156 3.195312 -1.125 3.3125 -1.4375 C 3.425781 -1.757812 3.484375 -2.28125 3.484375 -3 L 3.484375 -17.03125 C 3.484375 -17.738281 3.425781 -18.253906 3.3125 -18.578125 C 3.195312 -18.898438 2.984375 -19.117188 2.671875 -19.234375 C 2.359375 -19.347656 1.863281 -19.421875 1.1875 -19.453125 L 1.1875 -20.015625 C 1.976562 -19.960938 3.1875 -19.9375 4.8125 -19.9375 C 6.3125 -19.9375 7.507812 -19.960938 8.40625 -20.015625 Z M 8.40625 -19.453125 "/></g></g></g><g fill="#000000" fill-opacity="1"><g transform="translate(287.816834, 227.554423)"><g><path d="M 10.5 -20.421875 C 12.28125 -20.421875 13.84375 -20.015625 15.1875 -19.203125 C 16.539062 -18.390625 17.585938 -17.210938 18.328125 -15.671875 C 19.078125 -14.140625 19.453125 -12.3125 19.453125 -10.1875 C 19.453125 -8.101562 19.070312 -6.257812 18.3125 -4.65625 C 17.550781 -3.0625 16.484375 -1.820312 15.109375 -0.9375 C 13.742188 -0.0507812 12.195312 0.390625 10.46875 0.390625 C 8.675781 0.390625 7.101562 -0.0078125 5.75 -0.8125 C 4.40625 -1.625 3.359375 -2.796875 2.609375 -4.328125 C 1.867188 -5.867188 1.5 -7.707031 1.5 -9.84375 C 1.5 -11.914062 1.878906 -13.753906 2.640625 -15.359375 C 3.410156 -16.960938 4.476562 -18.207031 5.84375 -19.09375 C 7.207031 -19.976562 8.757812 -20.421875 10.5 -20.421875 Z M 10.375 -19.90625 C 9.164062 -19.90625 8.101562 -19.484375 7.1875 -18.640625 C 6.28125 -17.804688 5.578125 -16.632812 5.078125 -15.125 C 4.578125 -13.625 4.328125 -11.898438 4.328125 -9.953125 C 4.328125 -7.992188 4.601562 -6.269531 5.15625 -4.78125 C 5.71875 -3.289062 6.46875 -2.140625 7.40625 -1.328125 C 8.351562 -0.515625 9.410156 -0.109375 10.578125 -0.109375 C 11.785156 -0.109375 12.84375 -0.523438 13.75 -1.359375 C 14.664062 -2.203125 15.375 -3.378906 15.875 -4.890625 C 16.375 -6.398438 16.625 -8.125 16.625 -10.0625 C 16.625 -12.03125 16.34375 -13.757812 15.78125 -15.25 C 15.226562 -16.738281 14.476562 -17.882812 13.53125 -18.6875 C 12.59375 -19.5 11.539062 -19.90625 10.375 -19.90625 Z M 10.375 -19.90625 "/></g></g></g><g fill="#000000" fill-opacity="1"><g transform="translate(320.0726, 227.554423)"><g><path d="M 18.953125 -19.453125 C 18.285156 -19.421875 17.789062 -19.320312 17.46875 -19.15625 C 17.15625 -19 16.941406 -18.734375 16.828125 -18.359375 C 16.710938 -17.992188 16.65625 -17.457031 16.65625 -16.75 L 16.65625 0.140625 L 16 0.140625 L 4.125 -18.21875 L 4.125 -3.28125 C 4.125 -2.539062 4.1875 -1.992188 4.3125 -1.640625 C 4.4375 -1.285156 4.675781 -1.023438 5.03125 -0.859375 C 5.394531 -0.703125 5.953125 -0.601562 6.703125 -0.5625 L 6.703125 0 C 6.023438 -0.0507812 5.0625 -0.078125 3.8125 -0.078125 C 2.6875 -0.078125 1.8125 -0.0507812 1.1875 0 L 1.1875 -0.5625 C 1.84375 -0.601562 2.332031 -0.703125 2.65625 -0.859375 C 2.976562 -1.023438 3.195312 -1.289062 3.3125 -1.65625 C 3.425781 -2.019531 3.484375 -2.5625 3.484375 -3.28125 L 3.484375 -17.03125 C 3.484375 -17.738281 3.425781 -18.253906 3.3125 -18.578125 C 3.195312 -18.898438 2.984375 -19.117188 2.671875 -19.234375 C 2.359375 -19.347656 1.863281 -19.421875 1.1875 -19.453125 L 1.1875 -20.015625 C 1.8125 -19.960938 2.6875 -19.9375 3.8125 -19.9375 C 4.664062 -19.9375 5.40625 -19.960938 6.03125 -20.015625 L 16 -4.640625 L 16 -16.75 C 16 -17.476562 15.9375 -18.019531 15.8125 -18.375 C 15.695312 -18.738281 15.457031 -19 15.09375 -19.15625 C 14.738281 -19.320312 14.1875 -19.421875 13.4375 -19.453125 L 13.4375 -20.015625 C 14.113281 -19.960938 15.070312 -19.9375 16.3125 -19.9375 C 17.445312 -19.9375 18.328125 -19.960938 18.953125 -20.015625 Z M 18.953125 -19.453125 "/></g></g></g></svg>