<svg xmlns="http://www.w3.org/2000/svg" xmlns:xlink="http://www.w3.org/1999/xlink" width="400" zoomAndPan="magnify" viewBox="0 0 300 149.999998" height="200" preserveAspectRatio="xMidYMid meet" version="1.0"><defs><g/><clipPath id="81d8a8edb3"><path d="M 268.882812 7.746094 L 281.632812 7.746094 L 281.632812 126.996094 L 268.882812 126.996094 Z M 268.882812 7.746094 " clip-rule="nonzero"/></clipPath></defs><g clip-path="url(#81d8a8edb3)"><path fill="#000000" d="M 280.410156 101.570312 C 279.660156 96.546875 278.914062 91.523438 278.394531 86.46875 C 277.871094 81.445312 277.476562 76.398438 277.273438 71.355469 C 277.125 67.726562 277.222656 62.929688 280.75 60.726562 C 281.132812 60.492188 281.230469 59.964844 280.898438 59.644531 C 275.6875 54.660156 274.90625 46.988281 275.558594 40.269531 C 275.972656 35.949219 276.910156 31.691406 277.488281 27.390625 C 278.019531 23.378906 278.402344 19.078125 277.273438 15.121094 C 276.238281 11.492188 273.363281 8.058594 269.226562 7.894531 C 268.882812 7.882812 268.882812 8.382812 269.226562 8.410156 C 273.160156 8.710938 275.664062 12.195312 276.484375 15.636719 C 277.433594 19.648438 276.921875 24.011719 276.304688 28.019531 C 275.152344 35.558594 273.136719 43.125 274.726562 50.742188 C 275.441406 54.164062 276.910156 57.429688 279.320312 60.035156 C 276.6875 62.09375 275.953125 65.566406 275.835938 68.738281 C 275.75 70.898438 275.921875 73.082031 276.046875 75.230469 C 276.199219 77.785156 276.390625 80.335938 276.625 82.878906 C 277.082031 87.957031 277.691406 93.03125 278.457031 98.074219 C 279.203125 103.039062 280.132812 108.042969 279.695312 113.066406 C 279.300781 117.65625 277.59375 122.121094 274.152344 125.375 C 273.523438 125.964844 274.460938 126.855469 275.097656 126.296875 C 278.246094 123.628906 280.003906 119.660156 280.75 115.730469 C 281.632812 111.050781 281.101562 106.261719 280.410156 101.570312 Z M 280.410156 101.570312 " fill-opacity="1" fill-rule="nonzero"/></g><g fill="#000000" fill-opacity="1"><g transform="translate(41.472656, 78.130452)"><g><path d="M 14.875 -28.953125 C 16.476562 -28.953125 17.835938 -28.722656 18.953125 -28.265625 C 20.078125 -27.804688 21.175781 -27.164062 22.25 -26.34375 C 22.539062 -26.101562 22.796875 -25.984375 23.015625 -25.984375 C 23.546875 -25.984375 23.894531 -26.785156 24.0625 -28.390625 L 24.984375 -28.390625 C 24.867188 -26.648438 24.8125 -23.578125 24.8125 -19.171875 L 23.890625 -19.171875 C 23.597656 -20.898438 23.332031 -22.144531 23.09375 -22.90625 C 22.851562 -23.675781 22.453125 -24.40625 21.890625 -25.09375 C 21.085938 -26.132812 20.0625 -26.914062 18.8125 -27.4375 C 17.570312 -27.957031 16.234375 -28.21875 14.796875 -28.21875 C 13.054688 -28.21875 11.535156 -27.644531 10.234375 -26.5 C 8.941406 -25.351562 7.9375 -23.71875 7.21875 -21.59375 C 6.5 -19.46875 6.140625 -16.972656 6.140625 -14.109375 C 6.140625 -11.203125 6.523438 -8.703125 7.296875 -6.609375 C 8.066406 -4.523438 9.140625 -2.941406 10.515625 -1.859375 C 11.898438 -0.773438 13.460938 -0.234375 15.203125 -0.234375 C 16.535156 -0.234375 17.828125 -0.488281 19.078125 -1 C 20.335938 -1.507812 21.328125 -2.269531 22.046875 -3.28125 C 22.585938 -4.03125 22.976562 -4.832031 23.21875 -5.6875 C 23.457031 -6.539062 23.679688 -7.851562 23.890625 -9.625 L 24.8125 -9.625 C 24.8125 -5.019531 24.867188 -1.8125 24.984375 0 L 24.0625 0 C 23.976562 -0.851562 23.863281 -1.457031 23.71875 -1.8125 C 23.570312 -2.175781 23.363281 -2.359375 23.09375 -2.359375 C 22.875 -2.359375 22.59375 -2.253906 22.25 -2.046875 C 21.050781 -1.191406 19.898438 -0.539062 18.796875 -0.09375 C 17.703125 0.34375 16.378906 0.5625 14.828125 0.5625 C 12.296875 0.5625 10.070312 -0.0078125 8.15625 -1.15625 C 6.25 -2.3125 4.765625 -3.976562 3.703125 -6.15625 C 2.648438 -8.332031 2.125 -10.929688 2.125 -13.953125 C 2.125 -16.890625 2.664062 -19.492188 3.75 -21.765625 C 4.832031 -24.035156 6.34375 -25.800781 8.28125 -27.0625 C 10.21875 -28.320312 12.414062 -28.953125 14.875 -28.953125 Z M 14.875 -28.953125 "/></g></g></g><g fill="#000000" fill-opacity="1"><g transform="translate(69.046393, 78.130452)"><g><path d="M 10.984375 -21.203125 C 13.710938 -21.203125 15.910156 -20.300781 17.578125 -18.5 C 19.253906 -16.695312 20.09375 -13.960938 20.09375 -10.296875 C 20.09375 -6.640625 19.253906 -3.914062 17.578125 -2.125 C 15.910156 -0.332031 13.710938 0.5625 10.984375 0.5625 C 8.253906 0.5625 6.054688 -0.332031 4.390625 -2.125 C 2.722656 -3.914062 1.890625 -6.640625 1.890625 -10.296875 C 1.890625 -13.960938 2.722656 -16.695312 4.390625 -18.5 C 6.054688 -20.300781 8.253906 -21.203125 10.984375 -21.203125 Z M 10.984375 -20.40625 C 9.378906 -20.40625 8.109375 -19.582031 7.171875 -17.9375 C 6.242188 -16.289062 5.78125 -13.742188 5.78125 -10.296875 C 5.78125 -6.847656 6.242188 -4.304688 7.171875 -2.671875 C 8.109375 -1.046875 9.378906 -0.234375 10.984375 -0.234375 C 12.585938 -0.234375 13.859375 -1.046875 14.796875 -2.671875 C 15.734375 -4.304688 16.203125 -6.847656 16.203125 -10.296875 C 16.203125 -13.742188 15.734375 -16.289062 14.796875 -17.9375 C 13.859375 -19.582031 12.585938 -20.40625 10.984375 -20.40625 Z M 10.984375 -20.40625 "/></g></g></g><g fill="#000000" fill-opacity="1"><g transform="translate(91.009194, 78.130452)"><g><path d="M 14.640625 -21.203125 C 16.503906 -21.203125 17.921875 -20.695312 18.890625 -19.6875 C 19.390625 -19.15625 19.742188 -18.488281 19.953125 -17.6875 C 20.171875 -16.882812 20.28125 -15.800781 20.28125 -14.4375 L 20.28125 -3.734375 C 20.28125 -2.628906 20.507812 -1.867188 20.96875 -1.453125 C 21.425781 -1.046875 22.210938 -0.84375 23.328125 -0.84375 L 23.328125 0 C 20.867188 -0.101562 19.265625 -0.15625 18.515625 -0.15625 C 17.773438 -0.15625 16.28125 -0.101562 14.03125 0 L 14.03125 -0.84375 C 15.019531 -0.84375 15.707031 -1.046875 16.09375 -1.453125 C 16.476562 -1.867188 16.671875 -2.628906 16.671875 -3.734375 L 16.671875 -15.3125 C 16.671875 -16.8125 16.457031 -17.953125 16.03125 -18.734375 C 15.601562 -19.523438 14.738281 -19.921875 13.4375 -19.921875 C 12.332031 -19.921875 11.351562 -19.597656 10.5 -18.953125 C 9.644531 -18.316406 8.984375 -17.441406 8.515625 -16.328125 C 8.046875 -15.222656 7.8125 -13.988281 7.8125 -12.625 L 7.8125 -3.734375 C 7.8125 -2.628906 8.003906 -1.867188 8.390625 -1.453125 C 8.785156 -1.046875 9.476562 -0.84375 10.46875 -0.84375 L 10.46875 0 C 8.21875 -0.101562 6.71875 -0.15625 5.96875 -0.15625 C 5.21875 -0.15625 3.613281 -0.101562 1.15625 0 L 1.15625 -0.84375 C 2.28125 -0.84375 3.066406 -1.046875 3.515625 -1.453125 C 3.972656 -1.867188 4.203125 -2.628906 4.203125 -3.734375 L 4.203125 -16.28125 C 4.203125 -17.507812 3.972656 -18.40625 3.515625 -18.96875 C 3.066406 -19.53125 2.28125 -19.8125 1.15625 -19.8125 L 1.15625 -20.640625 C 2.019531 -20.566406 2.851562 -20.53125 3.65625 -20.53125 C 5.332031 -20.53125 6.71875 -20.71875 7.8125 -21.09375 L 7.8125 -16.359375 C 8.488281 -18.066406 9.421875 -19.300781 10.609375 -20.0625 C 11.796875 -20.820312 13.140625 -21.203125 14.640625 -21.203125 Z M 14.640625 -21.203125 "/></g></g></g><g fill="#000000" fill-opacity="1"><g transform="translate(114.935825, 78.130452)"><g><path d="M 7.625 -20.609375 L 13.546875 -20.609375 L 13.546875 -19.8125 L 7.625 -19.8125 L 7.625 -4.296875 C 7.625 -3.085938 7.84375 -2.210938 8.28125 -1.671875 C 8.71875 -1.140625 9.351562 -0.875 10.1875 -0.875 C 11.007812 -0.875 11.710938 -1.207031 12.296875 -1.875 C 12.890625 -2.550781 13.390625 -3.648438 13.796875 -5.171875 L 14.59375 -4.96875 C 13.925781 -1.28125 12.1875 0.5625 9.375 0.5625 C 8.46875 0.5625 7.71875 0.453125 7.125 0.234375 C 6.539062 0.0234375 6.023438 -0.304688 5.578125 -0.765625 C 4.984375 -1.347656 4.570312 -2.066406 4.34375 -2.921875 C 4.125 -3.773438 4.015625 -4.925781 4.015625 -6.375 L 4.015625 -19.8125 L 0.15625 -19.8125 L 0.15625 -20.609375 L 4.015625 -20.609375 L 4.015625 -26.75 C 5.503906 -26.800781 6.707031 -26.984375 7.625 -27.296875 Z M 7.625 -20.609375 "/></g></g></g><g fill="#000000" fill-opacity="1"><g transform="translate(129.123476, 78.130452)"><g><path d="M 13.625 -21.203125 C 14.695312 -21.203125 15.570312 -20.894531 16.25 -20.28125 C 16.9375 -19.664062 17.28125 -18.921875 17.28125 -18.046875 C 17.28125 -17.347656 17.070312 -16.75 16.65625 -16.25 C 16.238281 -15.757812 15.6875 -15.515625 15 -15.515625 C 14.40625 -15.515625 13.898438 -15.703125 13.484375 -16.078125 C 13.078125 -16.453125 12.875 -16.957031 12.875 -17.59375 C 12.875 -18.476562 13.328125 -19.203125 14.234375 -19.765625 C 14.046875 -20.035156 13.765625 -20.171875 13.390625 -20.171875 C 12.347656 -20.171875 11.398438 -19.757812 10.546875 -18.9375 C 9.691406 -18.125 9.019531 -17.128906 8.53125 -15.953125 C 8.050781 -14.773438 7.8125 -13.664062 7.8125 -12.625 L 7.8125 -4.125 C 7.8125 -2.894531 8.164062 -2.039062 8.875 -1.5625 C 9.582031 -1.082031 10.644531 -0.84375 12.0625 -0.84375 L 12.0625 0 L 11.109375 -0.046875 C 8.378906 -0.117188 6.640625 -0.15625 5.890625 -0.15625 C 5.191406 -0.15625 3.613281 -0.101562 1.15625 0 L 1.15625 -0.84375 C 2.28125 -0.84375 3.066406 -1.046875 3.515625 -1.453125 C 3.972656 -1.867188 4.203125 -2.628906 4.203125 -3.734375 L 4.203125 -16.28125 C 4.203125 -17.507812 3.972656 -18.40625 3.515625 -18.96875 C 3.066406 -19.53125 2.28125 -19.8125 1.15625 -19.8125 L 1.15625 -20.640625 C 2.019531 -20.566406 2.851562 -20.53125 3.65625 -20.53125 C 5.332031 -20.53125 6.71875 -20.71875 7.8125 -21.09375 L 7.8125 -16.078125 C 8.300781 -17.410156 9.070312 -18.597656 10.125 -19.640625 C 11.175781 -20.679688 12.34375 -21.203125 13.625 -21.203125 Z M 13.625 -21.203125 "/></g></g></g><g fill="#000000" fill-opacity="1"><g transform="translate(146.958234, 78.130452)"><g><path d="M 5.734375 -30.671875 C 6.429688 -30.671875 7.03125 -30.414062 7.53125 -29.90625 C 8.039062 -29.394531 8.296875 -28.796875 8.296875 -28.109375 C 8.296875 -27.410156 8.039062 -26.804688 7.53125 -26.296875 C 7.03125 -25.796875 6.429688 -25.546875 5.734375 -25.546875 C 5.035156 -25.546875 4.429688 -25.796875 3.921875 -26.296875 C 3.421875 -26.804688 3.171875 -27.410156 3.171875 -28.109375 C 3.171875 -28.796875 3.421875 -29.394531 3.921875 -29.90625 C 4.429688 -30.414062 5.035156 -30.671875 5.734375 -30.671875 Z M 7.8125 -3.734375 C 7.8125 -2.628906 8.039062 -1.867188 8.5 -1.453125 C 8.957031 -1.046875 9.742188 -0.84375 10.859375 -0.84375 L 10.859375 0 C 8.398438 -0.101562 6.785156 -0.15625 6.015625 -0.15625 C 5.234375 -0.15625 3.613281 -0.101562 1.15625 0 L 1.15625 -0.84375 C 2.28125 -0.84375 3.066406 -1.046875 3.515625 -1.453125 C 3.972656 -1.867188 4.203125 -2.628906 4.203125 -3.734375 L 4.203125 -16.28125 C 4.203125 -17.507812 3.972656 -18.40625 3.515625 -18.96875 C 3.066406 -19.53125 2.28125 -19.8125 1.15625 -19.8125 L 1.15625 -20.640625 C 2.019531 -20.566406 2.851562 -20.53125 3.65625 -20.53125 C 5.332031 -20.53125 6.71875 -20.71875 7.8125 -21.09375 Z M 7.8125 -3.734375 "/></g></g></g><g fill="#000000" fill-opacity="1"><g transform="translate(158.701119, 78.130452)"><g><path d="M 13.078125 -21.203125 C 15.347656 -21.203125 17.179688 -20.265625 18.578125 -18.390625 C 19.984375 -16.523438 20.6875 -13.828125 20.6875 -10.296875 C 20.6875 -7.972656 20.285156 -5.992188 19.484375 -4.359375 C 18.679688 -2.734375 17.601562 -1.503906 16.25 -0.671875 C 14.90625 0.148438 13.40625 0.5625 11.75 0.5625 C 10.757812 0.5625 9.800781 0.363281 8.875 -0.03125 C 7.957031 -0.4375 7.148438 -1.015625 6.453125 -1.765625 L 3.609375 0.640625 L 2.921875 0.359375 C 3.109375 -0.304688 3.203125 -1.082031 3.203125 -1.96875 L 3.203125 -26.578125 C 3.203125 -27.804688 2.972656 -28.703125 2.515625 -29.265625 C 2.066406 -29.828125 1.28125 -30.109375 0.15625 -30.109375 L 0.15625 -30.953125 C 1.007812 -30.867188 1.835938 -30.828125 2.640625 -30.828125 C 4.328125 -30.828125 5.71875 -31.015625 6.8125 -31.390625 L 6.8125 -16.921875 C 7.40625 -18.285156 8.253906 -19.335938 9.359375 -20.078125 C 10.472656 -20.828125 11.710938 -21.203125 13.078125 -21.203125 Z M 11.421875 -0.359375 C 13.210938 -0.359375 14.554688 -1.164062 15.453125 -2.78125 C 16.347656 -4.40625 16.796875 -6.910156 16.796875 -10.296875 C 16.796875 -13.566406 16.394531 -16 15.59375 -17.59375 C 14.789062 -19.195312 13.5625 -20 11.90625 -20 C 10.78125 -20 9.75 -19.566406 8.8125 -18.703125 C 7.882812 -17.835938 7.21875 -16.613281 6.8125 -15.03125 L 6.8125 -2.328125 C 7.425781 -1.679688 8.132812 -1.191406 8.9375 -0.859375 C 9.738281 -0.523438 10.566406 -0.359375 11.421875 -0.359375 Z M 11.421875 -0.359375 "/></g></g></g><g fill="#000000" fill-opacity="1"><g transform="translate(181.26509, 78.130452)"><g><path d="M 19.359375 -4.328125 C 19.359375 -3.097656 19.585938 -2.203125 20.046875 -1.640625 C 20.503906 -1.078125 21.289062 -0.796875 22.40625 -0.796875 L 22.40625 0.046875 C 21.582031 -0.0351562 20.753906 -0.078125 19.921875 -0.078125 C 18.242188 -0.078125 16.851562 0.109375 15.75 0.484375 L 15.75 -4.25 C 15.113281 -2.59375 14.207031 -1.375 13.03125 -0.59375 C 11.851562 0.175781 10.570312 0.5625 9.1875 0.5625 C 7.363281 0.5625 5.972656 0.0507812 5.015625 -0.96875 C 4.535156 -1.5 4.191406 -2.175781 3.984375 -3 C 3.785156 -3.832031 3.6875 -4.90625 3.6875 -6.21875 L 3.6875 -16.28125 C 3.6875 -17.507812 3.457031 -18.40625 3 -18.96875 C 2.550781 -19.53125 1.765625 -19.8125 0.640625 -19.8125 L 0.640625 -20.640625 C 1.472656 -20.566406 2.300781 -20.53125 3.125 -20.53125 C 4.8125 -20.53125 6.203125 -20.71875 7.296875 -21.09375 L 7.296875 -5.328125 C 7.296875 -4.316406 7.351562 -3.492188 7.46875 -2.859375 C 7.59375 -2.234375 7.875 -1.71875 8.3125 -1.3125 C 8.757812 -0.914062 9.4375 -0.71875 10.34375 -0.71875 C 11.363281 -0.71875 12.285156 -1.035156 13.109375 -1.671875 C 13.941406 -2.316406 14.585938 -3.191406 15.046875 -4.296875 C 15.515625 -5.410156 15.75 -6.640625 15.75 -7.984375 L 15.75 -16.28125 C 15.75 -17.507812 15.519531 -18.40625 15.0625 -18.96875 C 14.613281 -19.53125 13.828125 -19.8125 12.703125 -19.8125 L 12.703125 -20.640625 C 13.535156 -20.566406 14.367188 -20.53125 15.203125 -20.53125 C 16.878906 -20.53125 18.265625 -20.71875 19.359375 -21.09375 Z M 19.359375 -4.328125 "/></g></g></g><g fill="#000000" fill-opacity="1"><g transform="translate(204.550463, 78.130452)"><g><path d="M 7.625 -20.609375 L 13.546875 -20.609375 L 13.546875 -19.8125 L 7.625 -19.8125 L 7.625 -4.296875 C 7.625 -3.085938 7.84375 -2.210938 8.28125 -1.671875 C 8.71875 -1.140625 9.351562 -0.875 10.1875 -0.875 C 11.007812 -0.875 11.710938 -1.207031 12.296875 -1.875 C 12.890625 -2.550781 13.390625 -3.648438 13.796875 -5.171875 L 14.59375 -4.96875 C 13.925781 -1.28125 12.1875 0.5625 9.375 0.5625 C 8.46875 0.5625 7.71875 0.453125 7.125 0.234375 C 6.539062 0.0234375 6.023438 -0.304688 5.578125 -0.765625 C 4.984375 -1.347656 4.570312 -2.066406 4.34375 -2.921875 C 4.125 -3.773438 4.015625 -4.925781 4.015625 -6.375 L 4.015625 -19.8125 L 0.15625 -19.8125 L 0.15625 -20.609375 L 4.015625 -20.609375 L 4.015625 -26.75 C 5.503906 -26.800781 6.707031 -26.984375 7.625 -27.296875 Z M 7.625 -20.609375 "/></g></g></g><g fill="#000000" fill-opacity="1"><g transform="translate(218.738114, 78.130452)"><g><path d="M 10.984375 -21.203125 C 13.710938 -21.203125 15.910156 -20.300781 17.578125 -18.5 C 19.253906 -16.695312 20.09375 -13.960938 20.09375 -10.296875 C 20.09375 -6.640625 19.253906 -3.914062 17.578125 -2.125 C 15.910156 -0.332031 13.710938 0.5625 10.984375 0.5625 C 8.253906 0.5625 6.054688 -0.332031 4.390625 -2.125 C 2.722656 -3.914062 1.890625 -6.640625 1.890625 -10.296875 C 1.890625 -13.960938 2.722656 -16.695312 4.390625 -18.5 C 6.054688 -20.300781 8.253906 -21.203125 10.984375 -21.203125 Z M 10.984375 -20.40625 C 9.378906 -20.40625 8.109375 -19.582031 7.171875 -17.9375 C 6.242188 -16.289062 5.78125 -13.742188 5.78125 -10.296875 C 5.78125 -6.847656 6.242188 -4.304688 7.171875 -2.671875 C 8.109375 -1.046875 9.378906 -0.234375 10.984375 -0.234375 C 12.585938 -0.234375 13.859375 -1.046875 14.796875 -2.671875 C 15.734375 -4.304688 16.203125 -6.847656 16.203125 -10.296875 C 16.203125 -13.742188 15.734375 -16.289062 14.796875 -17.9375 C 13.859375 -19.582031 12.585938 -20.40625 10.984375 -20.40625 Z M 10.984375 -20.40625 "/></g></g></g><g fill="#000000" fill-opacity="1"><g transform="translate(240.700916, 78.130452)"><g><path d="M 13.625 -21.203125 C 14.695312 -21.203125 15.570312 -20.894531 16.25 -20.28125 C 16.9375 -19.664062 17.28125 -18.921875 17.28125 -18.046875 C 17.28125 -17.347656 17.070312 -16.75 16.65625 -16.25 C 16.238281 -15.757812 15.6875 -15.515625 15 -15.515625 C 14.40625 -15.515625 13.898438 -15.703125 13.484375 -16.078125 C 13.078125 -16.453125 12.875 -16.957031 12.875 -17.59375 C 12.875 -18.476562 13.328125 -19.203125 14.234375 -19.765625 C 14.046875 -20.035156 13.765625 -20.171875 13.390625 -20.171875 C 12.347656 -20.171875 11.398438 -19.757812 10.546875 -18.9375 C 9.691406 -18.125 9.019531 -17.128906 8.53125 -15.953125 C 8.050781 -14.773438 7.8125 -13.664062 7.8125 -12.625 L 7.8125 -4.125 C 7.8125 -2.894531 8.164062 -2.039062 8.875 -1.5625 C 9.582031 -1.082031 10.644531 -0.84375 12.0625 -0.84375 L 12.0625 0 L 11.109375 -0.046875 C 8.378906 -0.117188 6.640625 -0.15625 5.890625 -0.15625 C 5.191406 -0.15625 3.613281 -0.101562 1.15625 0 L 1.15625 -0.84375 C 2.28125 -0.84375 3.066406 -1.046875 3.515625 -1.453125 C 3.972656 -1.867188 4.203125 -2.628906 4.203125 -3.734375 L 4.203125 -16.28125 C 4.203125 -17.507812 3.972656 -18.40625 3.515625 -18.96875 C 3.066406 -19.53125 2.28125 -19.8125 1.15625 -19.8125 L 1.15625 -20.640625 C 2.019531 -20.566406 2.851562 -20.53125 3.65625 -20.53125 C 5.332031 -20.53125 6.71875 -20.71875 7.8125 -21.09375 L 7.8125 -16.078125 C 8.300781 -17.410156 9.070312 -18.597656 10.125 -19.640625 C 11.175781 -20.679688 12.34375 -21.203125 13.625 -21.203125 Z M 13.625 -21.203125 "/></g></g></g><g fill="#000000" fill-opacity="1"><g transform="translate(57.169975, 102.181738)"><g><path d="M 5.046875 -11.703125 C 4.640625 -11.679688 4.34375 -11.632812 4.15625 -11.5625 C 3.96875 -11.5 3.835938 -11.367188 3.765625 -11.171875 C 3.703125 -10.984375 3.671875 -10.675781 3.671875 -10.25 L 3.671875 -1.796875 C 3.671875 -1.367188 3.703125 -1.054688 3.765625 -0.859375 C 3.835938 -0.671875 3.96875 -0.539062 4.15625 -0.46875 C 4.34375 -0.40625 4.640625 -0.363281 5.046875 -0.34375 L 5.046875 0 C 4.523438 -0.03125 3.804688 -0.046875 2.890625 -0.046875 C 1.910156 -0.046875 1.1875 -0.03125 0.71875 0 L 0.71875 -0.34375 C 1.125 -0.363281 1.421875 -0.40625 1.609375 -0.46875 C 1.796875 -0.539062 1.921875 -0.671875 1.984375 -0.859375 C 2.054688 -1.054688 2.09375 -1.367188 2.09375 -1.796875 L 2.09375 -10.25 C 2.09375 -10.675781 2.054688 -10.984375 1.984375 -11.171875 C 1.921875 -11.367188 1.796875 -11.5 1.609375 -11.5625 C 1.421875 -11.632812 1.125 -11.679688 0.71875 -11.703125 L 0.71875 -12.046875 C 1.1875 -12.015625 1.910156 -12 2.890625 -12 C 3.796875 -12 4.515625 -12.015625 5.046875 -12.046875 Z M 5.046875 -11.703125 "/></g></g></g><g fill="#000000" fill-opacity="1"><g transform="translate(69.745984, 102.181738)"><g><path d="M 11.40625 -11.703125 C 11.007812 -11.679688 10.710938 -11.625 10.515625 -11.53125 C 10.316406 -11.4375 10.179688 -11.273438 10.109375 -11.046875 C 10.046875 -10.828125 10.015625 -10.503906 10.015625 -10.078125 L 10.015625 0.078125 L 9.625 0.078125 L 2.484375 -10.953125 L 2.484375 -1.96875 C 2.484375 -1.53125 2.519531 -1.203125 2.59375 -0.984375 C 2.664062 -0.765625 2.8125 -0.609375 3.03125 -0.515625 C 3.25 -0.421875 3.582031 -0.363281 4.03125 -0.34375 L 4.03125 0 C 3.625 -0.03125 3.046875 -0.046875 2.296875 -0.046875 C 1.617188 -0.046875 1.09375 -0.03125 0.71875 0 L 0.71875 -0.34375 C 1.113281 -0.363281 1.40625 -0.421875 1.59375 -0.515625 C 1.789062 -0.609375 1.921875 -0.765625 1.984375 -0.984375 C 2.054688 -1.210938 2.09375 -1.539062 2.09375 -1.96875 L 2.09375 -10.25 C 2.09375 -10.675781 2.054688 -10.984375 1.984375 -11.171875 C 1.921875 -11.367188 1.796875 -11.5 1.609375 -11.5625 C 1.421875 -11.632812 1.125 -11.679688 0.71875 -11.703125 L 0.71875 -12.046875 C 1.09375 -12.015625 1.617188 -12 2.296875 -12 C 2.804688 -12 3.25 -12.015625 3.625 -12.046875 L 9.625 -2.796875 L 9.625 -10.078125 C 9.625 -10.515625 9.585938 -10.84375 9.515625 -11.0625 C 9.441406 -11.28125 9.296875 -11.4375 9.078125 -11.53125 C 8.867188 -11.625 8.535156 -11.679688 8.078125 -11.703125 L 8.078125 -12.046875 C 8.484375 -12.015625 9.0625 -12 9.8125 -12 C 10.5 -12 11.03125 -12.015625 11.40625 -12.046875 Z M 11.40625 -11.703125 "/></g></g></g><g fill="#000000" fill-opacity="1"><g transform="translate(88.565567, 102.181738)"><g><path d="M 9.203125 -12.046875 C 9.128906 -11.242188 9.09375 -10.519531 9.09375 -9.875 C 9.09375 -9.300781 9.109375 -8.832031 9.140625 -8.46875 L 8.75 -8.46875 C 8.65625 -9.34375 8.539062 -9.992188 8.40625 -10.421875 C 8.269531 -10.847656 8.03125 -11.160156 7.6875 -11.359375 C 7.351562 -11.554688 6.832031 -11.65625 6.125 -11.65625 L 5.046875 -11.65625 C 4.640625 -11.65625 4.34375 -11.625 4.15625 -11.5625 C 3.96875 -11.5 3.835938 -11.367188 3.765625 -11.171875 C 3.703125 -10.984375 3.671875 -10.675781 3.671875 -10.25 L 3.671875 -6.0625 L 4.921875 -6.0625 C 5.316406 -6.0625 5.617188 -6.15625 5.828125 -6.34375 C 6.046875 -6.53125 6.191406 -6.75 6.265625 -7 C 6.335938 -7.257812 6.398438 -7.582031 6.453125 -7.96875 L 6.5 -8.296875 L 6.890625 -8.296875 C 6.859375 -7.828125 6.84375 -7.296875 6.84375 -6.703125 L 6.84375 -5.890625 C 6.84375 -5.304688 6.875 -4.5 6.9375 -3.46875 L 6.546875 -3.46875 C 6.535156 -3.550781 6.5 -3.828125 6.4375 -4.296875 C 6.382812 -4.765625 6.226562 -5.117188 5.96875 -5.359375 C 5.71875 -5.597656 5.367188 -5.71875 4.921875 -5.71875 L 3.671875 -5.71875 L 3.671875 -1.796875 C 3.671875 -1.367188 3.71875 -1.054688 3.8125 -0.859375 C 3.90625 -0.671875 4.0625 -0.539062 4.28125 -0.46875 C 4.507812 -0.40625 4.878906 -0.363281 5.390625 -0.34375 L 5.390625 0 C 4.804688 -0.03125 3.972656 -0.046875 2.890625 -0.046875 C 1.910156 -0.046875 1.1875 -0.03125 0.71875 0 L 0.71875 -0.34375 C 1.125 -0.363281 1.421875 -0.40625 1.609375 -0.46875 C 1.796875 -0.539062 1.921875 -0.671875 1.984375 -0.859375 C 2.054688 -1.054688 2.09375 -1.367188 2.09375 -1.796875 L 2.09375 -10.25 C 2.09375 -10.675781 2.054688 -10.984375 1.984375 -11.171875 C 1.921875 -11.367188 1.796875 -11.5 1.609375 -11.5625 C 1.421875 -11.632812 1.125 -11.679688 0.71875 -11.703125 L 0.71875 -12.046875 C 1.820312 -12.015625 3.46875 -12 5.65625 -12 C 7.320312 -12 8.503906 -12.015625 9.203125 -12.046875 Z M 9.203125 -12.046875 "/></g></g></g><g fill="#000000" fill-opacity="1"><g transform="translate(105.05444, 102.181738)"><g><path d="M 6.3125 -12.28125 C 7.382812 -12.28125 8.328125 -12.035156 9.140625 -11.546875 C 9.953125 -11.066406 10.582031 -10.363281 11.03125 -9.4375 C 11.476562 -8.507812 11.703125 -7.40625 11.703125 -6.125 C 11.703125 -4.875 11.472656 -3.765625 11.015625 -2.796875 C 10.554688 -1.835938 9.914062 -1.09375 9.09375 -0.5625 C 8.269531 -0.03125 7.335938 0.234375 6.296875 0.234375 C 5.210938 0.234375 4.265625 -0.00390625 3.453125 -0.484375 C 2.648438 -0.972656 2.023438 -1.679688 1.578125 -2.609375 C 1.128906 -3.535156 0.90625 -4.640625 0.90625 -5.921875 C 0.90625 -7.171875 1.132812 -8.273438 1.59375 -9.234375 C 2.050781 -10.203125 2.691406 -10.953125 3.515625 -11.484375 C 4.335938 -12.015625 5.269531 -12.28125 6.3125 -12.28125 Z M 6.25 -11.984375 C 5.519531 -11.984375 4.878906 -11.726562 4.328125 -11.21875 C 3.773438 -10.71875 3.347656 -10.007812 3.046875 -9.09375 C 2.753906 -8.1875 2.609375 -7.148438 2.609375 -5.984375 C 2.609375 -4.804688 2.773438 -3.769531 3.109375 -2.875 C 3.441406 -1.976562 3.890625 -1.285156 4.453125 -0.796875 C 5.023438 -0.304688 5.660156 -0.0625 6.359375 -0.0625 C 7.085938 -0.0625 7.726562 -0.3125 8.28125 -0.8125 C 8.832031 -1.320312 9.253906 -2.03125 9.546875 -2.9375 C 9.847656 -3.851562 10 -4.894531 10 -6.0625 C 10 -7.238281 9.832031 -8.273438 9.5 -9.171875 C 9.164062 -10.066406 8.710938 -10.757812 8.140625 -11.25 C 7.578125 -11.738281 6.945312 -11.984375 6.25 -11.984375 Z M 6.25 -11.984375 "/></g></g></g><g fill="#000000" fill-opacity="1"><g transform="translate(124.469461, 102.181738)"><g><path d="M 11.234375 -0.84375 C 10.972656 -0.457031 10.710938 -0.179688 10.453125 -0.015625 C 10.191406 0.148438 9.84375 0.234375 9.40625 0.234375 C 8.945312 0.234375 8.566406 0.0976562 8.265625 -0.171875 C 7.960938 -0.441406 7.738281 -0.914062 7.59375 -1.59375 L 7.21875 -3.296875 C 7.082031 -3.890625 6.953125 -4.34375 6.828125 -4.65625 C 6.710938 -4.976562 6.535156 -5.234375 6.296875 -5.421875 C 6.054688 -5.617188 5.722656 -5.71875 5.296875 -5.71875 L 3.671875 -5.71875 L 3.671875 -1.796875 C 3.671875 -1.367188 3.703125 -1.054688 3.765625 -0.859375 C 3.835938 -0.671875 3.96875 -0.539062 4.15625 -0.46875 C 4.34375 -0.40625 4.640625 -0.363281 5.046875 -0.34375 L 5.046875 0 C 4.523438 -0.03125 3.804688 -0.046875 2.890625 -0.046875 C 1.910156 -0.046875 1.1875 -0.03125 0.71875 0 L 0.71875 -0.34375 C 1.125 -0.363281 1.421875 -0.40625 1.609375 -0.46875 C 1.796875 -0.539062 1.921875 -0.671875 1.984375 -0.859375 C 2.054688 -1.054688 2.09375 -1.367188 2.09375 -1.796875 L 2.09375 -10.25 C 2.09375 -10.675781 2.054688 -10.984375 1.984375 -11.171875 C 1.921875 -11.367188 1.796875 -11.5 1.609375 -11.5625 C 1.421875 -11.632812 1.125 -11.679688 0.71875 -11.703125 L 0.71875 -12.046875 C 1.1875 -12.015625 1.878906 -12 2.796875 -12 L 4.625 -12.015625 C 4.84375 -12.023438 5.085938 -12.03125 5.359375 -12.03125 C 6.671875 -12.03125 7.679688 -11.753906 8.390625 -11.203125 C 9.097656 -10.648438 9.453125 -9.9375 9.453125 -9.0625 C 9.453125 -8.625 9.347656 -8.179688 9.140625 -7.734375 C 8.929688 -7.285156 8.578125 -6.878906 8.078125 -6.515625 C 7.585938 -6.160156 6.945312 -5.921875 6.15625 -5.796875 L 6.359375 -5.765625 C 7.109375 -5.640625 7.65625 -5.410156 8 -5.078125 C 8.34375 -4.753906 8.59375 -4.234375 8.75 -3.515625 L 9.171875 -1.78125 C 9.285156 -1.257812 9.40625 -0.894531 9.53125 -0.6875 C 9.65625 -0.488281 9.828125 -0.390625 10.046875 -0.390625 C 10.234375 -0.390625 10.390625 -0.441406 10.515625 -0.546875 C 10.648438 -0.648438 10.800781 -0.8125 10.96875 -1.03125 Z M 4.9375 -11.703125 C 4.582031 -11.703125 4.316406 -11.660156 4.140625 -11.578125 C 3.960938 -11.503906 3.835938 -11.363281 3.765625 -11.15625 C 3.703125 -10.957031 3.671875 -10.65625 3.671875 -10.25 L 3.671875 -6.0625 L 4.8125 -6.0625 C 5.9375 -6.0625 6.707031 -6.3125 7.125 -6.8125 C 7.550781 -7.3125 7.765625 -8 7.765625 -8.875 C 7.765625 -9.8125 7.539062 -10.515625 7.09375 -10.984375 C 6.65625 -11.460938 5.9375 -11.703125 4.9375 -11.703125 Z M 4.9375 -11.703125 "/></g></g></g><g fill="#000000" fill-opacity="1"><g transform="translate(142.302323, 102.181738)"><g><path d="M 14.109375 -11.703125 C 13.703125 -11.679688 13.40625 -11.632812 13.21875 -11.5625 C 13.03125 -11.5 12.898438 -11.367188 12.828125 -11.171875 C 12.765625 -10.984375 12.734375 -10.675781 12.734375 -10.25 L 12.734375 -1.796875 C 12.734375 -1.367188 12.765625 -1.054688 12.828125 -0.859375 C 12.898438 -0.671875 13.03125 -0.539062 13.21875 -0.46875 C 13.40625 -0.40625 13.703125 -0.363281 14.109375 -0.34375 L 14.109375 0 C 13.585938 -0.03125 12.863281 -0.046875 11.9375 -0.046875 C 10.96875 -0.046875 10.242188 -0.03125 9.765625 0 L 9.765625 -0.34375 C 10.171875 -0.363281 10.46875 -0.40625 10.65625 -0.46875 C 10.84375 -0.539062 10.96875 -0.671875 11.03125 -0.859375 C 11.101562 -1.054688 11.140625 -1.367188 11.140625 -1.796875 L 11.140625 -10.921875 L 7.046875 0.078125 L 6.765625 0.078125 L 2.484375 -10.953125 L 2.484375 -1.96875 C 2.484375 -1.53125 2.519531 -1.203125 2.59375 -0.984375 C 2.664062 -0.765625 2.8125 -0.609375 3.03125 -0.515625 C 3.25 -0.421875 3.582031 -0.363281 4.03125 -0.34375 L 4.03125 0 C 3.625 -0.03125 3.046875 -0.046875 2.296875 -0.046875 C 1.617188 -0.046875 1.09375 -0.03125 0.71875 0 L 0.71875 -0.34375 C 1.113281 -0.363281 1.40625 -0.421875 1.59375 -0.515625 C 1.789062 -0.609375 1.921875 -0.765625 1.984375 -0.984375 C 2.054688 -1.210938 2.09375 -1.539062 2.09375 -1.96875 L 2.09375 -10.25 C 2.09375 -10.675781 2.054688 -10.984375 1.984375 -11.171875 C 1.921875 -11.367188 1.796875 -11.5 1.609375 -11.5625 C 1.421875 -11.632812 1.125 -11.679688 0.71875 -11.703125 L 0.71875 -12.046875 C 1.09375 -12.015625 1.617188 -12 2.296875 -12 C 2.890625 -12 3.375 -12.015625 3.75 -12.046875 L 7.484375 -2.1875 L 11.140625 -12 L 11.9375 -12 C 12.863281 -12 13.585938 -12.015625 14.109375 -12.046875 Z M 14.109375 -11.703125 "/></g></g></g><g fill="#000000" fill-opacity="1"><g transform="translate(163.928973, 102.181738)"><g><path d="M 9.640625 -1.421875 C 9.921875 -0.722656 10.316406 -0.363281 10.828125 -0.34375 L 10.828125 0 C 10.367188 -0.03125 9.757812 -0.046875 9 -0.046875 C 8.019531 -0.046875 7.296875 -0.03125 6.828125 0 L 6.828125 -0.34375 C 7.253906 -0.363281 7.5625 -0.414062 7.75 -0.5 C 7.9375 -0.582031 8.03125 -0.738281 8.03125 -0.96875 C 8.03125 -1.164062 7.960938 -1.429688 7.828125 -1.765625 L 6.796875 -4.5625 L 2.671875 -4.5625 L 1.96875 -2.75 C 1.75 -2.144531 1.640625 -1.679688 1.640625 -1.359375 C 1.640625 -1.003906 1.757812 -0.75 2 -0.59375 C 2.238281 -0.4375 2.609375 -0.351562 3.109375 -0.34375 L 3.109375 0 C 2.460938 -0.03125 1.8125 -0.046875 1.15625 -0.046875 C 0.644531 -0.046875 0.21875 -0.03125 -0.125 0 L -0.125 -0.34375 C 0.445312 -0.476562 0.894531 -0.972656 1.21875 -1.828125 L 5.21875 -12.125 L 5.5 -12.125 Z M 6.65625 -4.90625 L 4.75 -9.984375 L 2.8125 -4.90625 Z M 6.65625 -4.90625 "/></g></g></g><g fill="#000000" fill-opacity="1"><g transform="translate(181.455609, 102.181738)"><g><path d="M 10.078125 -12.046875 C 9.992188 -11.242188 9.953125 -10.519531 9.953125 -9.875 C 9.953125 -9.300781 9.96875 -8.832031 10 -8.46875 L 9.609375 -8.46875 C 9.523438 -9.34375 9.410156 -9.992188 9.265625 -10.421875 C 9.128906 -10.847656 8.890625 -11.160156 8.546875 -11.359375 C 8.210938 -11.554688 7.695312 -11.65625 7 -11.65625 L 6.078125 -11.65625 L 6.078125 -1.96875 C 6.078125 -1.5 6.117188 -1.15625 6.203125 -0.9375 C 6.296875 -0.71875 6.457031 -0.566406 6.6875 -0.484375 C 6.914062 -0.410156 7.285156 -0.363281 7.796875 -0.34375 L 7.796875 0 C 7.203125 -0.03125 6.367188 -0.046875 5.296875 -0.046875 C 4.160156 -0.046875 3.320312 -0.03125 2.78125 0 L 2.78125 -0.34375 C 3.289062 -0.363281 3.65625 -0.410156 3.875 -0.484375 C 4.101562 -0.566406 4.257812 -0.71875 4.34375 -0.9375 C 4.4375 -1.15625 4.484375 -1.5 4.484375 -1.96875 L 4.484375 -11.65625 L 3.578125 -11.65625 C 2.867188 -11.65625 2.34375 -11.554688 2 -11.359375 C 1.664062 -11.160156 1.429688 -10.847656 1.296875 -10.421875 C 1.160156 -9.992188 1.046875 -9.34375 0.953125 -8.46875 L 0.5625 -8.46875 C 0.59375 -8.832031 0.609375 -9.300781 0.609375 -9.875 C 0.609375 -10.519531 0.570312 -11.242188 0.5 -12.046875 C 1.4375 -12.015625 3.035156 -12 5.296875 -12 C 7.535156 -12 9.128906 -12.015625 10.078125 -12.046875 Z M 10.078125 -12.046875 "/></g></g></g><g fill="#000000" fill-opacity="1"><g transform="translate(198.829139, 102.181738)"><g><path d="M 5.046875 -11.703125 C 4.640625 -11.679688 4.34375 -11.632812 4.15625 -11.5625 C 3.96875 -11.5 3.835938 -11.367188 3.765625 -11.171875 C 3.703125 -10.984375 3.671875 -10.675781 3.671875 -10.25 L 3.671875 -1.796875 C 3.671875 -1.367188 3.703125 -1.054688 3.765625 -0.859375 C 3.835938 -0.671875 3.96875 -0.539062 4.15625 -0.46875 C 4.34375 -0.40625 4.640625 -0.363281 5.046875 -0.34375 L 5.046875 0 C 4.523438 -0.03125 3.804688 -0.046875 2.890625 -0.046875 C 1.910156 -0.046875 1.1875 -0.03125 0.71875 0 L 0.71875 -0.34375 C 1.125 -0.363281 1.421875 -0.40625 1.609375 -0.46875 C 1.796875 -0.539062 1.921875 -0.671875 1.984375 -0.859375 C 2.054688 -1.054688 2.09375 -1.367188 2.09375 -1.796875 L 2.09375 -10.25 C 2.09375 -10.675781 2.054688 -10.984375 1.984375 -11.171875 C 1.921875 -11.367188 1.796875 -11.5 1.609375 -11.5625 C 1.421875 -11.632812 1.125 -11.679688 0.71875 -11.703125 L 0.71875 -12.046875 C 1.1875 -12.015625 1.910156 -12 2.890625 -12 C 3.796875 -12 4.515625 -12.015625 5.046875 -12.046875 Z M 5.046875 -11.703125 "/></g></g></g><g fill="#000000" fill-opacity="1"><g transform="translate(211.405143, 102.181738)"><g><path d="M 6.3125 -12.28125 C 7.382812 -12.28125 8.328125 -12.035156 9.140625 -11.546875 C 9.953125 -11.066406 10.582031 -10.363281 11.03125 -9.4375 C 11.476562 -8.507812 11.703125 -7.40625 11.703125 -6.125 C 11.703125 -4.875 11.472656 -3.765625 11.015625 -2.796875 C 10.554688 -1.835938 9.914062 -1.09375 9.09375 -0.5625 C 8.269531 -0.03125 7.335938 0.234375 6.296875 0.234375 C 5.210938 0.234375 4.265625 -0.00390625 3.453125 -0.484375 C 2.648438 -0.972656 2.023438 -1.679688 1.578125 -2.609375 C 1.128906 -3.535156 0.90625 -4.640625 0.90625 -5.921875 C 0.90625 -7.171875 1.132812 -8.273438 1.59375 -9.234375 C 2.050781 -10.203125 2.691406 -10.953125 3.515625 -11.484375 C 4.335938 -12.015625 5.269531 -12.28125 6.3125 -12.28125 Z M 6.25 -11.984375 C 5.519531 -11.984375 4.878906 -11.726562 4.328125 -11.21875 C 3.773438 -10.71875 3.347656 -10.007812 3.046875 -9.09375 C 2.753906 -8.1875 2.609375 -7.148438 2.609375 -5.984375 C 2.609375 -4.804688 2.773438 -3.769531 3.109375 -2.875 C 3.441406 -1.976562 3.890625 -1.285156 4.453125 -0.796875 C 5.023438 -0.304688 5.660156 -0.0625 6.359375 -0.0625 C 7.085938 -0.0625 7.726562 -0.3125 8.28125 -0.8125 C 8.832031 -1.320312 9.253906 -2.03125 9.546875 -2.9375 C 9.847656 -3.851562 10 -4.894531 10 -6.0625 C 10 -7.238281 9.832031 -8.273438 9.5 -9.171875 C 9.164062 -10.066406 8.710938 -10.757812 8.140625 -11.25 C 7.578125 -11.738281 6.945312 -11.984375 6.25 -11.984375 Z M 6.25 -11.984375 "/></g></g></g><g fill="#000000" fill-opacity="1"><g transform="translate(230.820157, 102.181738)"><g><path d="M 11.40625 -11.703125 C 11.007812 -11.679688 10.710938 -11.625 10.515625 -11.53125 C 10.316406 -11.4375 10.179688 -11.273438 10.109375 -11.046875 C 10.046875 -10.828125 10.015625 -10.503906 10.015625 -10.078125 L 10.015625 0.078125 L 9.625 0.078125 L 2.484375 -10.953125 L 2.484375 -1.96875 C 2.484375 -1.53125 2.519531 -1.203125 2.59375 -0.984375 C 2.664062 -0.765625 2.8125 -0.609375 3.03125 -0.515625 C 3.25 -0.421875 3.582031 -0.363281 4.03125 -0.34375 L 4.03125 0 C 3.625 -0.03125 3.046875 -0.046875 2.296875 -0.046875 C 1.617188 -0.046875 1.09375 -0.03125 0.71875 0 L 0.71875 -0.34375 C 1.113281 -0.363281 1.40625 -0.421875 1.59375 -0.515625 C 1.789062 -0.609375 1.921875 -0.765625 1.984375 -0.984375 C 2.054688 -1.210938 2.09375 -1.539062 2.09375 -1.96875 L 2.09375 -10.25 C 2.09375 -10.675781 2.054688 -10.984375 1.984375 -11.171875 C 1.921875 -11.367188 1.796875 -11.5 1.609375 -11.5625 C 1.421875 -11.632812 1.125 -11.679688 0.71875 -11.703125 L 0.71875 -12.046875 C 1.09375 -12.015625 1.617188 -12 2.296875 -12 C 2.804688 -12 3.25 -12.015625 3.625 -12.046875 L 9.625 -2.796875 L 9.625 -10.078125 C 9.625 -10.515625 9.585938 -10.84375 9.515625 -11.0625 C 9.441406 -11.28125 9.296875 -11.4375 9.078125 -11.53125 C 8.867188 -11.625 8.535156 -11.679688 8.078125 -11.703125 L 8.078125 -12.046875 C 8.484375 -12.015625 9.0625 -12 9.8125 -12 C 10.5 -12 11.03125 -12.015625 11.40625 -12.046875 Z M 11.40625 -11.703125 "/></g></g></g></svg>