<svg xmlns="http://www.w3.org/2000/svg" xmlns:xlink="http://www.w3.org/1999/xlink" width="500" zoomAndPan="magnify" viewBox="0 0 375 374.999991" height="500" preserveAspectRatio="xMidYMid meet" version="1.0"><defs><g/><clipPath id="7190651a18"><path d="M 375 187.503906 C 375 291.050781 291.050781 375 187.5 375 C 83.945312 375 0 291.050781 0 187.503906 C 0 83.949219 83.945312 0 187.5 0 C 291.054688 0 375 83.949219 375 187.503906 Z M 375 187.503906 " clip-rule="nonzero"/></clipPath></defs><g clip-path="url(#7190651a18)"><rect x="-37.5" width="450" fill="#f2f2f2" y="-37.499999" height="449.999989" fill-opacity="1"/></g><g fill="#000000" fill-opacity="1"><g transform="translate(92.917967, 186.614196)"><g><path d="M 20.828125 -46.8125 C 28.628906 -46.8125 34.46875 -44.859375 38.34375 -40.953125 C 42.226562 -37.054688 44.171875 -31.382812 44.171875 -23.9375 C 44.171875 -19.132812 43.222656 -14.925781 41.328125 -11.3125 C 39.429688 -7.695312 36.6875 -4.90625 33.09375 -2.9375 C 29.5 -0.976562 25.210938 0 20.234375 0 L 16.40625 -0.0625 C 13.9375 -0.15625 12.128906 -0.203125 10.984375 -0.203125 C 7.359375 -0.203125 4.625 -0.132812 2.78125 0 L 2.78125 -1.328125 C 4.363281 -1.410156 5.519531 -1.582031 6.25 -1.84375 C 6.976562 -2.113281 7.472656 -2.625 7.734375 -3.375 C 8.003906 -4.125 8.140625 -5.335938 8.140625 -7.015625 L 8.140625 -39.8125 C 8.140625 -41.476562 8.003906 -42.6875 7.734375 -43.4375 C 7.472656 -44.1875 6.976562 -44.691406 6.25 -44.953125 C 5.519531 -45.222656 4.363281 -45.40625 2.78125 -45.5 L 2.78125 -46.8125 C 4.320312 -46.6875 6.457031 -46.625 9.1875 -46.625 L 14.8125 -46.6875 C 17.8125 -46.769531 19.816406 -46.8125 20.828125 -46.8125 Z M 19.171875 -45.625 C 17.804688 -45.625 16.78125 -45.46875 16.09375 -45.15625 C 15.414062 -44.851562 14.941406 -44.300781 14.671875 -43.5 C 14.410156 -42.707031 14.28125 -41.519531 14.28125 -39.9375 L 14.28125 -6.875 C 14.28125 -5.289062 14.410156 -4.097656 14.671875 -3.296875 C 14.941406 -2.503906 15.414062 -1.953125 16.09375 -1.640625 C 16.78125 -1.335938 17.832031 -1.1875 19.25 -1.1875 C 23.914062 -1.1875 27.59375 -2.035156 30.28125 -3.734375 C 32.96875 -5.429688 34.851562 -7.910156 35.9375 -11.171875 C 37.019531 -14.429688 37.5625 -18.597656 37.5625 -23.671875 C 37.5625 -28.742188 36.960938 -32.875 35.765625 -36.0625 C 34.578125 -39.257812 32.648438 -41.648438 29.984375 -43.234375 C 27.316406 -44.828125 23.710938 -45.625 19.171875 -45.625 Z M 19.171875 -45.625 "/></g></g></g><g fill="#000000" fill-opacity="1"><g transform="translate(140.72068, 186.614196)"><g><path d="M 18.125 -34.984375 C 22.613281 -34.984375 26.234375 -33.492188 28.984375 -30.515625 C 31.742188 -27.535156 33.125 -23.03125 33.125 -17 C 33.125 -10.957031 31.742188 -6.457031 28.984375 -3.5 C 26.234375 -0.550781 22.613281 0.921875 18.125 0.921875 C 13.625 0.921875 9.992188 -0.550781 7.234375 -3.5 C 4.484375 -6.457031 3.109375 -10.957031 3.109375 -17 C 3.109375 -23.03125 4.484375 -27.535156 7.234375 -30.515625 C 9.992188 -33.492188 13.625 -34.984375 18.125 -34.984375 Z M 18.125 -33.65625 C 15.476562 -33.65625 13.378906 -32.300781 11.828125 -29.59375 C 10.285156 -26.882812 9.515625 -22.6875 9.515625 -17 C 9.515625 -11.3125 10.285156 -7.117188 11.828125 -4.421875 C 13.378906 -1.734375 15.476562 -0.390625 18.125 -0.390625 C 20.757812 -0.390625 22.847656 -1.734375 24.390625 -4.421875 C 25.941406 -7.117188 26.71875 -11.3125 26.71875 -17 C 26.71875 -22.6875 25.941406 -26.882812 24.390625 -29.59375 C 22.847656 -32.300781 20.757812 -33.65625 18.125 -33.65625 Z M 18.125 -33.65625 "/></g></g></g><g fill="#000000" fill-opacity="1"><g transform="translate(176.952889, 186.614196)"><g><path d="M 24.140625 -34.984375 C 27.222656 -34.984375 29.554688 -34.144531 31.140625 -32.46875 C 31.984375 -31.582031 32.578125 -30.476562 32.921875 -29.15625 C 33.273438 -27.832031 33.453125 -26.050781 33.453125 -23.8125 L 33.453125 -6.15625 C 33.453125 -4.34375 33.828125 -3.09375 34.578125 -2.40625 C 35.328125 -1.726562 36.628906 -1.390625 38.484375 -1.390625 L 38.484375 0 C 34.429688 -0.175781 31.785156 -0.265625 30.546875 -0.265625 C 29.316406 -0.265625 26.847656 -0.175781 23.140625 0 L 23.140625 -1.390625 C 24.773438 -1.390625 25.910156 -1.726562 26.546875 -2.40625 C 27.191406 -3.09375 27.515625 -4.34375 27.515625 -6.15625 L 27.515625 -25.265625 C 27.515625 -27.734375 27.160156 -29.613281 26.453125 -30.90625 C 25.742188 -32.207031 24.3125 -32.859375 22.15625 -32.859375 C 20.34375 -32.859375 18.726562 -32.328125 17.3125 -31.265625 C 15.90625 -30.210938 14.816406 -28.769531 14.046875 -26.9375 C 13.273438 -25.113281 12.890625 -23.078125 12.890625 -20.828125 L 12.890625 -6.15625 C 12.890625 -4.34375 13.207031 -3.09375 13.84375 -2.40625 C 14.488281 -1.726562 15.628906 -1.390625 17.265625 -1.390625 L 17.265625 0 C 13.554688 -0.175781 11.085938 -0.265625 9.859375 -0.265625 C 8.617188 -0.265625 5.972656 -0.175781 1.921875 0 L 1.921875 -1.390625 C 3.765625 -1.390625 5.0625 -1.726562 5.8125 -2.40625 C 6.5625 -3.09375 6.9375 -4.34375 6.9375 -6.15625 L 6.9375 -26.84375 C 6.9375 -28.875 6.5625 -30.351562 5.8125 -31.28125 C 5.0625 -32.207031 3.765625 -32.671875 1.921875 -32.671875 L 1.921875 -34.046875 C 3.328125 -33.921875 4.691406 -33.859375 6.015625 -33.859375 C 8.796875 -33.859375 11.085938 -34.164062 12.890625 -34.78125 L 12.890625 -26.984375 C 13.992188 -29.804688 15.523438 -31.84375 17.484375 -33.09375 C 19.453125 -34.351562 21.671875 -34.984375 24.140625 -34.984375 Z M 24.140625 -34.984375 "/></g></g></g><g fill="#000000" fill-opacity="1"><g transform="translate(216.424841, 186.614196)"><g><path d="M 18.125 -34.984375 C 22.613281 -34.984375 26.234375 -33.492188 28.984375 -30.515625 C 31.742188 -27.535156 33.125 -23.03125 33.125 -17 C 33.125 -10.957031 31.742188 -6.457031 28.984375 -3.5 C 26.234375 -0.550781 22.613281 0.921875 18.125 0.921875 C 13.625 0.921875 9.992188 -0.550781 7.234375 -3.5 C 4.484375 -6.457031 3.109375 -10.957031 3.109375 -17 C 3.109375 -23.03125 4.484375 -27.535156 7.234375 -30.515625 C 9.992188 -33.492188 13.625 -34.984375 18.125 -34.984375 Z M 18.125 -33.65625 C 15.476562 -33.65625 13.378906 -32.300781 11.828125 -29.59375 C 10.285156 -26.882812 9.515625 -22.6875 9.515625 -17 C 9.515625 -11.3125 10.285156 -7.117188 11.828125 -4.421875 C 13.378906 -1.734375 15.476562 -0.390625 18.125 -0.390625 C 20.757812 -0.390625 22.847656 -1.734375 24.390625 -4.421875 C 25.941406 -7.117188 26.71875 -11.3125 26.71875 -17 C 26.71875 -22.6875 25.941406 -26.882812 24.390625 -29.59375 C 22.847656 -32.300781 20.757812 -33.65625 18.125 -33.65625 Z M 18.125 -33.65625 "/></g></g></g><g fill="#000000" fill-opacity="1"><g transform="translate(252.65705, 186.614196)"><g><path d="M 22.484375 -34.984375 C 24.242188 -34.984375 25.6875 -34.472656 26.8125 -33.453125 C 27.9375 -32.441406 28.5 -31.207031 28.5 -29.75 C 28.5 -28.601562 28.15625 -27.625 27.46875 -26.8125 C 26.789062 -26 25.878906 -25.59375 24.734375 -25.59375 C 23.765625 -25.59375 22.9375 -25.898438 22.25 -26.515625 C 21.5625 -27.128906 21.21875 -27.96875 21.21875 -29.03125 C 21.21875 -30.488281 21.96875 -31.675781 23.46875 -32.59375 C 23.164062 -33.039062 22.703125 -33.265625 22.078125 -33.265625 C 20.359375 -33.265625 18.796875 -32.59375 17.390625 -31.25 C 15.984375 -29.90625 14.878906 -28.257812 14.078125 -26.3125 C 13.285156 -24.375 12.890625 -22.546875 12.890625 -20.828125 L 12.890625 -6.8125 C 12.890625 -4.78125 13.472656 -3.367188 14.640625 -2.578125 C 15.816406 -1.785156 17.570312 -1.390625 19.90625 -1.390625 L 19.90625 0 L 18.3125 -0.0625 C 13.820312 -0.195312 10.957031 -0.265625 9.71875 -0.265625 C 8.570312 -0.265625 5.972656 -0.175781 1.921875 0 L 1.921875 -1.390625 C 3.765625 -1.390625 5.0625 -1.726562 5.8125 -2.40625 C 6.5625 -3.09375 6.9375 -4.34375 6.9375 -6.15625 L 6.9375 -26.84375 C 6.9375 -28.875 6.5625 -30.351562 5.8125 -31.28125 C 5.0625 -32.207031 3.765625 -32.671875 1.921875 -32.671875 L 1.921875 -34.046875 C 3.328125 -33.921875 4.691406 -33.859375 6.015625 -33.859375 C 8.796875 -33.859375 11.085938 -34.164062 12.890625 -34.78125 L 12.890625 -26.515625 C 13.679688 -28.722656 14.945312 -30.6875 16.6875 -32.40625 C 18.4375 -34.125 20.367188 -34.984375 22.484375 -34.984375 Z M 22.484375 -34.984375 "/></g></g></g><g fill="#000000" fill-opacity="1"><g transform="translate(31.574936, 227.554423)"><g><path d="M 8.40625 -19.453125 C 7.71875 -19.421875 7.21875 -19.347656 6.90625 -19.234375 C 6.601562 -19.117188 6.394531 -18.898438 6.28125 -18.578125 C 6.164062 -18.253906 6.109375 -17.738281 6.109375 -17.03125 L 6.109375 -3 C 6.109375 -2.28125 6.164062 -1.757812 6.28125 -1.4375 C 6.394531 -1.125 6.601562 -0.910156 6.90625 -0.796875 C 7.21875 -0.679688 7.71875 -0.601562 8.40625 -0.5625 L 8.40625 0 C 7.53125 -0.0507812 6.332031 -0.078125 4.8125 -0.078125 C 3.1875 -0.078125 1.976562 -0.0507812 1.1875 0 L 1.1875 -0.5625 C 1.863281 -0.601562 2.359375 -0.679688 2.671875 -0.796875 C 2.984375 -0.910156 3.195312 -1.125 3.3125 -1.4375 C 3.425781 -1.757812 3.484375 -2.28125 3.484375 -3 L 3.484375 -17.03125 C 3.484375 -17.738281 3.425781 -18.253906 3.3125 -18.578125 C 3.195312 -18.898438 2.984375 -19.117188 2.671875 -19.234375 C 2.359375 -19.347656 1.863281 -19.421875 1.1875 -19.453125 L 1.1875 -20.015625 C 1.976562 -19.960938 3.1875 -19.9375 4.8125 -19.9375 C 6.3125 -19.9375 7.507812 -19.960938 8.40625 -20.015625 Z M 8.40625 -19.453125 "/></g></g></g><g fill="#000000" fill-opacity="1"><g transform="translate(52.467923, 227.554423)"><g><path d="M 18.953125 -19.453125 C 18.285156 -19.421875 17.789062 -19.320312 17.46875 -19.15625 C 17.15625 -19 16.941406 -18.734375 16.828125 -18.359375 C 16.710938 -17.992188 16.65625 -17.457031 16.65625 -16.75 L 16.65625 0.140625 L 16 0.140625 L 4.125 -18.21875 L 4.125 -3.28125 C 4.125 -2.539062 4.1875 -1.992188 4.3125 -1.640625 C 4.4375 -1.285156 4.675781 -1.023438 5.03125 -0.859375 C 5.394531 -0.703125 5.953125 -0.601562 6.703125 -0.5625 L 6.703125 0 C 6.023438 -0.0507812 5.0625 -0.078125 3.8125 -0.078125 C 2.6875 -0.078125 1.8125 -0.0507812 1.1875 0 L 1.1875 -0.5625 C 1.84375 -0.601562 2.332031 -0.703125 2.65625 -0.859375 C 2.976562 -1.023438 3.195312 -1.289062 3.3125 -1.65625 C 3.425781 -2.019531 3.484375 -2.5625 3.484375 -3.28125 L 3.484375 -17.03125 C 3.484375 -17.738281 3.425781 -18.253906 3.3125 -18.578125 C 3.195312 -18.898438 2.984375 -19.117188 2.671875 -19.234375 C 2.359375 -19.347656 1.863281 -19.421875 1.1875 -19.453125 L 1.1875 -20.015625 C 1.8125 -19.960938 2.6875 -19.9375 3.8125 -19.9375 C 4.664062 -19.9375 5.40625 -19.960938 6.03125 -20.015625 L 16 -4.640625 L 16 -16.75 C 16 -17.476562 15.9375 -18.019531 15.8125 -18.375 C 15.695312 -18.738281 15.457031 -19 15.09375 -19.15625 C 14.738281 -19.320312 14.1875 -19.421875 13.4375 -19.453125 L 13.4375 -20.015625 C 14.113281 -19.960938 15.070312 -19.9375 16.3125 -19.9375 C 17.445312 -19.9375 18.328125 -19.960938 18.953125 -20.015625 Z M 18.953125 -19.453125 "/></g></g></g><g fill="#000000" fill-opacity="1"><g transform="translate(83.734404, 227.554423)"><g><path d="M 15.296875 -20.015625 C 15.171875 -18.679688 15.109375 -17.476562 15.109375 -16.40625 C 15.109375 -15.457031 15.132812 -14.679688 15.1875 -14.078125 L 14.53125 -14.078125 C 14.382812 -15.535156 14.195312 -16.613281 13.96875 -17.3125 C 13.738281 -18.019531 13.34375 -18.539062 12.78125 -18.875 C 12.21875 -19.207031 11.351562 -19.375 10.1875 -19.375 L 8.40625 -19.375 C 7.71875 -19.375 7.21875 -19.320312 6.90625 -19.21875 C 6.601562 -19.113281 6.394531 -18.898438 6.28125 -18.578125 C 6.164062 -18.253906 6.109375 -17.738281 6.109375 -17.03125 L 6.109375 -10.0625 L 8.171875 -10.0625 C 8.828125 -10.0625 9.332031 -10.21875 9.6875 -10.53125 C 10.050781 -10.84375 10.296875 -11.210938 10.421875 -11.640625 C 10.546875 -12.066406 10.644531 -12.597656 10.71875 -13.234375 L 10.796875 -13.796875 L 11.453125 -13.796875 C 11.398438 -13.003906 11.375 -12.117188 11.375 -11.140625 L 11.375 -9.78125 C 11.375 -8.820312 11.425781 -7.484375 11.53125 -5.765625 L 10.890625 -5.765625 C 10.867188 -5.898438 10.8125 -6.359375 10.71875 -7.140625 C 10.625 -7.921875 10.363281 -8.507812 9.9375 -8.90625 C 9.507812 -9.300781 8.921875 -9.5 8.171875 -9.5 L 6.109375 -9.5 L 6.109375 -3 C 6.109375 -2.28125 6.179688 -1.757812 6.328125 -1.4375 C 6.484375 -1.125 6.75 -0.910156 7.125 -0.796875 C 7.5 -0.679688 8.113281 -0.601562 8.96875 -0.5625 L 8.96875 0 C 7.988281 -0.0507812 6.601562 -0.078125 4.8125 -0.078125 C 3.1875 -0.078125 1.976562 -0.0507812 1.1875 0 L 1.1875 -0.5625 C 1.863281 -0.601562 2.359375 -0.679688 2.671875 -0.796875 C 2.984375 -0.910156 3.195312 -1.125 3.3125 -1.4375 C 3.425781 -1.757812 3.484375 -2.28125 3.484375 -3 L 3.484375 -17.03125 C 3.484375 -17.738281 3.425781 -18.253906 3.3125 -18.578125 C 3.195312 -18.898438 2.984375 -19.117188 2.671875 -19.234375 C 2.359375 -19.347656 1.863281 -19.421875 1.1875 -19.453125 L 1.1875 -20.015625 C 3.03125 -19.960938 5.765625 -19.9375 9.390625 -19.9375 C 12.160156 -19.9375 14.128906 -19.960938 15.296875 -20.015625 Z M 15.296875 -20.015625 "/></g></g></g><g fill="#000000" fill-opacity="1"><g transform="translate(111.128491, 227.554423)"><g><path d="M 10.5 -20.421875 C 12.28125 -20.421875 13.84375 -20.015625 15.1875 -19.203125 C 16.539062 -18.390625 17.585938 -17.210938 18.328125 -15.671875 C 19.078125 -14.140625 19.453125 -12.3125 19.453125 -10.1875 C 19.453125 -8.101562 19.070312 -6.257812 18.3125 -4.65625 C 17.550781 -3.0625 16.484375 -1.820312 15.109375 -0.9375 C 13.742188 -0.0507812 12.195312 0.390625 10.46875 0.390625 C 8.675781 0.390625 7.101562 -0.0078125 5.75 -0.8125 C 4.40625 -1.625 3.359375 -2.796875 2.609375 -4.328125 C 1.867188 -5.867188 1.5 -7.707031 1.5 -9.84375 C 1.5 -11.914062 1.878906 -13.753906 2.640625 -15.359375 C 3.410156 -16.960938 4.476562 -18.207031 5.84375 -19.09375 C 7.207031 -19.976562 8.757812 -20.421875 10.5 -20.421875 Z M 10.375 -19.90625 C 9.164062 -19.90625 8.101562 -19.484375 7.1875 -18.640625 C 6.28125 -17.804688 5.578125 -16.632812 5.078125 -15.125 C 4.578125 -13.625 4.328125 -11.898438 4.328125 -9.953125 C 4.328125 -7.992188 4.601562 -6.269531 5.15625 -4.78125 C 5.71875 -3.289062 6.46875 -2.140625 7.40625 -1.328125 C 8.351562 -0.515625 9.410156 -0.109375 10.578125 -0.109375 C 11.785156 -0.109375 12.84375 -0.523438 13.75 -1.359375 C 14.664062 -2.203125 15.375 -3.378906 15.875 -4.890625 C 16.375 -6.398438 16.625 -8.125 16.625 -10.0625 C 16.625 -12.03125 16.34375 -13.757812 15.78125 -15.25 C 15.226562 -16.738281 14.476562 -17.882812 13.53125 -18.6875 C 12.59375 -19.5 11.539062 -19.90625 10.375 -19.90625 Z M 10.375 -19.90625 "/></g></g></g><g fill="#000000" fill-opacity="1"><g transform="translate(143.384268, 227.554423)"><g><path d="M 18.671875 -1.40625 C 18.234375 -0.769531 17.796875 -0.3125 17.359375 -0.03125 C 16.929688 0.25 16.359375 0.390625 15.640625 0.390625 C 14.867188 0.390625 14.234375 0.164062 13.734375 -0.28125 C 13.234375 -0.738281 12.859375 -1.53125 12.609375 -2.65625 L 11.984375 -5.484375 C 11.765625 -6.460938 11.554688 -7.21875 11.359375 -7.75 C 11.160156 -8.28125 10.863281 -8.703125 10.46875 -9.015625 C 10.070312 -9.335938 9.515625 -9.5 8.796875 -9.5 L 6.109375 -9.5 L 6.109375 -3 C 6.109375 -2.28125 6.164062 -1.757812 6.28125 -1.4375 C 6.394531 -1.125 6.601562 -0.910156 6.90625 -0.796875 C 7.21875 -0.679688 7.71875 -0.601562 8.40625 -0.5625 L 8.40625 0 C 7.53125 -0.0507812 6.332031 -0.078125 4.8125 -0.078125 C 3.1875 -0.078125 1.976562 -0.0507812 1.1875 0 L 1.1875 -0.5625 C 1.863281 -0.601562 2.359375 -0.679688 2.671875 -0.796875 C 2.984375 -0.910156 3.195312 -1.125 3.3125 -1.4375 C 3.425781 -1.757812 3.484375 -2.28125 3.484375 -3 L 3.484375 -17.03125 C 3.484375 -17.738281 3.425781 -18.253906 3.3125 -18.578125 C 3.195312 -18.898438 2.984375 -19.117188 2.671875 -19.234375 C 2.359375 -19.347656 1.863281 -19.421875 1.1875 -19.453125 L 1.1875 -20.015625 C 1.976562 -19.960938 3.128906 -19.9375 4.640625 -19.9375 L 7.6875 -19.96875 C 8.050781 -19.988281 8.457031 -20 8.90625 -20 C 11.09375 -20 12.773438 -19.539062 13.953125 -18.625 C 15.128906 -17.707031 15.71875 -16.523438 15.71875 -15.078125 C 15.71875 -14.335938 15.539062 -13.59375 15.1875 -12.84375 C 14.84375 -12.101562 14.257812 -11.4375 13.4375 -10.84375 C 12.625 -10.25 11.554688 -9.847656 10.234375 -9.640625 L 10.578125 -9.59375 C 11.816406 -9.382812 12.71875 -9.003906 13.28125 -8.453125 C 13.851562 -7.910156 14.269531 -7.046875 14.53125 -5.859375 L 15.25 -2.96875 C 15.4375 -2.101562 15.632812 -1.5 15.84375 -1.15625 C 16.050781 -0.820312 16.332031 -0.65625 16.6875 -0.65625 C 17.007812 -0.65625 17.273438 -0.738281 17.484375 -0.90625 C 17.703125 -1.070312 17.953125 -1.34375 18.234375 -1.71875 Z M 8.203125 -19.453125 C 7.617188 -19.453125 7.179688 -19.382812 6.890625 -19.25 C 6.597656 -19.125 6.394531 -18.890625 6.28125 -18.546875 C 6.164062 -18.210938 6.109375 -17.707031 6.109375 -17.03125 L 6.109375 -10.0625 L 8 -10.0625 C 9.863281 -10.0625 11.144531 -10.476562 11.84375 -11.3125 C 12.539062 -12.144531 12.890625 -13.296875 12.890625 -14.765625 C 12.890625 -16.304688 12.519531 -17.472656 11.78125 -18.265625 C 11.050781 -19.054688 9.859375 -19.453125 8.203125 -19.453125 Z M 8.203125 -19.453125 "/></g></g></g><g fill="#000000" fill-opacity="1"><g transform="translate(173.011338, 227.554423)"><g><path d="M 23.4375 -19.453125 C 22.757812 -19.421875 22.265625 -19.347656 21.953125 -19.234375 C 21.648438 -19.117188 21.441406 -18.898438 21.328125 -18.578125 C 21.210938 -18.253906 21.15625 -17.738281 21.15625 -17.03125 L 21.15625 -3 C 21.15625 -2.28125 21.210938 -1.757812 21.328125 -1.4375 C 21.441406 -1.125 21.648438 -0.910156 21.953125 -0.796875 C 22.265625 -0.679688 22.757812 -0.601562 23.4375 -0.5625 L 23.4375 0 C 22.570312 -0.0507812 21.378906 -0.078125 19.859375 -0.078125 C 18.234375 -0.078125 17.023438 -0.0507812 16.234375 0 L 16.234375 -0.5625 C 16.910156 -0.601562 17.40625 -0.679688 17.71875 -0.796875 C 18.03125 -0.910156 18.242188 -1.125 18.359375 -1.4375 C 18.472656 -1.757812 18.53125 -2.28125 18.53125 -3 L 18.53125 -18.15625 L 11.703125 0.140625 L 11.25 0.140625 L 4.125 -18.21875 L 4.125 -3.28125 C 4.125 -2.539062 4.1875 -1.992188 4.3125 -1.640625 C 4.4375 -1.285156 4.675781 -1.023438 5.03125 -0.859375 C 5.394531 -0.703125 5.953125 -0.601562 6.703125 -0.5625 L 6.703125 0 C 6.023438 -0.0507812 5.0625 -0.078125 3.8125 -0.078125 C 2.6875 -0.078125 1.8125 -0.0507812 1.1875 0 L 1.1875 -0.5625 C 1.84375 -0.601562 2.332031 -0.703125 2.65625 -0.859375 C 2.976562 -1.023438 3.195312 -1.289062 3.3125 -1.65625 C 3.425781 -2.019531 3.484375 -2.5625 3.484375 -3.28125 L 3.484375 -17.03125 C 3.484375 -17.738281 3.425781 -18.253906 3.3125 -18.578125 C 3.195312 -18.898438 2.984375 -19.117188 2.671875 -19.234375 C 2.359375 -19.347656 1.863281 -19.421875 1.1875 -19.453125 L 1.1875 -20.015625 C 1.8125 -19.960938 2.6875 -19.9375 3.8125 -19.9375 C 4.789062 -19.9375 5.59375 -19.960938 6.21875 -20.015625 L 12.4375 -3.640625 L 18.53125 -19.9375 L 19.859375 -19.9375 C 21.378906 -19.9375 22.570312 -19.960938 23.4375 -20.015625 Z M 23.4375 -19.453125 "/></g></g></g><g fill="#000000" fill-opacity="1"><g transform="translate(208.941652, 227.554423)"><g><path d="M 16.03125 -2.375 C 16.488281 -1.207031 17.140625 -0.601562 17.984375 -0.5625 L 17.984375 0 C 17.234375 -0.0507812 16.222656 -0.078125 14.953125 -0.078125 C 13.335938 -0.078125 12.132812 -0.0507812 11.34375 0 L 11.34375 -0.5625 C 12.0625 -0.601562 12.570312 -0.691406 12.875 -0.828125 C 13.1875 -0.972656 13.34375 -1.234375 13.34375 -1.609375 C 13.34375 -1.929688 13.234375 -2.375 13.015625 -2.9375 L 11.28125 -7.578125 L 4.4375 -7.578125 L 3.28125 -4.578125 C 2.90625 -3.554688 2.71875 -2.785156 2.71875 -2.265625 C 2.71875 -1.679688 2.921875 -1.253906 3.328125 -0.984375 C 3.734375 -0.722656 4.347656 -0.582031 5.171875 -0.5625 L 5.171875 0 C 4.097656 -0.0507812 3.015625 -0.078125 1.921875 -0.078125 C 1.078125 -0.078125 0.367188 -0.0507812 -0.203125 0 L -0.203125 -0.5625 C 0.742188 -0.789062 1.488281 -1.613281 2.03125 -3.03125 L 8.6875 -20.171875 L 9.140625 -20.171875 Z M 11.0625 -8.140625 L 7.890625 -16.59375 L 4.671875 -8.140625 Z M 11.0625 -8.140625 "/></g></g></g><g fill="#000000" fill-opacity="1"><g transform="translate(238.059941, 227.554423)"><g><path d="M 16.75 -20.015625 C 16.613281 -18.679688 16.546875 -17.476562 16.546875 -16.40625 C 16.546875 -15.457031 16.570312 -14.679688 16.625 -14.078125 L 15.984375 -14.078125 C 15.828125 -15.535156 15.632812 -16.613281 15.40625 -17.3125 C 15.1875 -18.019531 14.789062 -18.539062 14.21875 -18.875 C 13.65625 -19.207031 12.789062 -19.375 11.625 -19.375 L 10.09375 -19.375 L 10.09375 -3.28125 C 10.09375 -2.488281 10.164062 -1.910156 10.3125 -1.546875 C 10.46875 -1.191406 10.734375 -0.945312 11.109375 -0.8125 C 11.492188 -0.6875 12.109375 -0.601562 12.953125 -0.5625 L 12.953125 0 C 11.972656 -0.0507812 10.585938 -0.078125 8.796875 -0.078125 C 6.910156 -0.078125 5.515625 -0.0507812 4.609375 0 L 4.609375 -0.5625 C 5.453125 -0.601562 6.0625 -0.6875 6.4375 -0.8125 C 6.820312 -0.945312 7.085938 -1.191406 7.234375 -1.546875 C 7.390625 -1.910156 7.46875 -2.488281 7.46875 -3.28125 L 7.46875 -19.375 L 5.9375 -19.375 C 4.769531 -19.375 3.898438 -19.207031 3.328125 -18.875 C 2.765625 -18.539062 2.367188 -18.019531 2.140625 -17.3125 C 1.921875 -16.613281 1.734375 -15.535156 1.578125 -14.078125 L 0.9375 -14.078125 C 0.988281 -14.679688 1.015625 -15.457031 1.015625 -16.40625 C 1.015625 -17.476562 0.945312 -18.679688 0.8125 -20.015625 C 2.382812 -19.960938 5.046875 -19.9375 8.796875 -19.9375 C 12.523438 -19.9375 15.175781 -19.960938 16.75 -20.015625 Z M 16.75 -20.015625 "/></g></g></g><g fill="#000000" fill-opacity="1"><g transform="translate(266.923838, 227.554423)"><g><path d="M 8.40625 -19.453125 C 7.71875 -19.421875 7.21875 -19.347656 6.90625 -19.234375 C 6.601562 -19.117188 6.394531 -18.898438 6.28125 -18.578125 C 6.164062 -18.253906 6.109375 -17.738281 6.109375 -17.03125 L 6.109375 -3 C 6.109375 -2.28125 6.164062 -1.757812 6.28125 -1.4375 C 6.394531 -1.125 6.601562 -0.910156 6.90625 -0.796875 C 7.21875 -0.679688 7.71875 -0.601562 8.40625 -0.5625 L 8.40625 0 C 7.53125 -0.0507812 6.332031 -0.078125 4.8125 -0.078125 C 3.1875 -0.078125 1.976562 -0.0507812 1.1875 0 L 1.1875 -0.5625 C 1.863281 -0.601562 2.359375 -0.679688 2.671875 -0.796875 C 2.984375 -0.910156 3.195312 -1.125 3.3125 -1.4375 C 3.425781 -1.757812 3.484375 -2.28125 3.484375 -3 L 3.484375 -17.03125 C 3.484375 -17.738281 3.425781 -18.253906 3.3125 -18.578125 C 3.195312 -18.898438 2.984375 -19.117188 2.671875 -19.234375 C 2.359375 -19.347656 1.863281 -19.421875 1.1875 -19.453125 L 1.1875 -20.015625 C 1.976562 -19.960938 3.1875 -19.9375 4.8125 -19.9375 C 6.3125 -19.9375 7.507812 -19.960938 8.40625 -20.015625 Z M 8.40625 -19.453125 "/></g></g></g><g fill="#000000" fill-opacity="1"><g transform="translate(287.816834, 227.554423)"><g><path d="M 10.5 -20.421875 C 12.28125 -20.421875 13.84375 -20.015625 15.1875 -19.203125 C 16.539062 -18.390625 17.585938 -17.210938 18.328125 -15.671875 C 19.078125 -14.140625 19.453125 -12.3125 19.453125 -10.1875 C 19.453125 -8.101562 19.070312 -6.257812 18.3125 -4.65625 C 17.550781 -3.0625 16.484375 -1.820312 15.109375 -0.9375 C 13.742188 -0.0507812 12.195312 0.390625 10.46875 0.390625 C 8.675781 0.390625 7.101562 -0.0078125 5.75 -0.8125 C 4.40625 -1.625 3.359375 -2.796875 2.609375 -4.328125 C 1.867188 -5.867188 1.5 -7.707031 1.5 -9.84375 C 1.5 -11.914062 1.878906 -13.753906 2.640625 -15.359375 C 3.410156 -16.960938 4.476562 -18.207031 5.84375 -19.09375 C 7.207031 -19.976562 8.757812 -20.421875 10.5 -20.421875 Z M 10.375 -19.90625 C 9.164062 -19.90625 8.101562 -19.484375 7.1875 -18.640625 C 6.28125 -17.804688 5.578125 -16.632812 5.078125 -15.125 C 4.578125 -13.625 4.328125 -11.898438 4.328125 -9.953125 C 4.328125 -7.992188 4.601562 -6.269531 5.15625 -4.78125 C 5.71875 -3.289062 6.46875 -2.140625 7.40625 -1.328125 C 8.351562 -0.515625 9.410156 -0.109375 10.578125 -0.109375 C 11.785156 -0.109375 12.84375 -0.523438 13.75 -1.359375 C 14.664062 -2.203125 15.375 -3.378906 15.875 -4.890625 C 16.375 -6.398438 16.625 -8.125 16.625 -10.0625 C 16.625 -12.03125 16.34375 -13.757812 15.78125 -15.25 C 15.226562 -16.738281 14.476562 -17.882812 13.53125 -18.6875 C 12.59375 -19.5 11.539062 -19.90625 10.375 -19.90625 Z M 10.375 -19.90625 "/></g></g></g><g fill="#000000" fill-opacity="1"><g transform="translate(320.0726, 227.554423)"><g><path d="M 18.953125 -19.453125 C 18.285156 -19.421875 17.789062 -19.320312 17.46875 -19.15625 C 17.15625 -19 16.941406 -18.734375 16.828125 -18.359375 C 16.710938 -17.992188 16.65625 -17.457031 16.65625 -16.75 L 16.65625 0.140625 L 16 0.140625 L 4.125 -18.21875 L 4.125 -3.28125 C 4.125 -2.539062 4.1875 -1.992188 4.3125 -1.640625 C 4.4375 -1.285156 4.675781 -1.023438 5.03125 -0.859375 C 5.394531 -0.703125 5.953125 -0.601562 6.703125 -0.5625 L 6.703125 0 C 6.023438 -0.0507812 5.0625 -0.078125 3.8125 -0.078125 C 2.6875 -0.078125 1.8125 -0.0507812 1.1875 0 L 1.1875 -0.5625 C 1.84375 -0.601562 2.332031 -0.703125 2.65625 -0.859375 C 2.976562 -1.023438 3.195312 -1.289062 3.3125 -1.65625 C 3.425781 -2.019531 3.484375 -2.5625 3.484375 -3.28125 L 3.484375 -17.03125 C 3.484375 -17.738281 3.425781 -18.253906 3.3125 -18.578125 C 3.195312 -18.898438 2.984375 -19.117188 2.671875 -19.234375 C 2.359375 -19.347656 1.863281 -19.421875 1.1875 -19.453125 L 1.1875 -20.015625 C 1.8125 -19.960938 2.6875 -19.9375 3.8125 -19.9375 C 4.664062 -19.9375 5.40625 -19.960938 6.03125 -20.015625 L 16 -4.640625 L 16 -16.75 C 16 -17.476562 15.9375 -18.019531 15.8125 -18.375 C 15.695312 -18.738281 15.457031 -19 15.09375 -19.15625 C 14.738281 -19.320312 14.1875 -19.421875 13.4375 -19.453125 L 13.4375 -20.015625 C 14.113281 -19.960938 15.070312 -19.9375 16.3125 -19.9375 C 17.445312 -19.9375 18.328125 -19.960938 18.953125 -20.015625 Z M 18.953125 -19.453125 "/></g></g></g></svg>